<?xml version="1.0" encoding="UTF-8"?> <svg xmlns="http://www.w3.org/2000/svg" id="Layer_2" width="200" height="32" viewBox="0 0 200 32"><defs><style>.cls-1{fill:#124649;}.cls-2{fill:#9ebfb1;}</style></defs><g id="Layer_1-2"><g id="Layer_2-2"><g id="Layer_1-2"><path class="cls-1" d="M2.0213,25.1722c.4453-.5906.651-1.3256.5764-2.0595v-12.0064c.0715-.8851-.1439-1.7698-.6148-2.5248-.5025-.5608-1.2268-.8757-1.9829-.862v-.3814h7.4857v.3814c-.7326.0289-1.435.297-1.9982.7628-.4632.5943-.6779,1.3428-.5995,2.0901v11.9759c-.1132.9279.1649,1.8609.7686,2.5782.744.5645,1.6719.8361,2.6054.7628.9597.0348,1.9152-.1424,2.7975-.5187.8478-.3821,1.5639-1.0027,2.0597-1.7849.555-.7522.9499-1.6086,1.1605-2.5172l.3843.0839c-.1537,1.9528-.2152,3.0054-.269,5.1946H0v-.4119c.7402-.0256,1.451-.2938,2.0213-.7628Z"></path><path class="cls-1" d="M17.5383,24.6993c-1.2002-1.5156-1.799-3.4153-1.6831-5.3396-.1362-1.9169.4408-3.8167,1.6216-5.3396,1.1962-1.3149,2.9294-2.0193,4.7112-1.9146,1.8099-.1066,3.5717.6024,4.7958,1.9299,1.197,1.5173,1.7955,3.4157,1.6831,5.3396.1209,1.9015-.4795,3.779-1.6831,5.2633-1.2423,1.295-2.9976,1.9791-4.7958,1.8688-1.7448.1207-3.4518-.543-4.6497-1.8078ZM25.2238,24.4704c.7888-1.4464,1.166-3.0787,1.0913-4.7217.1174-1.8131-.2456-3.6251-1.0529-5.2556-.8073-1.6715-2.827-2.377-4.5111-1.5758-.6251.2974-1.143.7783-1.4836,1.3775-.8056,1.4456-1.1838,3.0875-1.0913,4.7369-.093,1.8191.3022,3.6301,1.1451,5.248.5834,1.1586,1.7694,1.8972,3.0742,1.9146,1.1998-.0026,2.2987-.6669,2.8513-1.7239h-.0231Z"></path><path class="cls-1" d="M33.0477,25.6604c-.9803-.6441-1.7559-1.5515-2.2365-2.6164-.5472-1.2419-.8097-2.5888-.7686-3.9436-.0292-1.2803.2668-2.5474.8608-3.6843.527-1.0012,1.3257-1.8361,2.3057-2.4104.9645-.5614,2.0637-.8539,3.1818-.8467,1.0175-.0088,2.0281.167,2.982.5187.8791.3247,1.6782.8318,2.3441,1.4874h0c-.8011.8426-2.1388.881-2.9877.0858-.0297-.0278-.0585-.0564-.0865-.0858-.2754-.2978-.5791-.5686-.9069-.8086-.6249-.4448-1.3753-.6824-2.1443-.6789-.575.0158-1.1232.2444-1.5371.6407-.5656.5345-.9882,1.2004-1.2297,1.9375-.3413,1.0359-.5024,2.1218-.4765,3.2114-.0238,1.1979.1849,2.3892.6148,3.5089.355.9241.9617,1.7322,1.7523,2.3341.7446.5461,1.6488.8354,2.5746.8238.7811.0022,1.5492-.1976,2.2288-.5797.6631-.3543,1.2159-.8818,1.5986-1.5256l.4073.1602c-.3771,1.0148-1.0584,1.8906-1.9521,2.5096-.9409.6209-2.0523.938-3.1818.9077-1.1843.0212-2.3482-.3081-3.3432-.9459Z"></path><path class="cls-1" d="M56.1042,24.7908c-.2481.5033-.6081.9441-1.0529,1.2891-.3995.2569-.8693.3848-1.345.3661-.5658.0036-1.1006-.2561-1.4449-.7018-.4204-.5986-.653-1.3072-.6686-2.0367-1.6703,1.9172-3.4969,2.8757-5.4798,2.8757-.868.0443-1.7115-.2934-2.3057-.923-.6079-.6745-.9228-1.56-.8761-2.4638.0038-.8246.2731-1.6264.7686-2.2884.7062-.8545,1.6036-1.5336,2.6208-1.9833,1.6961-.7957,3.4605-1.439,5.2723-1.9222.038-1.1353-.2159-2.2614-.7378-3.2724-.3078-.689-.9787-1.1486-1.7369-1.19-.6619.0061-1.2997.2469-1.7984.6789-.3212.2648-.6171.5584-.8838.8772-.7282.8728-2.0315.9944-2.9109.2717-.0571-.0469-.1116-.0969-.1633-.1496h0c.6921-.6877,1.5333-1.2095,2.4594-1.5256,1.0144-.366,2.0872-.5469,3.1664-.534,1.2899-.0928,2.565.3209,3.5507,1.1518.876.903,1.3328,2.1277,1.2604,3.3792v6.3922c-.0306.5478.0639,1.0954.2767,1.6019.118.3214.4239.5369.7686.5416.2068-.006.4073-.0723.5764-.1907.1948-.119.354-.2876.4611-.4882l.2229.2441ZM49.5408,24.6993c.7573-.4301,1.4272-.9966,1.9752-1.6705v-5.5531c-1.8034.3616-3.5104,1.0944-5.011,2.1511-.9474.7659-1.4861,1.9226-1.4602,3.1351,0,1.6375.8557,2.4587,2.567,2.4638.6876-.0081,1.3619-.1892,1.9598-.5263h-.0307Z"></path><path class="cls-1" d="M57.941,25.1722c.403-.614.5845-1.3453.5149-2.0748v-12.4183c.0457-.4578-.1081-.9131-.4227-1.251-.4805-.3289-1.0398-.5262-1.6216-.5721v-.2975l4.2347-.9306v14.9126c-.0708.8605.0994,1.7238.4919,2.4943.3584.5052.9183.8331,1.5371.9001v.3738h-6.2637v-.3738c.5858-.063,1.1289-.3339,1.5294-.7628Z"></path><path class="cls-1" d="M105.8064,25.7367c.4627-.5916.6774-1.3376.5995-2.0824v-11.9835c.0753-.883-.1405-1.7665-.6148-2.5172-.4948-.5677-1.2191-.8865-1.9752-.8696v-.3814h7.478v.3814c-.7299.0305-1.4294.2986-1.9905.7628-.4632.5943-.6779,1.3428-.5995,2.0901v11.9759c-.0742.8829.1415,1.766.6148,2.5172.4948.5677,1.2191.8865,1.9752.8696v.3814h-7.478v-.3814c.7302-.0288,1.4303-.2971,1.9905-.7628Z"></path><path class="cls-1" d="M126.1423,25.607c.3606.5016.9199.8263,1.5371.8925v.3814h-6.0101v-.3814c.513-.0863.9757-.358,1.2989-.7628.3688-.6214.5352-1.3407.4765-2.0595v-6.1023c.0577-.9451-.2409-1.8777-.8377-2.6164-.5361-.6328-1.3347-.9869-2.1673-.9611-.766.0017-1.5202.1875-2.1981.5416-.7168.3665-1.354.8693-1.8753,1.4798v7.094c-.0647.8512.0914,1.7047.4534,2.4791.2802.4849.7659.8185,1.3219.9077v.3814h-6.0101v-.3814c.5891-.0591,1.136-.3305,1.5371-.7628.4051-.6133.5893-1.3445.5226-2.0748v-7.7652c0-1.0984-.684-1.701-2.052-1.8154v-.2975l4.1271-.9459v2.7079c.6636-.8605,1.5115-1.564,2.4824-2.0595.9072-.4871,1.9199-.7488,2.9512-.7628,1.0732-.0498,2.1183.3485,2.8821,1.0984.7423.7953,1.1301,1.854,1.076,2.9368v6.3541c-.0732.8598.0944,1.723.4842,2.4943Z"></path><path class="cls-1" d="M154.3788,26.446c-.9651-.3861-1.7995-1.037-2.4056-1.8765h0c.8766-.7327,2.1857-.6213,2.9239.2487.0199.0235.0393.0473.0581.0716.2898.3891.6281.7402,1.0068,1.045.6823.5061,1.5078.7864,2.3595.8009.6174.0244,1.2287-.1293,1.76-.4424,1.1638-.636,1.5877-2.088.9469-3.2431-.0652-.1175-.1403-.2294-.2244-.3344-.3528-.4305-.7827-.7926-1.2681-1.0679-.4996-.2899-1.1836-.6407-2.0597-1.0603-.789-.3621-1.5585-.7643-2.3057-1.2052-.565-.343-1.0603-.788-1.4603-1.312-.3905-.5259-.6006-1.1622-.5995-1.8154-.0167-.5806.1383-1.1534.4458-1.6476.4292-.6447,1.0457-1.1448,1.7677-1.4341.7298-.3029,1.5147-.4535,2.3057-.4424,1.0221-.0085,2.0365.1753,2.9897.5416h.0769c.994.4143,1.4614,1.55,1.0439,2.5366-.0941.2224-.2292.4253-.3984.5985h0c-.573-.9486-1.3031-1.7945-2.1596-2.502-.584-.4547-1.3022-.7066-2.0443-.717-1.1523-.0704-2.144.7998-2.2149,1.9435-.0057.092-.0052.1843.0014.2762-.0069.4596.1635.9045.4765,1.2434.3362.3801.7335.7023,1.1759.9535.4611.267,1.1067.6026,1.9214.9993.829.382,1.6371.8073,2.4209,1.2739.5961.3843,1.1169.8727,1.5371,1.4417.443.595.673,1.3199.6533,2.0595.0031.6747-.2065,1.3335-.5995,1.8841-.444.602-1.0481,1.0695-1.7446,1.3501-.8566.3529-1.7781.5243-2.7053.5034-1.2604.0283-2.5134-.2001-3.6814-.6713Z"></path><path class="cls-1" d="M165.3921,25.729c.4051-.6133.5893-1.3445.5226-2.0748v-7.7576c0-1.0984-.684-1.701-2.052-1.8154v-.2975l4.2347-.9459v10.2748c-.0679.8457.1024,1.6934.4919,2.4486.3562.5138.9144.8545,1.5371.9382v.3814h-6.2791v-.3814c.5929-.0593,1.143-.3337,1.5448-.7704ZM165.6534,10.1375c-.2944-.2904-.4579-.6865-.4534-1.0984-.0249-.4237.1346-.8376.4381-1.1366.3247-.2803.746-.4251,1.1759-.4043.43-.016.8484.1407,1.1605.4348.301.2891.4655.6905.4534,1.1061.0213.4313-.1502.8501-.4688,1.1442-.3177.2716-.726.4158-1.1451.4043-.4335.0193-.855-.1442-1.1605-.45Z"></path><path class="cls-1" d="M172.6396,25.2637c-1.1854-1.5083-1.7805-3.3914-1.6754-5.3014-.1362-1.9169.4408-3.8167,1.6216-5.3396,1.1976-1.3121,2.9307-2.0136,4.7112-1.907,1.8088-.1096,3.5709.5967,4.7958,1.9222,1.1221,1.2815,1.6754,3.0512,1.6754,5.3396.1211,1.8979-.4764,3.7723-1.6754,5.2556-1.2423,1.295-2.9976,1.9791-4.7958,1.8688-1.7518.112-3.4616-.5629-4.6574-1.8383ZM180.3251,25.0349c.7896-1.4434,1.1669-3.0734,1.0913-4.7141.1136-1.8227-.2575-3.643-1.076-5.2785-.8073-1.6715-2.8269-2.377-4.5111-1.5758-.6251.2974-1.143.7783-1.4836,1.3775-.8062,1.4482-1.1844,3.0927-1.0913,4.7446-.0735,1.8221.343,3.6308,1.2066,5.2404.5834,1.1586,1.7694,1.8972,3.0742,1.9146,1.1854-.0109,2.2689-.6672,2.8206-1.7087h-.0307Z"></path><path class="cls-1" d="M198.4629,25.607c.3606.5016.9199.8263,1.5371.8925v.3814h-6.0101v-.3814c.513-.0863.9757-.358,1.2989-.7628.3688-.6214.5352-1.3407.4765-2.0595v-6.1023c.0533-.9433-.2418-1.8735-.83-2.6164-.5399-.6321-1.3404-.9859-2.175-.9611-.7659.0026-1.5199.1884-2.1981.5416-.7168.3665-1.354.8693-1.8753,1.4798v7.094c-.061.851.0949,1.7036.4534,2.4791.2802.4849.7659.8185,1.3219.9077v.3814h-6.0101v-.3814c.5891-.0591,1.136-.3305,1.5371-.7628.4051-.6133.5893-1.3445.5226-2.0748v-7.7652c0-1.0984-.684-1.701-2.052-1.8154v-.2975l4.1271-.9459v2.7079c.6654-.8588,1.5129-1.5619,2.4824-2.0595.9072-.4871,1.9199-.7488,2.9512-.7628,1.0732-.0498,2.1183.3485,2.8821,1.0984.7423.7953,1.1301,1.854,1.076,2.9368v6.3541c-.0692.8596.0981,1.7218.4842,2.4943Z"></path><path class="cls-1" d="M150.367,25.7061c-.3894-.7552-.5597-1.6029-.4919-2.4486v-10.4198l-4.2347.9459v.2975c1.368.1144,2.052.717,2.052,1.8154v7.9712c-.5317.6051-1.1763,1.1025-1.8983,1.4646-.6796.3496-1.4326.5352-2.1981.5416-.8379.0306-1.6432-.324-2.1827-.9611-.5869-.7435-.8819-1.6732-.83-2.6164v-8.9705h-7.8392v-.2212c-.0641-.8435-.0019-1.6918.1845-2.5172.1457-.638.5199-1.2018,1.0529-1.5866.6101-.3581,1.3137-.528,2.0213-.4882.6188.0171,1.2354.0809,1.8445.1907.5327.082,1.0315-.2802,1.1141-.8089.0826-.5287-.2823-1.0238-.815-1.1058-.0991-.0153-.2-.0153-.2991,0-.8416.1497-1.6604.4061-2.4363.7628-1.3012.5827-2.4464,1.4606-3.3432,2.563-.8251.88-1.3238,2.0126-1.4141,3.2114h-2.9205v.4043h2.8667v9.9163c.0667.7303-.1175,1.4615-.5226,2.0748-.4011.4323-.948.7037-1.5371.7628v.3814h7.1014v-.3814c-.5963-.0364-1.1803-.1839-1.7216-.4348-.4036-.2249-.714-.5843-.8761-1.0145-.2026-.6254-.2936-1.281-.269-1.9375v-9.3671h3.6045c1.1119-.0195,2.0292.8594,2.0488,1.9629.001.0577-.0005.1153-.0045.1729v7.2465c-.0539,1.0841.3371,2.1436,1.0837,2.9368.7637.7499,1.8089,1.1482,2.8821,1.0984,1.0291-.0131,2.0394-.2749,2.9436-.7628.9703-.4998,1.8198-1.2025,2.4901-2.0595v2.7079h4.1194v-.3814c-.6373-.0771-1.2109-.4214-1.5755-.9459Z"></path><path class="cls-2" d="M83.4339,31.9687c-.1482.0418-.3052.0418-.4534,0-1.7446-.5034-12.781-4.0199-12.781-12.9675V.4272c0-.2359.1927-.4272.4304-.4272h1.1836c3.8966,0,7.086,2.7766,8.0852,8.139.8608,4.6836,4.7804,7.8797,9.9374,6.377,3.6814-1.0679,5.8871.1297,6.5096.5492.1149.0798.1813.2118.1768.3509v3.5546c0,8.9933-11.3208,12.5022-13.0884,12.998Z"></path><ellipse class="cls-2" cx="88.1989" cy="5.8354" rx="5.8794" ry="5.8354"></ellipse></g></g></g></svg> 