<svg xmlns="http://www.w3.org/2000/svg" viewBox="0 0 998.08 38"><defs fill="#000000fff"><style>.cls-1{fill:#000000;}</style></defs><title>Asset 11000</title><g id="Layer_2" data-name="Layer 2"><g id="Layer_1-2" data-name="Layer 1"><path class="cls-1" d="M27.71,31.65H10.27L7.05,38H0L19,.05,37.94,38h-7ZM13.4,25.36H24.54L19,14.21Z" fill="#000000fff"/><path class="cls-1" d="M62,25.36V38H55.72V.05h19A12.16,12.16,0,0,1,83.6,3.77a12.24,12.24,0,0,1,3.72,9,12.36,12.36,0,0,1-3.72,9,12.28,12.28,0,0,1-8.92,3.66Zm0-19V19H74.69a6.08,6.08,0,0,0,4.43-1.86A6.06,6.06,0,0,0,81,12.74a6.12,6.12,0,0,0-1.86-4.48A6,6,0,0,0,74.69,6.4Z" fill="#000000fff"/><path class="cls-1" d="M136.88,22.19a15.28,15.28,0,0,1-4.65,11.21,15.77,15.77,0,0,1-26.95-11.21V.05h6.29V22.19A9.42,9.42,0,0,0,121,31.65a9,9,0,0,0,6.67-2.79,9,9,0,0,0,2.85-6.67V.05h6.34Z" fill="#000000fff"/><path class="cls-1" d="M181.14,38l-7.33-12.63H163.1V38h-6.29V.05h19a12.14,12.14,0,0,1,8.91,3.72,12.16,12.16,0,0,1,3.72,8.91,12.26,12.26,0,0,1-2.25,7.17,12.18,12.18,0,0,1-5.58,4.53L188.42,38ZM175.78,6.4H163.1V19l12.68.05a6.07,6.07,0,0,0,4.43-1.86,6.12,6.12,0,0,0,1.86-4.49,6,6,0,0,0-1.86-4.42A6,6,0,0,0,175.78,6.4Z" fill="#000000fff"/><path class="cls-1" d="M211.26.05l11.92,23.78L235.1.05h7.05L223.18,38,204.21.05Z" fill="#000000fff"/><path class="cls-1" d="M281,31.65H263.59L260.37,38h-7.05l19-37.94,19,37.94H284.2Zm-14.32-6.29h11.15l-5.57-11.15Z" fill="#000000fff"/><path class="cls-1" d="M358.89,31.65H341.45L338.23,38h-7.05l19-37.94,19,37.94h-7Zm-14.31-6.29h11.15l-5.58-11.15Z" fill="#000000fff"/><path class="cls-1" d="M393.18,15.31V38h-6.29V.05l19,19,19-19V38H418.5V15.31L405.86,28Z" fill="#000000fff"/><path class="cls-1" d="M445,.05h6.28V38H445Z" fill="#000000fff"/><path class="cls-1" d="M471.35,0,496.6,22.74V0h6.34V38L477.64,15.25V37.94h-6.29Z" fill="#000000fff"/><path class="cls-1" d="M570.59,31.65H553.15L549.92,38h-7.05l19-37.94,19,37.94h-7.05Zm-14.32-6.29h11.15l-5.57-11.15Z" fill="#000000fff"/><path class="cls-1" d="M622.92,38l-7.34-12.63h-10.7V38h-6.29V.05h19a12.13,12.13,0,0,1,8.91,3.72,12.15,12.15,0,0,1,3.72,8.91,12.31,12.31,0,0,1-2.24,7.17,12.24,12.24,0,0,1-5.58,4.53L630.19,38ZM617.56,6.4H604.88V19l12.68.05A6,6,0,0,0,622,17.17a6.12,6.12,0,0,0,1.86-4.49A6,6,0,0,0,622,8.26,6,6,0,0,0,617.56,6.4Z" fill="#000000fff"/><path class="cls-1" d="M666.82.05a18.41,18.41,0,0,1,7.35,1.48,19.34,19.34,0,0,1,6,4.1l-4.49,4.49a12.14,12.14,0,0,0-8.91-3.72,12.3,12.3,0,0,0-4.92,1,12.46,12.46,0,0,0-4,2.71,13,13,0,0,0-2.73,4,12.48,12.48,0,0,0,0,9.84,13.33,13.33,0,0,0,2.71,4,12.42,12.42,0,0,0,4,2.71,12.57,12.57,0,0,0,5,1A12.38,12.38,0,0,0,675.73,28l4.49,4.43a19.42,19.42,0,0,1-6,4.11,19,19,0,0,1-14.73,0,19.83,19.83,0,0,1-6-4.08,19.12,19.12,0,0,1-4.1-6,18.22,18.22,0,0,1-1.5-7.38,18.19,18.19,0,0,1,1.5-7.3A19.39,19.39,0,0,1,659.43,1.56,18.27,18.27,0,0,1,666.82.05Z" fill="#000000fff"/><path class="cls-1" d="M698.52.05h6.28v15.8h19V.05h6.34V38h-6.34V22.19h-19V38h-6.28Z" fill="#000000fff"/><path class="cls-1" d="M750.21.05h6.29V38h-6.29Z" fill="#000000fff"/><path class="cls-1" d="M774.28.05h31.65V6.4H793.31V38H787V6.4H774.28Z" fill="#000000fff"/><path class="cls-1" d="M849,.05V6.4H830v9.51h19v6.29H830v9.46h19V38H823.73V.05Z" fill="#000000fff"/><path class="cls-1" d="M886.14.05a18.4,18.4,0,0,1,7.35,1.48,19.32,19.32,0,0,1,6,4.1l-4.49,4.49a12.14,12.14,0,0,0-8.91-3.72,12.29,12.29,0,0,0-4.92,1,12.49,12.49,0,0,0-4,2.71,13,13,0,0,0-2.73,4,12.42,12.42,0,0,0,0,9.84,13.17,13.17,0,0,0,2.71,4,12.35,12.35,0,0,0,4,2.71,12.57,12.57,0,0,0,4.95,1A12.38,12.38,0,0,0,895.05,28l4.49,4.43a19.4,19.4,0,0,1-6,4.11,19,19,0,0,1-14.74,0,19.69,19.69,0,0,1-6-4.08,19.2,19.2,0,0,1-4.1-6,18.65,18.65,0,0,1,0-14.68A19.38,19.38,0,0,1,878.76,1.56,18.3,18.3,0,0,1,886.14.05Z" fill="#000000fff"/><path class="cls-1" d="M917.34.05H949V6.4H936.37V38H930V6.4H917.34Z" fill="#000000fff"/><path class="cls-1" d="M977.52,22.19A10.65,10.65,0,0,1,969.7,19a10.71,10.71,0,0,1-3.22-7.87,10.6,10.6,0,0,1,3.22-7.77A10.46,10.46,0,0,1,977.52.05h20.56V6.4H977.52a4.82,4.82,0,0,0-1.86.35,4.57,4.57,0,0,0-1.53,1,4.49,4.49,0,0,0-1,1.53,4.8,4.8,0,0,0-.35,1.8,4.73,4.73,0,0,0,1.36,3.39,4.52,4.52,0,0,0,3.39,1.42H987a11.11,11.11,0,0,1,11.1,11,10.71,10.71,0,0,1-3.28,7.82A10.66,10.66,0,0,1,987,38h-20.5V31.65H987a4.91,4.91,0,0,0,3.39-1.34,4.31,4.31,0,0,0,1-1.51,4.84,4.84,0,0,0,.36-1.86,4.56,4.56,0,0,0-1.43-3.33A4.45,4.45,0,0,0,987,22.19Z" fill="#000000fff"/></g></g></svg>