<svg xmlns="http://www.w3.org/2000/svg" xmlns:xlink="http://www.w3.org/1999/xlink" width="80" height="77.188" viewBox="0 0 80 77.188">
  <defs>
    <linearGradient id="linear-gradient" x1="0.5" y1="0.007" x2="0.5" y2="1.001" gradientUnits="objectBoundingBox">
      <stop offset="0.001" stop-color="#0084a7"/>
      <stop offset="1" stop-color="#004563"/>
    </linearGradient>
  </defs>
  <g id="Untitled-1" transform="translate(-347.9 -353)">
    <path id="Logo" d="M403.958,400.937H401.8V382.566h2.6l.158.21,9.251,13.43V382.54h2.654v18.371h-2.6l-.158-.21-9.251-13.43v13.666Zm-19.737-2.26a8.789,8.789,0,0,0,12.536,0,11.164,11.164,0,0,0,0-13.876,8.105,8.105,0,0,0-6.255-2.628,8.2,8.2,0,0,0-6.281,2.628,11.164,11.164,0,0,0,0,13.876m6.281-14.06a5.371,5.371,0,0,1,4.31,1.866,8.2,8.2,0,0,1,1.708,5.256,8.052,8.052,0,0,1-1.708,5.256,5.941,5.941,0,0,1-8.647,0,8.941,8.941,0,0,1,0-10.513A5.427,5.427,0,0,1,390.5,384.616Zm-11.353,16.321V382.566h-2.654v18.371h2.654Zm-19.711-2.26-.105.315v1.971h14.534v-2.418H362.723l10.8-13.692.105-.315v-1.971H360.121v2.418h10.118Zm57.03,31.459v-11.8l-43.574.053,11.275-13.351H369.03L347.9,430.188c20.788-.105,47.569-.026,68.357-.026h.21Zm-57.135-77.109v11.8l43.574-.026-11.275,13.351H406.77L427.9,353c-20.788.105-47.569.026-68.357.026Z" transform="translate(0 0)" fill-rule="evenodd" fill="url(#linear-gradient)"/>
  </g>
</svg>
