<?xml version="1.0" encoding="utf-8"?>
<!-- Generator: Adobe Illustrator 24.3.0, SVG Export Plug-In . SVG Version: 6.00 Build 0)  -->
<svg version="1.0" id="katman_1" xmlns="http://www.w3.org/2000/svg" xmlns:xlink="http://www.w3.org/1999/xlink" x="0px" y="0px"
	 viewBox="0 0 841.89 595.28" style="enable-background:new 0 0 841.89 595.28;" xml:space="preserve">
<style type="text/css">
	.st0{fill:#1D1D1B;}
</style>
<path id="caesarspalace-stacked-lv-logo-3" class="st0" d="M456.78,211.15L456.78,211.15l-32.17-31.89l16.5-16.22l-17.06-17.06
	l-16.22,16.22l0,0l-17.9,17.9l31.89,32.17l-20.98,21.26l17.34,17.34l39.16-39.16L456.78,211.15z M778.44,211.15L778.44,211.15
	l-31.89-31.89l16.22-16.22l-17.06-17.06l-16.22,16.22l0,0l-17.9,17.9l32.17,32.17l-21.26,21.26l17.34,17.34L779,211.71
	L778.44,211.15z M132.04,233.52l-34.96-34.96l34.96-34.96l-16.78-16.78l-51.75,51.75l16.78,16.78l0,0l34.96,34.96L132.04,233.52z
	 M351.33,233.52l-25.73-25.45h24.05v-19.02h-24.05l25.45-25.45l-16.78-16.78l-51.75,51.75l16.78,16.78l0,0l35.24,34.96
	L351.33,233.52z M205.32,213.66l8.67-22.94l8.95,22.94H205.32z M237.49,249.75l22.94-9.23l-33.56-86.99h-25.17l-33.56,86.99
	l23.5,9.23l6.15-16.22h33.29L237.49,249.75z M519.71,213.66l8.67-22.94l8.95,22.94H519.71z M551.6,249.75l22.94-9.23l-33.56-86.99
	h-24.89l-33.56,86.99l23.5,9.23l6.15-16.22h33.29L551.6,249.75z M634.11,201.92l14.54-13.15l-14.54-13.15V201.92z M677.75,232.4
	l-20.14,17.62l-23.5-24.89v14.82l-25.17,10.07v-96.5h37.76l26.57,24.61v19.58l-14.27,14.27L677.75,232.4z M719.14,363.03h1.4v-3.08
	h1.12c0.56,0,1.12,0,1.68,0.28c0.56,0.28,0.84,0.84,0.84,1.96v0.56v0.28l0,0l0,0h1.4l0,0v-0.28v-1.12c0-0.56-0.28-0.84-0.56-1.12
	c-0.28-0.56-0.84-0.84-1.4-0.84c0.28,0,0.84-0.28,1.12-0.28c0.56-0.28,0.84-0.84,0.84-1.68s-0.56-1.68-1.12-1.96
	c-0.56-0.28-1.4-0.28-2.24-0.28h-2.8L719.14,363.03z M723.06,358.83c-0.56,0.28-0.84,0.28-1.4,0.28h-1.12v-2.8h1.12
	c0.56,0,1.12,0,1.68,0.28c0.28,0.28,0.56,0.84,0.56,1.12C723.9,358.27,723.62,358.55,723.06,358.83 M726.97,354.08
	c-2.8-2.8-7.27-2.8-10.07,0c-2.8,2.8-2.8,7.27,0,10.07c1.4,1.4,3.08,2.24,5.03,2.24c3.92,0,7.27-3.36,7.27-7.27
	C729.21,357.15,728.37,355.48,726.97,354.08 M726.41,354.92c2.52,2.52,2.52,6.43,0,8.67l0,0c-1.12,1.12-2.8,1.96-4.48,1.68
	c-1.68,0-3.36-0.56-4.48-1.68s-1.68-2.8-1.68-4.48c0-3.36,2.8-6.15,6.15-6.15C723.62,352.96,725.02,353.52,726.41,354.92
	 M155.25,319.95l14.54-12.87l-14.54-13.15V319.95z M155.25,332.82v25.73l-25.17,9.23v-96.22h40l26.29,24.89v19.86l-29.65,27.41
	L155.25,332.82z M411.18,341.77h-41.68v-69.93h-25.17v69.93v21.54v0.28h25.17v-0.28h41.68V341.77z M255.11,331.98l8.67-23.22
	l8.95,23.22H255.11z M287.27,368.06l22.94-9.23l-33.56-86.99h-25.17l-33.56,86.99l23.5,9.23l6.15-16.22h33.29L287.27,368.06z
	 M711.87,351.84l-25.73-25.73h24.05v-18.74h-24.05l25.45-25.45l-16.78-16.78l-51.75,51.75l16.78,16.78l0,0l35.24,34.96
	L711.87,351.84z M619.29,351.84l-34.96-34.96l34.96-34.96l-16.78-16.78l-51.75,51.75l16.78,16.78l0,0l34.96,34.96L619.29,351.84z
	 M155.25,319.95l14.54-12.87l-14.54-13.15V319.95z M155.25,332.82v25.73l-25.17,9.23v-96.22h40l26.29,24.89v19.86l-29.65,27.41
	L155.25,332.82z M475.24,331.98l8.67-22.94l8.95,22.94H475.24z M507.4,368.06l22.94-9.23l-33.57-86.99H471.6l-33.56,86.99l23.5,9.23
	l6.15-16.22h33.29L507.4,368.06z M198.61,447.22v-1.68c0.84-0.28,1.68-0.84,2.52-1.4c0.28-0.28,0.56-0.28,0.84-0.56
	c0,0,0.28-0.28,0-0.28c0.28-1.96,0.28-3.92,0.28-5.87c0-3.36,0-7.55,0-12.31c0-6.99,0-11.19,0-12.87c0-2.52,0-4.76-0.56-7.27
	c0-0.28-0.28-0.56-0.56-0.56c-1.68-0.56-3.36-0.84-5.03-0.56v-2.8c2.8,0.28,6.15,0.28,9.51,0.28c3.92,0,7.83,0,11.47-0.28v2.8
	c-1.68,0-3.08,0.28-4.48,0.56c-0.28,0.28-0.56,0.28-0.56,0.56c-0.28,1.4-0.28,2.8-0.28,4.2c0,2.52-0.28,5.59-0.28,9.23
	c0,0.28,0,3.64,0,9.51c0,3.08,0,6.15,0,9.51c0,3.36,0,5.03,0,5.59c3.08,0.28,5.03,0.28,6.15,0.28c2.8,0,5.87-0.28,8.67-0.56
	c0.56,0,1.12-0.28,1.68-0.28c0.28-0.28,0.56-0.84,0.56-1.12c0.56-1.68,0.84-3.64,1.4-5.87h2.8c0,0.56,0,1.12,0,1.12l-0.84,6.71
	c-0.28,2.24-0.28,3.36-0.28,3.92c-0.56,0.28-1.4,0.28-1.96,0.28c-1.4,0.28-3.36,0.28-6.15,0.28h-7.55c-3.64,0-6.15,0-7.55,0
	C206.44,446.94,203.08,446.94,198.61,447.22z M244.76,447.22v-2.8c1.12,0,2.24-0.28,3.36-0.28c0.28,0,0.56-0.28,0.84-0.56
	c0.28-0.28,0.56-0.56,0.84-1.12c0.28-0.56,1.12-2.24,2.24-5.03c0.56-1.4,1.68-3.92,3.36-8.11l8.67-21.26l2.8-7.55h4.76l14.82,34.68
	l1.96,4.48l1.4,3.08c0.28,0.28,0.28,0.56,0.56,0.84c0.28,0.28,0.28,0.28,0.56,0.28c0.56,0.28,1.4,0.28,1.96,0.28l1.4,0.28v2.8
	l-9.23-0.28h-11.75v-2.8c1.4,0,3.08,0,4.48-0.56c0.28-0.28,0.56-0.56,0.56-0.84c0-0.84-0.28-1.96-0.84-2.8l-2.8-7.27h-17.06
	l-1.4,3.92c-0.84,1.68-1.4,3.64-1.68,5.59c0,0.56,0.28,0.84,0.56,1.12c1.68,0.56,3.08,0.56,4.76,0.56v2.8h-7.55L244.76,447.22z
	 M259.3,429.04c1.96,0,4.48,0.28,6.99,0.28c2.52,0,5.03,0,6.99-0.28l-6.99-17.06L259.3,429.04z M337.62,412.82h-2.8
	c0-1.68,0-3.64-0.28-5.31c-0.84-1.12-2.24-1.96-3.64-2.52c-1.68-0.84-3.64-1.12-5.59-1.12c-2.52-0.28-5.03,0.56-6.99,2.24
	c-1.68,1.4-2.52,3.36-2.52,5.31c0,1.12,0.28,2.52,0.84,3.64c0.56,0.84,1.12,1.68,1.96,2.24c1.12,0.56,2.52,1.12,3.92,1.4
	c1.4,0.28,3.08,0.56,5.31,1.12c2.24,0.28,3.64,0.56,4.48,0.84c1.4,0.28,3.08,0.84,4.48,1.68c1.12,0.56,1.96,1.4,2.8,2.24
	c0.84,0.84,1.12,1.96,1.68,3.08c0.56,1.4,0.56,2.8,0.56,4.48c0,2.52-0.56,5.03-1.68,7.55c-0.84,1.68-2.24,3.08-3.64,4.48
	c-1.4,1.12-3.08,2.24-4.76,3.08c-3.08,1.12-6.43,1.68-9.51,1.68c-2.52,0-4.76-0.28-7.27-0.84c-2.52-0.56-4.76-1.4-6.99-2.52
	c0.84-3.92,1.12-7.55,1.12-11.47h2.8c0,1.96,0,3.92,0.28,5.87c1.12,1.68,2.52,2.8,4.2,3.64c1.96,1.12,4.48,1.68,6.71,1.68
	c1.96,0,3.92-0.28,5.59-1.12c1.4-0.56,2.8-1.68,3.64-3.08c0.84-1.4,1.12-2.8,1.12-4.48c0-1.12-0.28-2.52-0.84-3.64
	c-0.56-1.12-1.4-1.96-2.52-2.52c-1.96-0.84-3.92-1.4-5.87-1.96c-3.92-0.84-6.71-1.4-7.83-1.96c-1.68-0.56-3.36-1.4-4.48-2.52
	s-1.96-2.52-2.52-3.92c-0.56-1.68-0.84-3.36-0.84-5.03c0-2.24,0.56-4.76,1.68-6.71c0.84-1.96,2.24-3.64,4.2-4.76
	c1.68-1.12,3.64-1.96,5.87-2.52c2.24-0.56,4.48-0.84,6.71-0.84c2.24,0,4.48,0.28,6.71,0.56c1.96,0.28,3.92,0.84,5.59,1.68l0.28,0.84
	c-0.28,1.4-0.56,2.8-0.56,4.2C337.62,408.62,337.62,410.58,337.62,412.82z M401.39,447.22c-1.96-4.76-3.64-8.95-5.31-13.15
	l-4.76-11.19c-3.64-8.95-5.87-13.99-6.71-15.66c-0.56-1.12-1.12-1.96-1.96-2.8c-1.4-0.56-2.8-0.56-4.2-0.56v-2.8
	c5.31,0.28,8.39,0.28,9.79,0.28l12.03-0.28v2.8c-1.4,0-2.8,0-3.92,0.28c-0.28,0-0.84,0.28-1.12,0.56c-0.28,0.28-0.28,0.56-0.28,0.84
	c0.56,2.24,1.12,4.2,2.24,6.15c0.84,1.96,1.4,3.08,1.4,3.36c0,0.28,0,0.28,0.28,0.56l8.39,20.42l7.27-18.18
	c0.28-0.28,0.84-2.52,2.24-6.15c0.84-2.52,1.68-4.48,1.96-5.31c0-0.28,0-0.56,0-0.84c0-0.28,0-0.56-0.28-0.84
	c0-0.28-0.28-0.28-0.56-0.28c-0.28,0-0.84-0.28-1.12-0.28c-1.4,0-2.8-0.28-3.64-0.28v-2.8l8.39,0.28l7.27-0.28v2.8
	c-1.4,0-2.52,0.28-3.64,0.56c-1.68,2.24-2.8,4.76-3.64,7.55l-2.24,5.59l-4.48,10.63c-3.64,9.23-6.43,15.66-7.83,19.3L401.39,447.22z
	 M442.23,447.22v-1.68c1.12-0.56,2.24-1.12,3.08-1.96c0.28-0.84,0.28-2.52,0.28-4.48c0.28-3.92,0.28-6.71,0.28-8.39v-14.82
	c0-0.56,0-2.8,0-6.43c0-1.68,0-3.08-0.56-4.48c0-0.28-0.28-0.28-0.56-0.56c-1.68-0.56-3.08-0.56-4.76-0.56v-2.52h12.03
	c3.08,0,6.43,0,10.07,0l6.71-0.28l4.76,0.28c0.28,0,0.84,0,1.12,0.28l0.28,0.56l-0.56,4.76c0,0.28,0,1.96-0.28,4.76h-2.24
	c0-1.68,0-3.08-0.28-4.76c0-0.28-0.28-0.56-0.28-0.56c-0.84-0.28-1.68-0.56-2.52-0.56c-2.24-0.28-4.2-0.28-6.43-0.28
	c-1.96,0-3.92,0-6.15,0.28c-0.28,3.08-0.56,6.43-0.56,9.51v6.71c1.68,0.28,3.08,0.28,4.76,0.28l5.59-0.28c0.84,0,1.4,0,2.24-0.28
	c0.28-0.28,0.28-0.56,0.56-0.56c0.28-1.4,0.56-2.8,0.56-4.2h2.8l-0.28,7.27l0.28,7.27h-2.8c0.28-1.68,0-3.36-0.56-4.76
	c-0.28-0.56-0.84-0.84-1.4-0.84c-1.96-0.28-3.92-0.28-5.87-0.28c-1.68,0-3.64,0-5.31,0.28v13.99c0,1.68,0,2.8,0.28,3.92
	c1.68,0.28,3.92,0.28,6.43,0.28c2.52,0,4.48,0,6.71-0.28c1.4,0,2.52-0.28,3.64-0.56c0.28-0.28,0.28-0.28,0.56-0.56
	c0.56-1.96,1.12-3.92,1.12-6.15h2.8c-0.56,3.64-0.56,7.27-0.84,10.91l-0.56,0.56c-1.96,0.28-3.92,0.28-6.15,0.28l-5.31-0.28
	c-5.31,0-8.95,0-10.91,0C452.86,446.94,448.94,446.94,442.23,447.22z M534.81,414.21h-2.52c0-0.56,0-1.68-0.28-3.08
	c0-0.84-0.28-1.68-0.28-2.52c-0.56-0.56-1.12-1.12-1.68-1.68c-1.4-1.12-3.08-1.68-5.03-2.24c-1.96-0.56-4.2-0.84-6.43-0.84
	c-5.03-0.28-9.79,1.68-13.15,5.03c-3.36,3.92-5.31,8.95-5.03,14.27c-0.28,5.59,1.68,11.19,5.31,15.66
	c3.36,3.64,7.83,5.87,12.87,5.87c1.4,0,2.8-0.28,4.48-0.56c1.4-0.28,2.8-0.84,4.2-1.4c0-0.56,0-1.68,0-3.36s0-2.8,0-3.08
	c0-1.4,0-2.52-0.28-3.92c-0.28-0.28-0.56-0.56-0.84-0.56c-1.96-0.28-4.2-0.56-6.15-0.56v-2.52h10.07h10.07V431
	c-0.84,0-1.96,0.56-2.52,1.12c-0.28,0.56-0.56,1.12-0.28,1.68c0,2.52-0.28,4.48-0.28,5.31c0,1.68,0,3.36,0.28,5.31
	c-3.64,1.4-6.99,2.52-10.91,3.08c-3.08,0.56-6.15,0.84-9.23,0.84c-4.48,0-8.95-0.84-13.15-2.52c-2.52-1.12-4.76-2.8-6.71-4.48
	c-1.68-1.68-3.36-3.92-4.48-6.15c-1.68-3.64-2.52-7.27-2.52-11.19c0-3.08,0.56-6.15,1.68-8.95c1.12-2.52,2.52-4.76,4.2-6.71
	c1.68-1.96,3.92-3.64,6.15-4.76c2.24-1.12,4.76-1.96,7.27-2.52c2.8-0.56,5.59-0.84,8.39-0.84c3.64,0,6.99,0.28,10.63,1.12
	c2.52,0.56,5.03,1.4,7.55,2.24l0.28,0.56C535.65,407.22,535.09,410.58,534.81,414.21z M551.6,447.22v-2.8
	c1.12,0,2.24-0.28,3.08-0.28c0.28,0,0.56-0.28,0.84-0.56c0.28-0.28,0.56-0.56,0.84-1.12c0.28-0.56,1.12-2.24,2.24-5.03
	c0.56-1.4,1.68-3.92,3.36-8.11l8.67-21.26l3.08-7.55h4.76l14.82,34.68l1.96,4.48l1.4,3.08c0.28,0.28,0.28,0.56,0.56,0.84
	c0.28,0.28,0.28,0.28,0.56,0.28c0.56,0.28,1.4,0.28,1.96,0.28l1.4,0.28v2.8l-9.23-0.28l-11.75,0.28v-2.8c1.4,0,3.08,0,4.48-0.56
	c0.28-0.28,0.56-0.56,0.56-0.84c0-0.84-0.28-1.96-0.84-2.8l-2.8-7.27h-17.06l-1.4,3.92c-0.84,1.68-1.4,3.64-1.68,5.59
	c0,0.56,0.28,0.84,0.56,1.12c1.4,0.56,3.08,0.56,4.76,0.56v2.8l-7.55-0.28L551.6,447.22z M566.14,429.04c1.96,0,4.48,0.28,6.99,0.28
	s4.76,0,6.71-0.28l-6.99-17.06L566.14,429.04z M644.46,412.82h-2.8c0-1.68,0-3.64-0.28-5.31c-0.84-1.12-2.24-1.96-3.64-2.52
	c-1.68-0.84-3.64-1.12-5.59-1.12c-2.52-0.28-5.03,0.56-6.99,2.24c-1.68,1.4-2.52,3.36-2.52,5.31c0,1.12,0.28,2.52,0.84,3.64
	c0.56,0.84,1.12,1.68,1.96,2.24c1.12,0.56,2.52,1.12,3.92,1.4c1.4,0.28,3.08,0.56,5.31,1.12c2.24,0.56,3.92,0.56,4.48,0.84
	c1.4,0.28,3.08,0.84,4.48,1.68c1.12,0.56,1.96,1.4,2.52,2.24c0.84,0.84,1.4,1.96,1.68,3.08c0.56,1.4,0.56,2.8,0.56,4.48
	c0,2.52-0.56,5.03-1.68,7.55c-0.84,1.68-2.24,3.08-3.64,4.48c-1.4,1.12-3.08,2.24-4.76,3.08c-3.08,1.12-6.15,1.68-9.51,1.68
	c-2.52,0-4.75-0.28-7.27-0.84c-2.52-0.56-4.76-1.4-6.99-2.52c0.84-3.92,1.12-7.55,1.12-11.47h2.8c0,1.96,0,3.92,0.28,5.87
	c1.12,1.68,2.52,2.8,4.48,3.64c1.96,1.12,4.48,1.68,6.71,1.68c1.96,0,3.92-0.28,5.59-1.12c1.4-0.56,2.8-1.68,3.64-3.08
	c0.84-1.4,1.12-3.08,1.12-4.48c0-1.12-0.28-2.52-0.84-3.64c-0.56-1.12-1.4-1.96-2.52-2.52c-1.96-0.84-3.92-1.4-5.87-1.96
	c-3.92-0.84-6.71-1.4-7.83-1.96c-1.68-0.56-3.36-1.4-4.48-2.52c-1.12-1.12-1.96-2.52-2.52-3.92c-0.56-1.68-0.84-3.36-0.84-5.03
	c0-2.24,0.56-4.76,1.68-6.71c0.84-1.96,2.24-3.64,4.2-4.76c1.68-1.12,3.64-1.96,5.87-2.52s4.48-0.84,6.71-0.84s4.48,0.28,6.71,0.56
	c1.96,0.28,3.92,0.84,5.59,1.68l0.28,0.84c-0.28,1.4-0.56,2.8-0.56,4.2C644.46,408.62,644.46,410.58,644.46,412.82z"/>
</svg>
