<?xml version="1.0" encoding="UTF-8" standalone="no"?>
<!-- Created with Inkscape (http://www.inkscape.org/) -->

<svg
   xmlns:dc="http://purl.org/dc/elements/1.1/"
   xmlns:cc="http://creativecommons.org/ns#"
   xmlns:rdf="http://www.w3.org/1999/02/22-rdf-syntax-ns#"
   xmlns:svg="http://www.w3.org/2000/svg"
   xmlns="http://www.w3.org/2000/svg"
   xmlns:xlink="http://www.w3.org/1999/xlink"
   xmlns:sodipodi="http://sodipodi.sourceforge.net/DTD/sodipodi-0.dtd"
   xmlns:inkscape="http://www.inkscape.org/namespaces/inkscape"
   width="376.96762"
   height="83.12104"
   id="svg28615"
   version="1.1"
   inkscape:version="0.48.0 r9654"
   sodipodi:docname="cashamer.svg">
  <defs
     id="defs28617">
    <linearGradient
       id="linearGradient29208">
      <stop
         id="stop29216"
         offset="0"
         style="stop-color:#184972;stop-opacity:0.96396399;" />
      <stop
         style="stop-color:#184972;stop-opacity:0.8108108;"
         offset="0.5"
         id="stop29218" />
      <stop
         style="stop-color:#184972;stop-opacity:0.48648649;"
         offset="1"
         id="stop29212" />
    </linearGradient>
    <linearGradient
       id="linearGradient29190">
      <stop
         style="stop-color:#070a8d;stop-opacity:1;"
         offset="0"
         id="stop29202" />
      <stop
         id="stop29206"
         offset="0.25"
         style="stop-color:#101e9c;stop-opacity:0.54117647;" />
      <stop
         id="stop29204"
         offset="0.5"
         style="stop-color:#14198b;stop-opacity:0.58431373;" />
      <stop
         style="stop-color:#1b0f69;stop-opacity:0.61458331;"
         offset="1"
         id="stop29194" />
    </linearGradient>
    <radialGradient
       inkscape:collect="always"
       xlink:href="#linearGradient27655"
       id="radialGradient27661"
       cx="354.28571"
       cy="330.93362"
       fx="354.28571"
       fy="330.93362"
       r="174.28572"
       gradientTransform="matrix(0.18528195,0,0,0.90042666,265.59492,-647.509)"
       gradientUnits="userSpaceOnUse" />
    <linearGradient
       inkscape:collect="always"
       id="linearGradient27655">
      <stop
         style="stop-color:#000000;stop-opacity:1;"
         offset="0"
         id="stop27657" />
      <stop
         style="stop-color:#000000;stop-opacity:0;"
         offset="1"
         id="stop27659" />
    </linearGradient>
    <radialGradient
       r="174.28572"
       fy="330.93362"
       fx="354.28571"
       cy="330.93362"
       cx="354.28571"
       gradientTransform="matrix(0.22249277,0,0,1.0805112,580.77908,-660.56165)"
       gradientUnits="userSpaceOnUse"
       id="radialGradient28613"
       xlink:href="#linearGradient27655"
       inkscape:collect="always" />
    <linearGradient
       inkscape:collect="always"
       xlink:href="#linearGradient29208"
       id="linearGradient29214"
       x1="633.79352"
       y1="-271.54962"
       x2="698.3775"
       y2="-271.54962"
       gradientUnits="userSpaceOnUse"
       gradientTransform="matrix(1.2008334,0,0,1.1999991,-140.25273,22.875001)" />
  </defs>
  <sodipodi:namedview
     id="base"
     pagecolor="#ffffff"
     bordercolor="#666666"
     borderopacity="1.0"
     inkscape:pageopacity="0.0"
     inkscape:pageshadow="2"
     inkscape:zoom="1.979899"
     inkscape:cx="219.00699"
     inkscape:cy="30.821371"
     inkscape:document-units="px"
     inkscape:current-layer="layer1"
     showgrid="false"
     inkscape:window-width="1366"
     inkscape:window-height="706"
     inkscape:window-x="-8"
     inkscape:window-y="-8"
     inkscape:window-maximized="1"
     showborder="false"
     inkscape:showpageshadow="false"
     fit-margin-top="0"
     fit-margin-left="0"
     fit-margin-right="0"
     fit-margin-bottom="0" />
  <metadata
     id="metadata28620">
    <rdf:RDF>
      <cc:Work
         rdf:about="">
        <dc:format>image/svg+xml</dc:format>
        <dc:type
           rdf:resource="http://purl.org/dc/dcmitype/StillImage" />
        <dc:title></dc:title>
      </cc:Work>
    </rdf:RDF>
  </metadata>
  <g
     inkscape:label="Layer 1"
     inkscape:groupmode="layer"
     id="layer1"
     transform="translate(-114.37614,-615.31646)">
    <rect
       style="fill:url(#linearGradient29214);fill-opacity:1.0;fill-rule:nonzero;stroke:url(#radialGradient28613);stroke-width:0;stroke-miterlimit:4;stroke-opacity:0.12280704000000001;stroke-dasharray:none"
       id="rect25451"
       width="77.554626"
       height="376.63531"
       x="620.82776"
       y="-491.30194"
       ry="3.3953965"
       transform="matrix(0,1,-1,0,0,0)" />
    <path
       inkscape:connector-curvature="0"
       d="m 149.7192,660.47495 -13.6859,0 1.70099,-9.56274 c 0.498,-2.78132 0.66299,-4.51892 0.50699,-5.21274 -0.15911,-0.68478 -0.72299,-1.02566 -1.68898,-1.02566 -1.107,0 -1.88398,0.41931 -2.33699,1.26095 -0.44999,0.84166 -0.92698,2.66068 -1.42498,5.46012 l -4.56296,25.65952 c -0.47999,2.69085 -0.639,4.44352 -0.47999,5.26104 0.15597,0.82051 0.75598,1.22474 1.78797,1.22474 0.98999,0 1.70999,-0.40723 2.15999,-1.2338 0.44999,-0.82355 0.94798,-2.76324 1.48799,-5.81004 l 1.24497,-6.98955 13.68591,0 -0.384,2.15689 c -1.02,5.73462 -2.12698,9.79804 -3.32097,12.19627 -1.19699,2.39822 -3.26697,4.49781 -6.20995,6.3078 -2.95199,1.7979 -6.33896,2.7029 -10.16692,2.7029 -4.01397,0 -7.17594,-0.76019 -9.48594,-2.2866 -2.30698,-1.51738 -3.64496,-3.62902 -4.01696,-6.32288 -0.369,-2.69085 -0.072,-6.74522 0.89099,-12.15706 l 2.87098,-16.12696 c 0.705,-3.98196 1.36498,-6.9624 1.98599,-8.95337 0.61499,-1.98798 1.73098,-3.90958 3.34196,-5.7437 1.61399,-1.84316 3.64798,-3.29115 6.10795,-4.34998 2.45699,-1.05582 5.16298,-1.58674 8.12395,-1.58674 4.01396,0 7.17894,0.81749 9.50693,2.44345 2.32498,1.63503 3.68096,3.66222 4.07396,6.09965 0.393,2.43141 0.132,6.22032 -0.77998,11.35764 l -0.933,5.23085 z"
       style="fill:#ffffff;fill-opacity:1;fill-rule:nonzero;stroke:none"
       id="path24975" />
    <path
       inkscape:connector-curvature="0"
       d="m 164.79636,659.27977 c 0.45,-2.5189 0.83698,-4.07849 1.164,-4.67879 0.32401,-0.60334 0.92698,-0.89898 1.80898,-0.89898 0.78599,0 1.28099,0.35597 1.49099,1.07092 0.20712,0.71193 0.10488,2.25039 -0.31498,4.60639 -0.33601,1.87936 -0.70501,3.12825 -1.11599,3.73763 -0.411,0.61539 -2.92201,1.80695 -7.53597,3.57772 -4.31997,1.62597 -7.10094,3.05889 -8.33992,4.28665 -1.24201,1.22174 -2.16299,3.52645 -2.76299,6.9051 l -0.66,3.70442 c -0.80699,4.55814 -0.37499,7.51144 1.308,8.86288 1.68299,1.34543 3.67797,2.02117 5.97895,2.02117 1.75498,0 3.33297,-0.40726 4.74296,-1.21572 1.413,-0.81449 2.66698,-2.03624 3.75896,-3.65315 l -0.726,4.08453 12.69592,0 4.03798,-22.7002 c 1.32598,-7.4692 1.97399,-12.41047 1.94399,-14.80267 -0.036,-2.3952 -1.02899,-4.41636 -2.98798,-6.06343 -1.95599,-1.65011 -5.15096,-2.47666 -9.58193,-2.47666 -3.67797,0 -6.80396,0.73004 -9.38093,2.18405 -2.57699,1.45704 -4.42197,3.13729 -5.52896,5.03476 -1.104,1.90049 -1.97098,4.60039 -2.59198,8.10572 l -0.54,3.03474 12.29689,0 0.84001,-4.72708 z m 0.57899,20.16926 c -0.402,2.26246 -0.77398,3.65314 -1.10999,4.18104 -0.33599,0.53396 -0.92099,0.7964 -1.75499,0.7964 -0.879,0 -1.40398,-0.33785 -1.57199,-1.01359 -0.17111,-0.68177 -0.048,-2.17802 0.366,-4.50685 0.36299,-2.02719 0.80999,-3.58678 1.335,-4.66372 0.52799,-1.08599 1.98898,-2.43142 4.37697,-4.03025 l -1.641,9.23697 z"
       style="fill:#ffffff;fill-opacity:1;fill-rule:nonzero;stroke:none"
       id="path24979" />
    <path
       inkscape:connector-curvature="0"
       d="m 211.66402,660.96607 -11.60391,0 0.43799,-2.45855 c 0.37201,-2.08753 0.49201,-3.41485 0.36,-3.96992 -0.12887,-0.55806 -0.64799,-0.8356 -1.56898,-0.8356 -0.735,0 -1.329,0.25039 -1.78499,0.7632 -0.45901,0.51283 -0.77699,1.27605 -0.95999,2.29567 -0.246,1.38463 -0.333,2.39825 -0.26701,3.04683 0.0691,0.64555 0.492,1.35447 1.275,2.12068 0.77699,0.77529 2.47197,1.89445 5.07895,3.36958 3.43497,1.95177 5.59796,3.78891 6.48595,5.51441 0.885,1.71948 1.035,4.22633 0.45,7.51143 -0.654,3.6773 -1.59899,6.44958 -2.83796,8.31689 -1.239,1.87033 -3.01499,3.31226 -5.32798,4.32285 -2.31597,1.00754 -4.96495,1.51134 -7.94694,1.51134 -3.32696,0 -6.07795,-0.54301 -8.24693,-1.63504 -2.16898,-1.08902 -3.53398,-2.56414 -4.10097,-4.42238 -0.56399,-1.86428 -0.50698,-4.6788 0.16201,-8.45264 l 0.38699,-2.17497 11.60391,0 -0.507,2.84468 c -0.426,2.41633 -0.56099,3.98497 -0.393,4.70898 0.168,0.71795 0.675,1.08296 1.521,1.08296 0.93599,0 1.63198,-0.24435 2.08497,-0.73303 0.45,-0.49172 0.819,-1.51134 1.09799,-3.07697 0.381,-2.15389 0.381,-3.50231 -0.002,-4.05136 -0.40498,-0.53696 -2.64596,-2.15085 -6.71693,-4.82662 -3.44098,-2.26851 -5.40897,-4.32586 -5.91597,-6.17205 -0.50698,-1.84619 -0.53098,-4.04229 -0.0809,-6.58231 0.64199,-3.60486 1.56898,-6.26254 2.77497,-7.976 1.20899,-1.71042 2.98198,-3.03472 5.30997,-3.96083 2.33398,-0.93515 4.92896,-1.39972 7.79693,-1.39972 2.86198,0 5.22596,0.38311 7.08295,1.14632 1.85697,0.7632 3.20398,1.77378 4.04696,3.02571 0.843,1.25793 1.28399,2.41632 1.326,3.48722 0.0389,1.06788 -0.14713,2.74515 -0.552,5.02572 l -0.468,2.63352 z"
       style="fill:#ffffff;fill-opacity:1;fill-rule:nonzero;stroke:none"
       id="path24983" />
    <path
       inkscape:connector-curvature="0"
       d="m 233.64022,636.52224 -2.214,12.44363 c 1.314,-1.10708 2.66999,-1.93667 4.06497,-2.48571 1.39799,-0.55205 2.83798,-0.83258 4.31997,-0.83258 2.27698,0 4.10697,0.61843 5.48095,1.84315 1.38,1.22777 2.10299,2.63656 2.17199,4.24444 0.066,1.5988 -0.276,4.52494 -1.03198,8.77539 l -5.54697,31.17998 -13.08889,0 5.65496,-31.79235 c 0.46799,-2.63353 0.64499,-4.32888 0.53398,-5.074 -0.11088,-0.7451 -0.57899,-1.12219 -1.40098,-1.12219 -0.777,0 -1.37399,0.38614 -1.78799,1.15538 -0.41699,0.76926 -0.828,2.30471 -1.236,4.59735 l -5.73594,32.23581 -13.0889,0 9.81592,-55.1683 13.08891,0 z"
       style="fill:#ffffff;fill-opacity:1;fill-rule:nonzero;stroke:none"
       id="path24987" />
    <path
       inkscape:connector-curvature="0"
       d="m 264.83937,636.52224 -16.82987,55.1683 14.10888,0 2.51399,-9.91267 4.99196,0 -1.011,9.91267 13.81186,0 2.00102,-55.1683 -19.58684,0 z m 1.45799,35.43647 c 1.20296,-4.85681 3.43797,-12.58844 6.70194,-23.20097 -0.948,9.23998 -1.62898,16.97462 -2.04598,23.20097 l -4.65596,0 z"
       style="fill:#ffffff;fill-opacity:1;fill-rule:nonzero;stroke:none"
       id="path24991" />
    <path
       inkscape:connector-curvature="0"
       d="m 306.63143,646.43491 -0.97199,4.36206 c 1.31398,-1.71343 2.75697,-2.99853 4.32297,-3.85825 1.56299,-0.85976 3.23997,-1.29114 5.03696,-1.29114 3.48897,0 5.93994,1.71949 7.35295,5.14939 1.41298,-1.71343 2.88597,-2.99853 4.41895,-3.85825 1.533,-0.85976 3.14998,-1.29114 4.85697,-1.29114 2.22898,0 3.97496,0.57316 5.23496,1.70741 1.25998,1.13727 1.94997,2.52795 2.05497,4.17503 0.11088,1.64708 -0.1651,4.31985 -0.81898,8.02427 l -5.71795,32.13625 -12.69591,0 5.23796,-29.44239 c 0.68699,-3.8583 0.98999,-6.25349 0.90899,-7.16753 -0.0808,-0.92008 -0.588,-1.37862 -1.51797,-1.37862 -0.933,0 -1.61699,0.4525 -2.05801,1.36051 -0.43799,0.90802 -1.00498,3.30323 -1.69197,7.18564 l -5.24096,29.44239 -12.6959,0 5.10595,-28.69425 c 0.78599,-4.42845 1.16099,-7.08309 1.122,-7.96697 -0.0391,-0.88689 -0.534,-1.32732 -1.47899,-1.32732 -0.57601,0 -1.11599,0.2323 -1.617,0.69986 -0.501,0.46156 -0.83099,1.02867 -0.99898,1.69537 -0.16201,0.66968 -0.43799,2.09352 -0.825,4.27457 l -5.57095,31.31874 -12.6929,0 8.04593,-45.25563 12.8939,0 z"
       style="fill:#ffffff;fill-opacity:1;fill-rule:nonzero;stroke:none"
       id="path24995" />
    <path
       inkscape:connector-curvature="0"
       d="m 370.08964,663.89523 c 0.78,-4.38318 0.91199,-7.79199 0.39301,-10.21433 -0.51899,-2.41937 -1.84499,-4.3681 -3.95998,-5.83117 -2.12099,-1.46611 -5.01296,-2.20215 -8.67593,-2.20215 -3.00298,0 -5.76595,0.61238 -8.29494,1.82507 -2.52898,1.21569 -4.49996,2.96535 -5.90994,5.24593 -1.41899,2.27755 -2.47199,5.3998 -3.17999,9.34855 l -2.33997,13.17972 c -0.597,3.35751 -0.83099,5.91864 -0.69901,7.67434 0.13489,1.75869 0.66,3.37561 1.57801,4.83866 0.91798,1.46307 2.35797,2.61544 4.31696,3.45707 1.95898,0.83861 4.31996,1.25796 7.09194,1.25796 2.84097,0 5.27697,-0.42235 7.31994,-1.27001 2.03998,-0.84767 3.82197,-2.12071 5.34897,-3.82209 1.52699,-1.70137 2.59197,-3.2972 3.18596,-4.79041 0.59699,-1.49325 1.149,-3.63506 1.64099,-6.41942 l 0.594,-3.33036 -12.3959,0 -1.053,5.91261 c -0.39599,2.22929 -0.82799,3.72855 -1.29299,4.50383 -0.462,0.7783 -1.19398,1.16744 -2.18398,1.16744 -0.76499,0 -1.23899,-0.28961 -1.41899,-0.88086 -0.174,-0.58523 -0.0809,-1.89744 0.279,-3.92463 l 1.72799,-9.72565 16.86287,0 1.06498,-6.0001 z m -16.61686,-1.36352 0.59098,-3.29115 c 0.44701,-2.537 0.831,-4.0966 1.149,-4.67579 0.315,-0.57618 0.91799,-0.86277 1.80299,-0.86277 0.72298,0 1.13998,0.33485 1.25999,1.0166 0.11687,0.68175 -0.0331,2.18709 -0.447,4.52196 l -0.588,3.29115 -3.76796,0 z"
       style="fill:#ffffff;fill-opacity:1;fill-rule:nonzero;stroke:none"
       id="path24999" />
    <path
       inkscape:connector-curvature="0"
       d="m 395.77213,645.86177 c -3.04497,0.67571 -5.72096,2.85977 -8.02193,6.55816 l 1.55998,-5.98502 -13.08891,0 -8.05193,45.25563 13.09191,0 3.17697,-17.86453 c 0.77999,-4.38619 1.40999,-7.18867 1.88999,-8.40435 0.48299,-1.21572 1.34099,-2.16596 2.58597,-2.8447 1.245,-0.68175 3.05997,-1.02265 5.44496,-1.02265 l 1.19699,-6.74218 c -2.83797,2.02719 -5.08796,3.63505 -5.08796,3.63505 0,0 2.98799,-7.09514 5.30396,-12.58541"
       style="fill:#ffffff;fill-opacity:1;fill-rule:nonzero;stroke:none"
       id="path25007" />
    <path
       inkscape:connector-curvature="0"
       d="m 399.0361,652.32339 -7.13095,39.36715 13.48791,0 7.31993,-40.40485 c -2.73897,-2.2082 -5.19895,-4.18711 -5.74795,-4.63358 -0.66899,0.47665 -4.26598,3.04681 -7.92894,5.67128"
       style="fill:#ffffff;fill-opacity:1;fill-rule:nonzero;stroke:none"
       id="path25011" />
    <path
       inkscape:connector-curvature="0"
       d="m 430.31772,663.51814 12.2969,0 c 0.75299,-4.24441 0.936,-7.52048 0.54599,-9.83724 -0.38699,-2.31075 -1.65297,-4.22935 -3.79796,-5.7467 -2.14797,-1.52341 -4.92896,-2.28662 -8.33693,-2.28662 -3.41098,0 -6.44696,0.76925 -9.10793,2.3017 -0.98098,0.56411 -1.85099,1.15536 -2.61598,1.77379 1.09799,4.41334 2.14498,8.60948 2.14498,8.60948 0,0 -2.54698,-2.05132 -5.51096,-4.44654 -0.91498,1.91858 -1.67698,4.57926 -2.28596,7.976 l -2.28,12.83581 c -0.78599,4.40732 -0.94199,7.80705 -0.47699,10.20529 0.46498,2.39522 1.65898,4.25346 3.57297,5.5838 1.91999,1.32731 4.71596,1.98797 8.40593,1.98797 2.87998,0 5.39396,-0.48267 7.53594,-1.448 2.13598,-0.96532 3.98397,-2.39823 5.53797,-4.29268 1.55097,-1.90049 2.59796,-3.74969 3.14996,-5.55967 0.552,-1.80695 1.158,-4.51892 1.82399,-8.13585 l -11.60391,0 -0.94799,5.37261 c -0.42302,2.33187 -0.85499,3.92164 -1.314,4.76026 -0.462,0.83862 -1.13399,1.25492 -2.02498,1.25492 -0.75599,0 -1.25099,-0.40122 -1.49998,-1.20365 -0.246,-0.8024 -0.22488,-2.01208 0.06,-3.61693 l 3.77996,-21.25523 c 0.35101,-1.96687 0.70201,-3.23384 1.06801,-3.80097 0.36,-0.56413 0.92398,-0.84769 1.67697,-0.84769 0.753,0 1.206,0.3228 1.368,0.96231 0.15599,0.64556 0.078,1.86731 -0.243,3.67426 l -0.921,5.17957 z"
       style="fill:#ffffff;fill-opacity:1;fill-rule:nonzero;stroke:none"
       id="path25015" />
    <path
       inkscape:connector-curvature="0"
       d="m 413.00578,629.87176 15.91789,0.0121 -13.4969,8.89305 3.89697,15.63525 -12.18591,-9.82519 -13.49389,9.6472 6.47696,-15.38186 -11.77492,-8.82969 15.51588,-0.0121 5.90095,-14.69406 3.24297,14.55528 z"
       style="fill:#ed174c;fill-opacity:1;fill-rule:nonzero;stroke:none"
       id="path25019" />
    <path
       inkscape:connector-curvature="0"
       d="m 458.91402,659.27977 c 0.44999,-2.5189 0.837,-4.07849 1.161,-4.67879 0.327,-0.60334 0.92999,-0.89898 1.80899,-0.89898 0.78598,0 1.28398,0.35597 1.49398,1.07092 0.20688,0.71193 0.102,2.25039 -0.315,4.60639 -0.336,1.87936 -0.70799,3.12825 -1.11598,3.73763 -0.40801,0.61539 -2.92198,1.80695 -7.53894,3.57772 -4.31698,1.62597 -7.09495,3.05889 -8.33694,4.28665 -1.24199,1.22174 -2.163,3.52645 -2.76298,6.9051 l -0.657,3.70442 c -0.81599,4.55814 -0.381,7.51144 1.30499,8.86288 1.68299,1.34543 3.67497,2.02117 5.98195,2.02117 1.74599,0 3.32698,-0.40726 4.73997,-1.21572 1.40999,-0.81449 2.66698,-2.03624 3.76197,-3.65315 l -0.726,4.08453 12.69291,0 4.03496,-22.7002 c 1.33198,-7.4692 1.97698,-12.41047 1.94399,-14.80267 -0.0329,-2.3952 -1.02899,-4.41636 -2.98498,-6.06343 -1.95899,-1.65011 -5.15096,-2.47666 -9.58192,-2.47666 -3.67797,0 -6.80394,0.73004 -9.38094,2.18405 -2.57997,1.45704 -4.42197,3.13729 -5.53194,5.03476 -1.101,1.90049 -1.96798,4.60039 -2.59199,8.10572 l -0.53699,3.03474 12.2969,0 0.83999,-4.72708 z m 0.57601,20.16926 c -0.399,2.26246 -0.76801,3.65314 -1.107,4.18104 -0.336,0.53396 -0.92098,0.7964 -1.758,0.7964 -0.87599,0 -1.39798,-0.33785 -1.56897,-1.01359 -0.17112,-0.68177 -0.048,-2.17802 0.36899,-4.50685 0.36,-2.02719 0.80401,-3.58678 1.33199,-4.66372 0.52799,-1.08599 1.98598,-2.43142 4.37996,-4.03025 l -1.64697,9.23697 z"
       style="fill:#ffffff;fill-opacity:1;fill-rule:nonzero;stroke:none"
       id="path25003" />
    <path
       inkscape:connector-curvature="0"
       d="m 483.70892,645.94412 1.887,0 c 0.44998,0 0.74698,-0.0936 0.88498,-0.27449 0.11712,-0.154 0.174,-0.4676 0.174,-0.94723 0,-0.37708 -0.054,-0.62444 -0.16512,-0.73909 -0.13799,-0.14768 -0.43799,-0.22043 -0.89398,-0.22043 l -1.887,0 0,2.18102 z m 0,0.543 0,2.18102 -0.62098,0 0,-5.44805 2.50197,0 c 0.60601,0 1.03499,0.10551 1.28099,0.31977 0.26999,0.23521 0.405,0.6516 0.405,1.25493 0,0.44645 -0.0511,0.77225 -0.15288,0.97136 -0.13513,0.26546 -0.402,0.42533 -0.798,0.47361 0.588,0.0422 0.882,0.37104 0.882,0.98042 l 0,1.44796 -0.618,0 0,-1.15536 c 0,-0.36803 -0.06,-0.62444 -0.174,-0.76925 -0.13487,-0.16901 -0.381,-0.25641 -0.73798,-0.25641 l -1.968,0 z"
       style="opacity:0.98999999;fill:#ffffff;fill-opacity:1;stroke:#f2eb9f;stroke-width:0.76109898;stroke-linecap:butt;stroke-linejoin:miter;stroke-miterlimit:4;stroke-opacity:0.87301588;stroke-dasharray:none"
       id="path25035" />
    <path
       inkscape:connector-curvature="0"
       d="m 483.70863,645.94441 1.887,0 c 0.44999,0 0.74698,-0.0932 0.88499,-0.2745 0.11711,-0.15399 0.17399,-0.4676 0.17399,-0.94722 0,-0.37708 -0.054,-0.62444 -0.16512,-0.73909 -0.13799,-0.14767 -0.43799,-0.22018 -0.89398,-0.22018 l -1.887,0 0,2.18101 z m 0,0.543 0,2.18101 -0.62098,0 0,-5.44803 2.50198,0 c 0.606,0 1.03499,0.10563 1.28098,0.31977 0.27,0.2352 0.40501,0.65159 0.40501,1.25493 0,0.44645 -0.0511,0.77224 -0.15289,0.97133 -0.13513,0.26548 -0.402,0.42535 -0.798,0.47363 0.58801,0.0422 0.88201,0.37104 0.88201,0.98041 l 0,1.44796 -0.61801,0 0,-1.15535 c 0,-0.36802 -0.06,-0.62446 -0.17399,-0.76924 -0.13488,-0.16902 -0.381,-0.25642 -0.73799,-0.25642 l -1.968,0 z"
       style="fill:#ffffff;fill-opacity:1;fill-rule:nonzero;stroke:none"
       id="path25023" />
    <path
       inkscape:connector-curvature="0"
       d="m 490.50523,646.0161 c 0,3.03474 -2.43298,5.49329 -5.42996,5.49329 -2.99998,0 -5.42996,-2.45855 -5.42996,-5.49329 0,-3.03475 2.42998,-5.4933 5.42996,-5.4933 2.99698,0 5.42996,2.45855 5.42996,5.4933 z"
       style="fill:#ffffff;fill-opacity:0;stroke:#ffffff;stroke-width:1.01379585;stroke-linecap:butt;stroke-linejoin:miter;stroke-miterlimit:4;stroke-opacity:1;stroke-dasharray:none"
       id="path25039" />
  </g>
</svg>
