<svg xmlns="http://www.w3.org/2000/svg" height="800" width="1200" viewBox="-32.508 -38.0685 281.736 228.411"><linearGradient gradientUnits="userSpaceOnUse" y2="94.901" y1=".113" x2="150.96" x1="56.173" id="a"><stop offset="0" stop-color="#BED38B"/><stop offset="1" stop-color="#00813F"/></linearGradient><path fill="url(#a)" d="M149.84 0H56.28v95.013h94.564V0zm.002 94.009H57.285V1.004h92.557z"/><linearGradient gradientUnits="userSpaceOnUse" y2="93.898" y1="1.116" x2="149.96" x1="57.177" id="b"><stop offset="0" stop-color="#91BB3E"/><stop offset="1" stop-color="#47A043"/></linearGradient><path fill="url(#b)" d="M57.289 1.004h92.557v93.005H57.289z"/><path fill="#4BAA42" d="M77.003 52.26a50.533 50.533 0 003.43-.387c.098-.503.197-1.013.303-1.537-.86.404-2.214 1.107-3.733 1.924z"/><path d="M77.003 52.26c-4.197 2.249-9.686 5.35-9.686 5.35a4.056 4.056 0 01-.365-.534c.11.264.287.56.553.891 0 0 6.924.126 11.898-.254.276-1.74.617-3.7 1.03-5.839-.943.142-2.082.276-3.43.386zm16.659-3.439c.48-1.719.972-3.412 1.462-5.072a200.334 200.334 0 00-4.12 1.733c-2.226 9.304-4.16 20.07-5.062 31.67 0 0-2.154 1.593-5.641-.094 0 0-.18-.042-.44-.23l-.01.063c-.786 5.508 2.868 7.532 2.868 7.532 3.203 2.135 5.51 1.068 5.51 1.068.898-11.602 2.417-20.799 4.103-29.681 3.308-.716 7.753-1.982 11.103-2.979a309.413 309.413 0 011.732-7.559c-3.688 1.15-7.574 2.309-11.505 3.549zm4.054-13.431c2.943-9.141 5.39-15.648 5.39-15.648-1.472-.351-2.938-.271-4.242-.019a211.438 211.438 0 00-5.755 17.639c1.55-.692 3.083-1.348 4.607-1.972zm27.704-8.725c2.367-6.447 4.072-10.258 4.072-10.258a21.288 21.288 0 00-5.8.249 290.378 290.378 0 00-3.817 11.34c1.92-.496 3.767-.936 5.545-1.331zm-3.98 11.673c.38-1.206.755-2.374 1.124-3.498-1.733.418-3.448.858-5.135 1.317-3.941 13.9-7.91 31.64-9.607 50.888 0 0-2.767 1.331-5.61.166-.405 4.248-.56 6.88-.56 6.88h9.299c1.698-19.248 3.799-32.417 7.737-46.318 13.492-4.347 28.856-14.091 32.154-16.488v-.263c-5.677.071-11.262.62-16.69 1.482a265.27 265.27 0 01-12.712 5.834z" fill="#008743"/><path fill="#fff" d="M125.42 26.665c-1.777.395-3.625.835-5.545 1.331a290.923 290.923 0 013.818-11.34c2.317-6.429 3.926-10.104 3.926-10.104-4.197-1.949-7.868.074-7.868.074-4.424 2.699-7.272 13.268-7.272 13.268a297.546 297.546 0 00-3.561 11.333 171.408 171.408 0 00-11.197 4.164 167.253 167.253 0 00-4.607 1.972 211.438 211.438 0 015.755-17.639c1.843-4.882 3.119-7.626 3.119-7.626-.938-1.199-4.874-.749-4.874-.749-3.934.337-6.07 5.245-6.07 5.245-3.905 9.204-6.647 18.201-8.561 25.967-1.338.712-2.68 1.45-4.031 2.216 0 0-5.79 2.884-10.568 7.325 0 0-2.377 2.454-.926 4.975.103.178.223.357.365.534 0 0 5.488-3.101 9.686-5.35 1.52-.817 2.873-1.521 3.732-1.923-.105.523-.205 1.034-.302 1.537a178.139 178.139 0 00-1.03 5.839c-.874 5.506-1.123 8.835-1.123 8.835-.948 7.484.738 9.669 1.582 10.281.26.188.439.23.439.23 3.486 1.687 5.64.094 5.64.094.903-11.601 2.837-22.367 5.063-31.67a203.042 203.042 0 0115.628-6.022 301.162 301.162 0 00-1.465 5.812 303.792 303.792 0 00-1.732 7.559c-2.696 12.495-3.627 20.575-3.627 20.575-1.967 10.118 0 12.085 0 12.085.768.841 1.592 1.384 2.41 1.72 2.843 1.165 5.609-.166 5.609-.166 1.697-19.248 5.666-36.987 9.607-50.888 1.687-.459 3.4-.899 5.135-1.317a150.23 150.23 0 0111.59-2.336c5.428-.863 11.013-1.411 16.689-1.482v-7.681c-.001-.002-9.907-.136-25.434 3.322z"/><linearGradient gradientUnits="userSpaceOnUse" y2="34.069" y1="51.11" x2="105.53" x1="114.98" id="c"><stop offset="0" stop-color="#fff"/><stop offset=".33" stop-color="#FDFEFC"/><stop offset=".525" stop-color="#F7FAF4"/><stop offset=".686" stop-color="#ECF4E6"/><stop offset=".827" stop-color="#DDEBD2"/><stop offset=".955" stop-color="#CADFB8"/><stop offset="1" stop-color="#C2DAAD"/></linearGradient><path fill="url(#c)" d="M140.97 31.609s4.89-.587 9.874-.587v-7.681c-1.406-.039-5.058.542-5.058.542C90.248 35.349 67.313 57.61 67.313 57.61S77.5 51.851 80.73 50.337c-1.396 6.919-2.047 12.163-2.307 14.638 2.72-.142 5.805-.821 9.137-1.909a213.1 213.1 0 013.438-17.584 202.571 202.571 0 0115.628-6.021 310.498 310.498 0 00-3.951 16.965c3.695-1.942 7.453-4.104 11.163-6.364a304.108 304.108 0 013.59-13.904c7.424-2.023 15.34-3.702 23.54-4.549z"/><path d="M119.48 80.859h-.903v-.327h2.2v.327h-.908v2.646h-.39zm4.14 1.34c-.021-.414-.048-.917-.048-1.283h-.01a21.19 21.19 0 01-.374 1.129l-.525 1.442h-.291l-.484-1.416a13.81 13.81 0 01-.34-1.155h-.01c-.008.371-.03.864-.057 1.314l-.08 1.274h-.365l.207-2.973h.49l.507 1.438c.124.365.22.692.3 1.001h.01c.078-.3.185-.627.316-1.001l.529-1.438h.49l.185 2.973h-.38z" fill="#fff"/><g fill="#00733D"><path d="M9.198 107.71L5.71 125.48c-2.535 1.088-5.961 2.672-5.114 5.808l4.357-1.519s-1.76 6.034-1.76 9.229c.188 1.803.6 4.146 4.968 3.804a2177.75 2177.75 0 003.1-14.906l11.197-2.32-1.44 6.189c-.663 2.778-1.614 6.548-1.185 8.52.519 1.74 1.535 2.641 5.014 2.518l7.305-35.092h-6.15l-2.746 12.95-10.851 2.26 3.155-15.21H9.198zm49.018 5.25l-4.23 20.469s-1.086 3.591-1.086 6.137c.363 3.375 3.066 3.598 4.992 3.537l6.243-30.143zm100.604-5.24l-5.418 25.716s-1.085 3.591-1.085 6.137c.362 3.375 3.229 3.598 5.155 3.537l7.467-35.39zm-90.58 12.82l-2.665 12.899s-1.085 3.591-1.085 6.137c.362 3.375 3.067 3.598 4.993 3.537l4.676-22.573zm139.93 14.14c.922-4.345 2.229-8.321 1.27-10.703-2.171-5.416-9.985-4.78-13.424-1.082-.25-2.076-.384-2.451-.384-2.451h-4.63s-.115 2.077-.403 3.8c-.444 3.684-2.207 11.942-3.56 18.247h5.724c1.138-4.052 2.445-12.659 4.248-15.871 1.23-1.971 5.396-3.401 6.473-.109.54 1.185-1.33 6.522-1.834 10.221-.455 3.33-.862 6.193 4.772 6.07zm-24.26 0c.922-4.345 2.229-8.321 1.27-10.703-2.173-5.416-9.987-4.78-13.423-1.082-.25-2.076-.385-2.451-.385-2.451h-4.63s-.117 2.077-.401 3.8c-.447 3.684-2.208 11.942-3.561 18.247h5.723c1.137-4.052 2.445-12.659 4.248-15.871 1.23-1.971 5.395-3.401 6.473-.109.539 1.185-1.33 6.522-1.834 10.221-.455 3.33-.863 6.193 4.77 6.07z" fill-rule="evenodd" clip-rule="evenodd"/><path d="M140.27 120.68s-2.316 12.939-3.313 14.476c-1.34 2.91-3.146 3.567-5.636 3.18-2.466-.605-1.13-5.334-1.13-5.334.616-2.91 2.505-12.306 2.505-12.306h-5.82l-2.446 11.162c-1.222 5.4-.93 7.365.639 8.933-3.182.737-4.872 2.109-5.095 4.802-.346 4.196 3.957 6.74 8.383 6.68 10.62-.131 13.397-6.953 14.77-16.334l3.128-15.258h-5.985zm-11.824 28.017c-1.508-.104-3.48-.982-3.35-2.867.268-3.916 7.276-1.995 10.727-4.852 0 2.642-2.127 8.074-7.377 7.719zm-39.5-8.077c.593 1.683 2.154 2.392 4.648 2.174l7.197-34.034h-6.156l-2.375 11.5c-10.215-.982-17.062 5.92-17.184 15.081-.1 7.767 8.44 9.895 13.87 5.279zm2.415-16.328l-1.77 8.259c-.728 4.488-2.978 7.089-6.306 6.024-5.102-1.627-.417-16.608 8.076-14.283zm21.029 16.158c.594 1.685 2.325 2.563 4.822 2.346l4.082-20.28c-1.28-1.739-5.437-2.156-5.437-2.156-9.37-1.08-16.934 5.637-17.163 14.983-.191 7.765 8.579 10.035 13.696 5.107zm-6.755-9.595c1.432-4.023 4.77-7.813 9.342-6.561l-1.77 8.259c-.728 4.488-2.978 7.198-6.307 6.135-2.357-.754-2.496-4.38-1.265-7.833zM41.325 120.3c-4.021.529-7.012 2.86-8.762 5.522-2.031 3.087-3.414 8.175-2.206 12.175 1.08 3.576 4.825 5.216 8.174 5.234 4.538.028 9.124-3.097 11.179-6.475.96-1.577 2.947-6.456 2.174-10.247-.944-4.611-4.805-6.969-10.56-6.209zm3.533 13.038c-.846 2.497-2.191 4.477-3.754 5.243-1.45.657-4.13.7-4.928-1.899-.352-2.441-.157-4.425.652-6.756 1.113-2.862 3.186-5.749 5.674-5.706 1.453 0 2.975.875 3.193 2.367.37 1.408.24 4.081-.837 6.751z"/><path fill-rule="evenodd" clip-rule="evenodd" d="M75.165 112c1.18 1.178.96 3.316-.496 4.784-1.455 1.464-3.597 1.697-4.781.519-1.18-1.178-.961-3.319.497-4.782 1.458-1.466 3.594-1.7 4.78-.521z"/></g><g fill="#4BAA42"><path d="M8.735 107.2l-3.49 17.769c-2.534 1.088-5.961 2.672-5.113 5.808l4.355-1.517s-1.758 6.029-1.758 9.227c.188 1.803.6 4.146 4.967 3.806 1.054-4.952 2.079-9.924 3.1-14.906l11.199-2.322-1.441 6.191c-.664 2.776-1.615 6.546-1.186 8.52.52 1.738 1.536 2.639 5.014 2.518l7.305-35.092H25.54l-2.75 12.948-10.85 2.26 3.155-15.208h-6.36zm49.018 5.25l-4.231 20.469s-1.085 3.591-1.085 6.137c.362 3.378 3.066 3.6 4.992 3.539l6.244-30.145zm100.597-5.24l-5.417 25.716s-1.086 3.591-1.086 6.137c.363 3.378 3.229 3.6 5.154 3.539l7.469-35.392zm-90.572 12.81l-2.666 12.899s-1.086 3.591-1.086 6.137c.363 3.378 3.066 3.6 4.994 3.539l4.676-22.575zM207.7 134.17c.922-4.348 2.23-8.324 1.273-10.706-2.174-5.416-9.986-4.78-13.425-1.082-.25-2.076-.384-2.451-.384-2.451h-4.63s-.118 2.077-.404 3.8c-.446 3.684-2.206 11.942-3.558 18.248h5.723c1.137-4.05 2.445-12.66 4.248-15.872 1.23-1.971 5.394-3.401 6.472-.111.54 1.187-1.33 6.526-1.834 10.223-.454 3.333-.862 6.193 4.77 6.072zm-24.26 0c.922-4.348 2.229-8.324 1.273-10.706-2.174-5.416-9.988-4.78-13.427-1.082-.247-2.076-.384-2.451-.384-2.451h-4.63s-.115 2.077-.401 3.8c-.446 3.684-2.206 11.942-3.561 18.248h5.725c1.136-4.05 2.444-12.66 4.246-15.872 1.23-1.971 5.396-3.401 6.473-.111.54 1.187-1.33 6.526-1.832 10.223-.457 3.333-.864 6.193 4.77 6.072z" fill-rule="evenodd" clip-rule="evenodd"/><path d="M139.8 120.17s-2.317 12.938-3.313 14.474c-1.34 2.91-3.146 3.567-5.635 3.182-2.467-.607-1.131-5.336-1.131-5.336.616-2.91 2.506-12.308 2.506-12.308h-5.82l-2.447 11.166c-1.222 5.4-.93 7.363.637 8.932-3.18.738-4.87 2.108-5.092 4.801-.344 4.194 3.957 6.738 8.382 6.683 10.622-.134 13.398-6.956 14.77-16.337l3.128-15.256H139.8zm-11.825 28.015c-1.506-.102-3.48-.98-3.35-2.865.269-3.916 7.277-1.997 10.729-4.854 0 2.644-2.13 8.075-7.38 7.719zM88.48 140.11c.596 1.683 2.155 2.392 4.65 2.176l7.198-34.036h-6.156l-2.374 11.503c-10.217-.985-17.063 5.917-17.186 15.08-.102 7.765 8.442 9.896 13.869 5.277zm2.416-16.327l-1.766 8.259c-.73 4.488-2.98 7.089-6.31 6.026-5.102-1.63-.417-16.61 8.076-14.285zm21.024 16.157c.594 1.685 2.326 2.563 4.822 2.348l4.084-20.282c-1.281-1.738-5.44-2.156-5.44-2.156-9.366-1.08-16.933 5.637-17.162 14.985-.19 7.765 8.58 10.034 13.696 5.105zm-6.755-9.595c1.433-4.023 4.773-7.811 9.34-6.561l-1.765 8.259c-.73 4.488-2.98 7.198-6.306 6.135-2.36-.754-2.5-4.38-1.27-7.833zM40.86 119.79c-4.02.527-7.012 2.86-8.76 5.522-2.033 3.087-3.416 8.177-2.206 12.178 1.079 3.573 4.823 5.213 8.173 5.231 4.537.028 9.123-3.097 11.178-6.475.96-1.575 2.948-6.456 2.174-10.247-.942-4.609-4.803-6.968-10.56-6.209zm3.536 13.038c-.846 2.499-2.192 4.479-3.756 5.245-1.447.657-4.13.698-4.926-1.901-.354-2.44-.158-4.427.652-6.756 1.11-2.86 3.186-5.749 5.673-5.706 1.454 0 2.974.877 3.193 2.37.37 1.406.24 4.079-.836 6.748z"/><path fill-rule="evenodd" clip-rule="evenodd" d="M74.702 111.48c1.18 1.178.958 3.316-.496 4.784-1.456 1.465-3.598 1.697-4.781.519-1.18-1.178-.961-3.317.496-4.779 1.458-1.468 3.596-1.703 4.78-.524z"/></g><path fill="#4DAA47" d="M214.14 120.8c1.453 0 2.58 1.129 2.58 2.535 0 1.437-1.127 2.548-2.596 2.548-1.452 0-2.611-1.111-2.611-2.548 0-1.406 1.159-2.535 2.61-2.535zm-.031.511c-1.111 0-1.946.911-1.946 2.024 0 1.127.835 2.022 1.978 2.022 1.113.016 1.932-.896 1.932-2.022 0-1.113-.818-2.024-1.947-2.024zm-.385 3.336h-.59v-2.518c.234-.046.559-.093.975-.093.479 0 .695.077.88.2a.7.7 0 01.249.541c0 .295-.218.51-.525.603v.03c.248.078.385.278.463.618.078.388.124.541.186.618h-.634c-.077-.093-.122-.308-.2-.603-.047-.278-.201-.401-.525-.401h-.277v1.005zm.014-1.422h.279c.324 0 .588-.107.588-.37 0-.23-.171-.386-.541-.386-.155 0-.264.016-.326.03z"/></svg>