<?xml version="1.0" encoding="utf-8"?>
<!-- Generator: Adobe Illustrator 26.0.3, SVG Export Plug-In . SVG Version: 6.00 Build 0)  -->
<svg version="1.0" id="katman_1" xmlns="http://www.w3.org/2000/svg" xmlns:xlink="http://www.w3.org/1999/xlink" x="0px" y="0px"
	 viewBox="0 0 600 450" style="enable-background:new 0 0 600 450;" xml:space="preserve">
<style type="text/css">
	.st0{fill-rule:evenodd;clip-rule:evenodd;fill:#FBCF22;}
	.st1{fill-rule:evenodd;clip-rule:evenodd;fill:#1B1A1A;}
	.st2{fill-rule:evenodd;clip-rule:evenodd;fill:#E77930;}
	.st3{fill-rule:evenodd;clip-rule:evenodd;fill:#7079AC;}
	.st4{fill-rule:evenodd;clip-rule:evenodd;fill:#A9A278;}
	.st5{fill-rule:evenodd;clip-rule:evenodd;fill:#D1D949;}
	.st6{fill-rule:evenodd;clip-rule:evenodd;fill:#58ADC1;}
	.st7{fill-rule:evenodd;clip-rule:evenodd;fill:#6BB865;}
</style>
<path class="st0" d="M274.5,89.9c0,3.4-0.8,6.6-2,9.9c-1.4,3.2-3.2,6-5.6,8.7c-2.6,2.4-5.4,4.2-8.7,5.6c-3,1.2-6.4,2-9.9,2
	c-3.6,0-6.9-0.8-10.1-2c-3.2-1.4-6-3.2-8.4-5.6c-2.6-2.6-4.4-5.4-5.8-8.7c-1.2-3.2-1.8-6.5-1.8-9.9c0-3.6,0.6-6.8,1.8-10.1
	c1.4-3.2,3.2-6,5.8-8.4c2.4-2.6,5.2-4.4,8.4-5.8c3.2-1.2,6.4-1.8,10.1-1.8c3.4,0,6.6,0.6,9.9,1.8c3.2,1.4,6,3.2,8.7,5.8
	c2.4,2.4,4.2,5.2,5.6,8.4C273.7,83.1,274.5,86.3,274.5,89.9z"/>
<path class="st1" d="M327.6,89.9c0,1.6-0.2,3.4-0.4,5c-0.4,1.8-0.8,3.4-1.4,5c-0.8,1.6-1.6,3.2-2.4,4.6c-1,1.6-2,2.8-3.2,4.2
	c-1.2,1.2-2.6,2.2-4,3.2c-1.4,1-3,1.8-4.6,2.6c-1.6,0.6-3.2,1.2-5,1.4c-1.6,0.4-3.4,0.6-5,0.6c-1.8,0-3.6-0.2-5.2-0.6
	c-1.8-0.2-3.4-0.8-5-1.4c-1.6-0.8-3.2-1.6-4.6-2.6c-1.4-1-2.8-2-4-3.2c-1.2-1.4-2.2-2.6-3.2-4.2c-0.8-1.4-1.6-3-2.4-4.6
	c-0.6-1.6-1-3.2-1.4-5c-0.2-1.6-0.4-3.4-0.4-5c0.2-3.4,0.8-6.8,2.2-9.9c1.4-3.2,3.2-5.8,5.8-8.2c2.4-2.4,5.2-4.2,8.3-5.6
	c3.2-1.2,6.6-1.8,10.1-1.8c3.2,0,6.7,0.6,9.9,1.8c3,1.4,5.8,3.2,8.2,5.6c2.6,2.4,4.4,5,5.8,8.2C326.8,83.1,327.4,86.5,327.6,89.9z"
	/>
<path class="st2" d="M380.5,89.9c0,3.4-0.6,6.6-2,9.9c-1.2,3.2-3.2,6-5.6,8.7c-2.4,2.4-5.2,4.2-8.4,5.6c-3.2,1.2-6.5,2-10.1,2
	c-3.4,0-6.6-0.8-9.9-2c-3.2-1.4-6-3.2-8.7-5.6c-2.4-2.6-4.2-5.4-5.6-8.7c-1.2-3.2-2-6.5-2-9.9c0-3.6,0.8-6.8,2-10.1
	c1.4-3.2,3.2-6,5.6-8.4c2.6-2.4,5.4-4.4,8.7-5.6c3.2-1.4,6.4-2,9.9-2c3.6,0,6.8,0.6,10.1,2c3.2,1.2,6,3.2,8.4,5.6
	c2.4,2.4,4.4,5.2,5.6,8.4C379.9,83.1,380.5,86.3,380.5,89.9z"/>
<path class="st3" d="M274.5,142.9c0,3.6-0.8,6.8-2,10.1c-1.4,3.2-3.2,6-5.6,8.4c-2.6,2.6-5.4,4.4-8.7,5.8c-3,1.2-6.4,2-9.9,2
	c-3.6,0-6.9-0.8-10.1-2c-3.2-1.4-6-3.2-8.4-5.8c-2.4-2.4-4.4-5.2-5.6-8.4c-1.4-3.2-2-6.4-2-10.1c0-3.4,0.6-6.6,2-9.9
	c1.2-3.2,3.2-6,5.6-8.4c2.4-2.6,5.2-4.4,8.4-5.8c3.2-1.2,6.4-2,10.1-2c3.4,0,6.8,0.8,9.9,2c3.2,1.4,6,3.2,8.7,5.8
	c2.4,2.4,4.2,5.2,5.6,8.4C273.7,136.3,274.5,139.5,274.5,142.9z"/>
<path class="st4" d="M327.6,142.9c0,3.6-0.8,6.8-2,10.1c-1.4,3.2-3.2,6-5.6,8.4c-2.6,2.6-5.4,4.4-8.7,5.8c-3.2,1.2-6.5,2-9.9,2
	c-3.6,0-6.8-0.8-10.1-2c-3.2-1.4-6-3.2-8.5-5.8c-2.6-2.4-4.4-5.2-5.8-8.4c-1.2-3.2-2-6.4-2-10.1c0-3.4,0.8-6.6,2-9.9
	c1.4-3.2,3.2-6,5.8-8.7c2.4-2.4,5.2-4.2,8.5-5.6c3.2-1.2,6.4-2,10.1-2c3.4,0,6.7,0.8,9.9,2c3.2,1.4,6,3.2,8.4,5.8
	c2.6,2.4,4.4,5.2,5.8,8.4c1.2,3.2,2,6.5,2,10.1V142.9z"/>
<path class="st5" d="M380.5,142.9c0,3.6-0.6,6.8-2,10.1c-1.2,3.2-3.2,6-5.6,8.4c-2.4,2.6-5.2,4.4-8.4,5.8c-3.2,1.2-6.5,2-10.1,2
	c-3.4,0-6.6-0.8-9.9-2c-3.2-1.4-6-3.2-8.7-5.8c-2.4-2.4-4.2-5.2-5.6-8.4c-1.2-3.2-2-6.4-2-10.1c0-3.4,0.8-6.6,2-9.9
	c1.4-3.2,3.2-6,5.6-8.7c2.6-2.4,5.4-4.2,8.7-5.6c3.2-1.2,6.4-2,9.9-2c3.6,0,6.8,0.8,10.1,2c3.2,1.4,6,3.2,8.4,5.8
	c2.6,2.4,4.4,5.2,5.8,8.4c1.2,3.2,1.8,6.5,1.8,10.1V142.9z"/>
<path class="st6" d="M274.5,196.1c0,3.6-0.8,6.8-2,10.1c-1.4,3.2-3.2,6-5.6,8.4c-2.6,2.4-5.4,4.4-8.7,5.6c-3,1.4-6.4,2-9.9,2
	c-3.6,0-6.9-0.6-10.1-2c-3.2-1.2-6-3.2-8.4-5.6c-2.4-2.4-4.4-5.2-5.6-8.4c-1.4-3.2-2-6.4-2-10.1c0-3.4,0.6-6.8,2-9.9
	c1.2-3.2,3.2-6,5.6-8.7c2.4-2.4,5.2-4.2,8.4-5.6c3.2-1.2,6.4-2,10.1-2c3.4,0,6.8,0.8,9.9,2c3.2,1.4,6,3.2,8.7,5.6
	c2.4,2.6,4.2,5.4,5.6,8.7C273.7,189.2,274.5,192.7,274.5,196.1z"/>
<path class="st1" d="M327.6,196.1c0,3.6-0.8,6.8-2,10.1c-1.4,3.2-3.2,6-5.8,8.4c-2.4,2.4-5.2,4.4-8.4,5.6c-3.2,1.4-6.5,2-9.9,2
	c-3.6,0-6.8-0.6-10.1-2c-3.2-1.2-6-3.2-8.5-5.6c-2.6-2.4-4.4-5.2-5.8-8.4c-1.2-3.2-2-6.4-2-10.1c0-3.4,0.8-6.8,2-9.9
	c1.4-3.2,3.2-6,5.8-8.7c2.4-2.4,5.2-4.2,8.5-5.6c3.2-1.2,6.4-2,10.1-2c3.4,0,6.7,0.8,9.9,2c3.2,1.4,6,3.2,8.4,5.6
	c2.6,2.6,4.4,5.4,5.8,8.7C326.8,189.2,327.6,192.7,327.6,196.1z"/>
<path class="st7" d="M380.5,196.1c0,3.6-0.6,6.8-1.8,10.1c-1.4,3.2-3.2,6-5.8,8.4c-2.4,2.4-5.2,4.4-8.4,5.6c-3.2,1.4-6.5,2-10.1,2
	c-3.4,0-6.6-0.6-9.9-2c-3.2-1.2-6-3.2-8.7-5.6c-2.4-2.4-4.2-5.2-5.6-8.4c-1.2-3.2-2-6.4-2-10.1c0-3.4,0.8-6.8,2-9.9
	c1.4-3.2,3.2-6,5.6-8.7c2.6-2.4,5.4-4.2,8.7-5.6c3.2-1.2,6.4-2,9.9-2c3.6,0,6.8,0.8,10.1,2c3.2,1.4,6,3.2,8.4,5.6
	c2.6,2.6,4.4,5.4,5.6,8.7C379.9,189.2,380.5,192.7,380.5,196.1z"/>
<path class="st1" d="M432.9,346.9c2.4,0,4.4,2,4.4,4.4c0,2.6-2,4.4-4.4,4.4c-1.2,0-2.2-0.4-3-1.2c-1-1-1.4-2-1.4-3.2
	C428.5,348.9,430.5,346.9,432.9,346.9z M432.9,356.6c3,0,5.4-2.2,5.4-5.2c0-1.4-0.6-2.6-1.6-3.8c-1-1-2.2-1.4-3.8-1.4
	c-2.8,0-5.2,2.2-5.2,5.2C427.7,354.4,430.1,356.6,432.9,356.6z M409.1,272.2v4.6h18.7v49.7h4.8v-49.7h18.5v-4.6H409.1z M345.1,272.2
	v4.6h18.5v49.7h4.8v-49.7h18.7v-4.6H345.1z M305.7,272h-4.4l-25.2,54.6h5l6.7-14.9h31.2l6.9,14.9h5.2L305.7,272z M290,307.2
	l13.5-29.6l13.5,29.6H290z M261,272.2L241,300.8l-19.9-28.6h-5.8l23.4,33v21.4h4.6V305l23.4-32.8H261z M187.3,272.2v25h-33.4v-25
	H149v54.4h4.8v-25h33.4v25h4.8v-54.4H187.3z M392.2,380.3v-10.9h20.5v-6h-20.5V353h22.9v-6.3h-29.4v39.7h29.6v-6H392.2z
	 M365.9,375.1l-0.8,0.6c-3.2,3-6.2,5.2-11.3,5.2c-7.4,0-13.3-6.4-13.3-14.3v-0.2c0-8.1,5.8-14.1,13.3-14.1c4.2,0,7.4,1.4,11.1,4.8
	l0.8,0.8l4.4-4.8l-0.8-0.8c-3.4-3.2-7.7-6.2-15.5-6.2c-11.1,0-19.9,9.1-19.9,20.5c0,11.7,8.4,20.3,19.9,20.3
	c7.8,0,12.3-3.4,15.7-6.8l0.8-0.8L365.9,375.1z M305.5,346.5H300l-18.1,39.9h6.9l4.4-9.9h18.9l4.2,9.9h7.2L305.5,346.5z
	 M309.3,370.5H296l6.6-15.1L309.3,370.5z M247.1,380.1v-33.4h-6.7v39.7H268v-6.2H247.1z M209.8,346.7h-15.1v39.7h6.4v-13.1h8.1
	c9.5,0,15.7-5.4,15.7-13.5C224.9,351.9,219.1,346.7,209.8,346.7z M209.2,367h-8.1V353h8.3c2.8,0,9.1,0.6,9.1,7
	C218.5,364.2,214.9,367,209.2,367z"/>
<path class="st1" d="M430.9,348.5h2.4c0.8,0,1.4,0.2,1.8,0.6c0.4,0.2,0.6,0.6,0.4,1c0,1-0.4,1.6-1.2,1.8l1.6,2h-1.4l-1.4-1.8h-1.2
	v1.8h-1V348.5z M433.3,351.1c0.8,0,1.2-0.4,1.2-0.8c0-0.6-0.4-1-1.2-1h-1.4v1.8H433.3z"/>
</svg>
