<?xml version="1.0" encoding="UTF-8" standalone="no"?>


<svg
   xmlns:dc="http://purl.org/dc/elements/1.1/"
   xmlns:cc="http://creativecommons.org/ns#"
   xmlns:rdf="http://www.w3.org/1999/02/22-rdf-syntax-ns#"
   xmlns:svg="http://www.w3.org/2000/svg"
   xmlns="http://www.w3.org/2000/svg"
   xmlns:sodipodi="http://sodipodi.sourceforge.net/DTD/sodipodi-0.dtd"
   xmlns:inkscape="http://www.inkscape.org/namespaces/inkscape"
   width="1000"
   height="357.43549"
   viewBox="0 0 264.58333 94.571475"
   version="1.1"
   id="svg8"
   inkscape:version="0.92.2 (5c3e80d, 2017-08-06)"
   sodipodi:docname="JCPenney logo 2011.svg">
  <defs
     id="defs2" />
  <sodipodi:namedview
     id="base"
     pagecolor="#ffffff"
     bordercolor="#666666"
     borderopacity="1.0"
     inkscape:pageopacity="0.0"
     inkscape:pageshadow="2"
     inkscape:zoom="0.7"
     inkscape:cx="501.85576"
     inkscape:cy="112.40672"
     inkscape:document-units="mm"
     inkscape:current-layer="layer1"
     showgrid="false"
     showguides="true"
     inkscape:guide-bbox="true"
     inkscape:object-paths="false"
     inkscape:snap-smooth-nodes="false"
     inkscape:window-width="1366"
     inkscape:window-height="705"
     inkscape:window-x="-8"
     inkscape:window-y="-8"
     inkscape:window-maximized="1"
     units="px"
     fit-margin-top="0"
     fit-margin-left="0"
     fit-margin-right="0"
     fit-margin-bottom="0" />
  <metadata
     id="metadata5">
    <rdf:RDF>
      <cc:Work
         rdf:about="">
        <dc:format>image/svg+xml</dc:format>
        <dc:type
           rdf:resource="http://purl.org/dc/dcmitype/StillImage" />
        <dc:title></dc:title>
      </cc:Work>
    </rdf:RDF>
  </metadata>
  <g
     inkscape:label="Layer 1"
     inkscape:groupmode="layer"
     id="layer1"
     transform="translate(192.5221,-274.20602)">
    <g
       id="g971"
       transform="matrix(0.90719663,0,0,0.90719663,-17.8667,34.223794)"
       style="stroke-width:1.10229683">
      <path
         id="rect828"
         transform="scale(0.26458333)"
         d="m -727.64258,999.80469 v 394.00001 h 394 v -114.7813 c -12.23034,18.2243 -31.55692,29.9964 -53.3164,29.9961 -21.07557,-4e-4 -37.45377,-8.951 -48.74414,-22.4941 v 74.1543 h -23.73829 v -199.9219 h 23.73829 v 19.1152 c 8.94357,-13.79 22.30374,-22.6498 48.74414,-22.6503 21.75937,-3e-4 41.08605,11.1554 53.3164,29.2343 V 999.80469 Z m 78.56836,105.69731 h 23.74024 v 29.207 h -23.74024 z m 108.89649,51.7207 c 35.69627,0 58.31106,14.5696 64.35156,49.6484 h -24.90235 c -5.72917,-22.8812 -19.98026,-28.9336 -38.19921,-28.9336 -23.86659,0 -43.21485,18.9374 -43.21485,55.3711 0,36.4337 19.34826,54.4902 43.21485,54.4902 19.50169,0 34.4629,-10.8831 39.28515,-35.75 h 24.5918 c -5.697,34.5817 -27.91467,56.9707 -65.12695,56.9707 -43.57183,0 -66.60743,-31.396 -66.60743,-75.709 0,-41.8129 23.0356,-76.0878 66.60743,-76.0878 z m -108.89649,3.5351 h 23.74024 v 163.793 c 0,18.9097 -8.45376,41.3656 -46.77344,35.039 v -20.2656 c 19.64455,3.4272 23.0332,-4.8701 23.0332,-14.7734 z m 256.9375,17.5371 c -29.95525,0 -44.63672,24.5465 -44.63672,54.8262 0,30.2797 14.68147,54.8262 44.63672,54.8262 29.95525,0 44.63672,-24.5465 44.63672,-54.8262 0,-30.2797 -14.68147,-54.8262 -44.63672,-54.8262 z"
         style="opacity:1;fill:#e60000;fill-opacity:1;stroke:none;stroke-width:6.5200429;stroke-linecap:square;stroke-linejoin:miter;stroke-miterlimit:4;stroke-dasharray:none;stroke-opacity:1"
         inkscape:connector-curvature="0" />
      <path
         style="opacity:1;fill:#e60000;fill-opacity:1;stroke:none;stroke-width:1.72509468;stroke-linecap:square;stroke-linejoin:miter;stroke-miterlimit:4;stroke-dasharray:none;stroke-opacity:1"
         d="m -25.607739,306.28209 c -6.026246,0 -10.047362,2.40913 -12.756844,7.06363 v -6.22856 h -5.954675 v 38.3925 h 6.280753 v -21.30877 c 0,-7.10502 3.908192,-12.20597 10.951786,-12.20597 4.693873,0 8.209614,2.32635 8.209614,7.68995 v 25.82479 h 6.280753 v -26.39168 c 0,-5.96742 -2.541523,-12.83589 -13.011387,-12.83589 z"
         id="path926"
         inkscape:connector-curvature="0"
         sodipodi:nodetypes="scccccsssccss" />
      <path
         id="rect844"
         transform="scale(0.26458333)"
         d="m -96.785156,1157.6016 c -22.776364,0 -37.974284,9.1054 -48.214844,26.6972 v -23.541 h -22.50586 v 145.1055 h 23.73828 v -80.5371 c 0,-26.8536 14.77112,-46.1328 41.39258,-46.1328 17.740623,0 30.582031,8.7925 30.582031,29.0644 v 97.6055 h 23.738281 v -99.7481 c 0,-22.554 -9.159328,-48.5136 -48.730468,-48.5136 z"
         style="opacity:1;fill:#e60000;fill-opacity:1;stroke:none;stroke-width:6.5200429;stroke-linecap:square;stroke-linejoin:miter;stroke-miterlimit:4;stroke-dasharray:none;stroke-opacity:1"
         inkscape:connector-curvature="0" />
      <path
         transform="scale(0.26458333)"
         sodipodi:nodetypes="sssccsccccscsscss"
         inkscape:connector-curvature="0"
         id="path893"
         d="m -248.75,1157.6016 c -37.37743,5e-4 -68.05651,28.3479 -68.05654,74.4462 -3e-5,46.0983 22.88292,76.9717 69.18897,76.9717 36.30416,0 56.49226,-17.8459 62.35272,-49.209 h -23.86406 c -4.01941,17.1049 -14.09573,27.7793 -38.86523,27.7793 -29.07031,0 -42.80643,-19.8318 -43.73382,-46.9264 l 84.84124,-0.1263 h 17.04883 6.94141 c 0.0191,-0.9753 0.0391,-1.9478 0.0391,-2.9414 0,-45.0324 -22.80085,-79.9935 -65.89258,-79.9941 z m -0.75781,21.4277 c 18.60932,0 36.44935,11.0817 41.35156,40.6269 l -83.33203,0.1263 c 3.62563,-23.3688 17.10467,-40.7532 41.98047,-40.7532 z"
         style="opacity:1;fill:#e60000;fill-opacity:1;stroke:none;stroke-width:26.16742516;stroke-linecap:square;stroke-linejoin:miter;stroke-miterlimit:4;stroke-dasharray:none;stroke-opacity:0.44897958" />
      <path
         sodipodi:nodetypes="scccccsssccss"
         inkscape:connector-curvature="0"
         id="path920"
         d="m 11.643519,306.28189 c -6.0262462,0 -10.0473625,2.40913 -12.756844,7.06363 v -6.22856 H -7.068 v 38.3925 h 6.28075285 v -21.30877 c 0,-7.10502 3.90819205,-12.20597 10.95178615,-12.20597 4.693873,0 8.209614,2.32635 8.209614,7.68995 v 25.82479 h 6.280753 v -26.39168 c 0,-5.96742 -2.541523,-12.83589 -13.011387,-12.83589 z"
         style="opacity:1;fill:#e60000;fill-opacity:1;stroke:none;stroke-width:1.72509468;stroke-linecap:square;stroke-linejoin:miter;stroke-miterlimit:4;stroke-dasharray:none;stroke-opacity:1" />
      <path
         sodipodi:nodetypes="ccsccsccccc"
         inkscape:connector-curvature="0"
         id="rect928"
         transform="scale(0.26458333)"
         d="m 237.70117,1160.7578 57.41797,143.9844 -8.46689,22.3011 c -5.19183,13.6748 -17.10562,20.3283 -34.85342,11.8922 v 22.7668 c 32.09445,7.8774 46.50237,-5.6815 54.83203,-26.9835 l 68.02344,-173.961 h -26.95313 l -40.38867,118.5938 -42.6582,-118.5938 z"
         style="opacity:1;fill:#e60000;fill-opacity:1;stroke:none;stroke-width:6.52004242;stroke-linecap:square;stroke-linejoin:miter;stroke-miterlimit:4;stroke-dasharray:none;stroke-opacity:1" />
      <path
         style="opacity:1;fill:#e60000;fill-opacity:1;stroke:none;stroke-width:6.92346478;stroke-linecap:square;stroke-linejoin:miter;stroke-miterlimit:4;stroke-dasharray:none;stroke-opacity:0.44897958"
         d="m 46.610626,306.28209 c -9.889445,1.3e-4 -18.006618,7.50038 -18.006626,19.69722 -8e-6,12.19684 6.054439,20.36543 18.306248,20.36543 9.605476,0 14.946911,-4.72173 16.497491,-13.01988 h -6.314033 c -1.063469,4.52567 -3.729495,7.34994 -10.283092,7.34994 -7.691519,0 -11.325868,-5.24717 -11.571239,-12.41595 l 22.447577,-0.0334 h 4.510837 1.836581 c 0.0051,-0.25805 0.01034,-0.51536 0.01034,-0.77825 0,-11.91482 -6.032725,-21.16495 -17.434078,-21.1651 z m -0.200504,5.66941 c 4.923716,0 9.643891,2.93203 10.940934,10.7492 l -22.048266,0.0334 c 0.959281,-6.183 4.52561,-10.78262 11.107332,-10.78262 z"
         id="path934"
         inkscape:connector-curvature="0"
         sodipodi:nodetypes="sssccsccccscsscss" />
    </g>
  </g>
</svg>
