<?xml version="1.0" encoding="UTF-8" standalone="no"?>

<svg
   xmlns:svg="http://www.w3.org/2000/svg"
   xmlns="http://www.w3.org/2000/svg"
   version="1.0"
   width="744.09448"
   height="323.50394"
   id="svg2231">
  <defs
     id="defs2233">
    <clipPath
       id="clp16">
      <path
         d="M 0.06,737.1 L 581.22,737.1 L 581.22,0.06 L 0.06,0.06 L 0.06,737.1 z "
         id="path10105" />
    </clipPath>
    <clipPath
       id="clp63">
      <path
         d="M 0.06,737.1 L 581.22,737.1 L 581.22,0.06 L 0.06,0.06 L 0.06,737.1 z "
         id="path11432" />
    </clipPath>
  </defs>
  <g
     transform="translate(-997.09273,-247.2909)"
     id="layer1">
    <g
       transform="translate(17.702812,17.779585)"
       id="g4074">
      <path
         d="M 335.75,-97.75 C 302.86307,-97.111944 249.13892,-60.170106 224.78125,-41.6875 C 211.00775,-31.22659 197.92269,-20.89841 182.875,-10.4375 C 187.4483,-18.61849 192.47151,-26.684888 196.9375,-35 C 200.4378,-41.43749 213.90805,-61.01436 219.03125,-66.78125 C 220.10435,-67.98831 221.16029,-69.069037 221.1875,-70.8125 C 221.2143,-72.95835 219.8955,-74.139311 217.9375,-73.46875 C 202.4203,-67.70186 192.77376,-67.167942 178.71875,-65.15625 C 157.46175,-62.07162 132.52751,-48.00387 132.125,-22.65625 C 132.058,-18.76694 133.2463,-12.73177 135.875,-9.78125 C 136.5187,-8.97657 139.079,-6.15625 140.3125,-6.15625 C 141.0237,-6.02214 141.07144,-6.9726602 141.03125,-7.375 C 140.84325,-8.85028 136.48655,-13.66537 136.59375,-19.96875 C 136.94225,-41.96352 156.67714,-53.638031 173.84375,-57.125 C 185.14995,-59.53907 192.835,-59.925772 202.25,-61.9375 C 190.8233,-42.22269 179.19496,-22.66534 167.40625,-3.21875 C 157.36085,13.27731 152.4316,22.143282 143.6875,34.75 C 124.9649,61.70697 117.96575,71.352889 100.71875,87.3125 C 89.77525,97.23696 75.427198,105.70573 60.3125,105.4375 C 48.3094,105.16928 38.229001,102.34373 30.625,92.6875 C 28.5861,90.0052 27.5447,84.499988 27.4375,81.28125 C 26.2036,80.47657 24.50195,80.218752 23.09375,80.21875 C 20.74704,80.21875 19.241101,82.21489 19.1875,85.03125 C 18.9864,97.36978 41.535099,109.04428 61.25,109.3125 C 84.4114,109.71484 100.7285,99.270822 116.125,84.25 C 135.8532,65.07164 153.13705,38.50384 167.03125,16.375 C 171.33645,9.53517 176.8125,0.28125 176.8125,0.28125 C 182.2843,13.9609 186.0686,28.3112 191.3125,42.125 C 202.9403,72.70306 221.61641,96.026041 256.6875,96.5625 C 273.5991,96.83072 295.30271,84.77732 305.375,71.5 C 305.8441,70.82944 306.42411,70.023432 306.4375,69.21875 C 306.4509,67.74347 304.8802,68.941423 304.4375,69.34375 C 292.3941,81.27991 275.53791,92.67448 257.875,92.40625 C 236.0279,92.00391 221.87225,79.802071 211.15625,61.5625 C 201.71475,45.46881 195.12855,20.66404 189.46875,2.15625 C 189.13365,1.08334 188.89285,-0.11456004 188.90625,-1.1875 C 189.01385,-7.35673 197.38675,-12.31251 201.71875,-15.53125 C 217.51745,-27.33329 233.43279,-39.43103 249.6875,-50.5625 C 270.5022,-64.77865 312.97279,-93.183591 338.9375,-92.78125 C 343.1351,-92.64714 353.06254,-91.985673 352.96875,-86.21875 C 352.90175,-82.19532 348.66531,-79.248702 348.625,-76.96875 C 348.6116,-76.02996 348.9809,-74.687496 350,-74.6875 C 354.0908,-74.6875 358.49954,-79.648432 358.59375,-85.28125 C 358.74115,-94.53514 344.4608,-97.615891 337.3125,-97.75 C 336.80119,-97.758382 336.27201,-97.760128 335.75,-97.75 z M 649.34375,-92 C 647.37225,-92 643.01359,-89.032528 639.6875,-84.875 C 636.0935,-80.31509 633.89326,-77.894551 630.21875,-73.46875 C 628.26075,-71.05472 626.33779,-68.395843 624.125,-66.25 C 610.6196,-53.50913 599.97438,-44.513011 586.375,-31.90625 C 577.966,-23.99348 570.20169,-20.25257 566.5,-8.71875 C 561.9937,-8.31642 558.56797,-7.3606402 554.625,-4.8125 C 549.4079,-1.32552 547.54908,5.2552098 547.5625,7.9375 C 545.2559,12.76564 540.90559,18.78516 538.0625,22.40625 C 534.3876,27.10023 522.66208,39.053389 518.34375,39.1875 C 514.97755,39.1875 513.41962,37.563781 513.40625,33.40625 C 513.37945,24.95703 522.02682,11.68096 522,3.5 C 521.9866,-0.25519 519.49922,-1.59375 516.75,-1.59375 C 507.4961,-1.59375 497.70554,7.9192803 491.09375,14.625 C 493.68215,9.66279 495.09214,5.64975 496.21875,0.6875 C 496.58065,-0.92186 493.58379,-2.8125 491.25,-2.8125 C 487.1864,-2.8125 486.61794,0.96484008 485.15625,3.78125 C 481.11945,8.60935 470.79219,19.8646 465.9375,24.15625 C 461.5786,28.04556 450.9262,39.718748 446.125,39.71875 C 444.7973,39.71875 443.04464,39.187492 443.03125,35.96875 C 443.00445,29.26303 456.22206,7.3945 460.40625,-0.25 C 461.19785,-1.72528 458.57405,-2.8125 456.84375,-2.8125 C 455.22125,-2.8125 452.58211,-2.13544 451.375,-1.0625 C 449.0681,1.0833 446.43654,8.0546897 443.96875,10.46875 C 436.36465,17.71092 420.19599,30.181009 410.6875,34.875 C 416.5483,28.70573 425.79019,18.91014 425.75,9.65625 C 425.7366,2.68231 422.1475,-0.66535998 415.5625,-0.53125 C 406.7513,-0.53125 401.33991,3.8997599 394.6875,8.59375 C 397.9867,0.68102 406.4375,-16.093749 406.4375,-16.09375 C 406.4375,-16.89843 405.07219,-16.874999 404.5625,-16.875 C 397.5486,-16.875 395.13744,-13.40624 392.65625,-6.96875 C 389.70595,0.54164 385.93594,10.06904 383.84375,15.03125 C 380.27655,21.73696 377.09085,28.699202 372.90625,33.125 C 370.08995,36.07552 365.84469,41.459641 361.875,41.59375 C 358.1867,41.59375 358.06249,37.97266 358.0625,35.15625 C 358.0356,30.32816 360.57901,25.372379 361.8125,20.8125 C 362.8319,16.92319 366.48215,9.5273299 366.46875,5.90625 C 366.46875,2.0169 363.5584,-0.53124998 359.9375,-0.53125 C 348.0684,-0.53125 341.64175,7.9309704 336.15625,12.625 C 338.12775,1.09114 333.47015,-1.46875 329.03125,-1.46875 C 316.97405,-1.46875 305.33316,10.998719 300.15625,18.375 C 302.07415,14.08336 305.54466,2.84116 305.53125,-1.71875 C 305.51785,-2.79165 305.1849,-4.1341102 303.9375,-4 C 298.9621,-3.59766 280.45535,2.8307404 280.46875,9 C 280.46875,10.20702 281.81049,10.59375 283.3125,10.59375 C 284.7341,10.59375 289.51266,6.1797199 293.09375,5.375 C 293.38865,8.0573 292.80475,10.86327 291.71875,12.875 C 281.31135,31.7851 259.6218,47.343751 242.5625,47.34375 C 236.6882,47.34375 232.4018,43.341122 232.375,35.5625 C 232.3616,33.28255 232.49075,31.529921 232.90625,29.25 C 239.65255,29.38412 251.90835,21.350229 256.65625,16.65625 C 261.57805,11.82811 267.65179,4.44789 267.625,-3.0625 C 267.6116,-7.08592 262.68381,-9.6562496 259.0625,-9.65625 C 239.8574,-9.65625 222.07139,18.268248 222.125,37.3125 C 222.1652,48.84635 229.5623,54.875 239.3125,54.875 C 256.7609,54.875 280.3711,36.08203 289.625,22 C 287.0901,29.2422 282.4241,39.428389 282.4375,42.78125 C 282.4509,45.99999 284.76095,46.406251 286.34375,46.40625 C 291.60095,46.40625 292.63489,42.937488 295.0625,36.5 C 295.7733,34.62238 296.30246,32.743499 297.28125,31 C 309.16375,9.2735 319.52519,4.7187502 323.75,4.71875 C 325.2654,4.71875 326.46876,5.9023804 326.46875,8.71875 C 326.49555,14.88801 315.08036,34.75522 315.09375,40.65625 C 315.10715,41.86327 316.32409,43.0625 317.625,43.0625 C 320.3206,43.0625 324.72961,41.97915 326.5,37.6875 C 329.504,30.17711 330.90555,27.764301 334.40625,20.65625 C 337.57145,15.42577 348.14144,5.2499999 352.59375,5.25 C 354.59205,5.25 355.31249,6.3099198 355.3125,8.1875 C 355.3259,10.19923 352.21515,18.38931 351.53125,20.9375 C 349.78755,27.24087 346.85785,33.678389 346.46875,40.25 C 346.20075,44.67576 348.49666,49.218751 353.96875,49.21875 C 362.29705,49.21875 371.36841,39.726568 376.25,34.09375 C 378.4229,31.54557 377.92241,31.809881 379.0625,30.46875 C 372.142,45.22131 373.95999,44.135429 367.375,59.15625 C 356.2837,84.36972 346.57339,105.01825 319.1875,117.625 C 318.7046,117.75911 318.65624,118.04427 318.65625,118.3125 C 318.65625,118.71487 319.27204,118.71875 319.59375,118.71875 C 321.53835,118.71875 325.00641,117.24217 326.75,116.4375 C 352.8756,103.96486 364.13089,85.43746 376,59.6875 C 384.0468,42.11853 385.15416,36.89711 393.28125,20.9375 C 396.94275,13.82944 400.77655,3.6250001 410.59375,3.625 C 413.75845,3.625 415.89284,7.5273401 415.90625,10.34375 C 415.91965,15.03774 411.35635,21.191421 408.78125,24.8125 C 403.59105,32.18882 398.04275,36.09117 389.96875,41.1875 C 388.66785,41.99217 388.32125,43.592461 388.46875,44.53125 C 388.69655,46.14065 391.19399,46.406251 392.75,46.40625 C 396.7734,46.40625 398.5976,44.40883 401.9375,42.53125 C 414.906,38.37368 428.52911,27.507811 439.6875,18.65625 C 438.3731,21.87499 432.2857,32.481789 432.3125,39.1875 C 432.3259,44.14972 437.05981,46.000001 438.9375,46 C 449.2912,46 462.04266,32.73438 469.96875,24.6875 C 474.48855,20.26174 479.61496,14.22915 483.71875,9.9375 C 480.16485,19.72785 471.47979,35.02735 466.625,44.28125 C 465.7534,46.02475 467.35985,47.218751 468.59375,47.21875 C 472.16105,47.21875 477.01569,45.736969 478.8125,42.25 C 480.6902,38.62887 486.998,26.96355 488.5,24.28125 C 492.014,18.11199 499.5338,6.8437501 507.3125,6.84375 C 509.2035,6.84375 510.65275,8.7382702 509.96875,10.75 C 506.45505,20.67446 503.46885,26.031268 503.28125,35.6875 C 503.17395,41.05205 506.16604,45.75 511.90625,45.75 C 523.23875,45.75 536.17145,30.330719 541.28125,23.625 C 543.01115,21.34504 547.06892,14.89189 548.71875,12.34375 C 549.57695,15.69661 551.27919,17.98827 552.875,20 C 555.3696,23.35285 564.09452,29.798188 563.625,33.6875 C 563.0352,38.64971 557.24393,39.718748 555.125,39.71875 C 547.1181,39.71875 544.45048,34.468749 541.3125,34.46875 C 539.5287,34.46875 537.11157,35.291659 537.125,37.4375 C 537.125,39.04689 537.86877,39.976569 539.15625,40.78125 C 543.50175,43.59765 548.15367,44.125 553.15625,44.125 C 563.28175,43.99088 570.31243,37.4362 570.40625,28.71875 C 570.48675,21.47659 567.78658,19.73439 563.9375,14.90625 C 561.6711,11.95573 556.63841,7.6614501 556.625,3.90625 C 556.6116,-1.19011 559.95507,-3.7500001 563.46875,-3.75 C 565.21235,-3.75 566.75192,-3.47395 568.5625,-2.9375 C 570.7618,0.01302 574.77148,1.75 578.5,1.75 C 580.8204,1.75 587.99521,0.96220985 591.5625,-4 L 591.15625,-5.5 C 589.50685,-4.82944 588.0249,-4.4062502 586.1875,-4.40625 C 582.0301,-4.27213 574.35714,-6.7031098 574.34375,-11.53125 C 574.33035,-16.76169 580.09807,-21.571609 583.53125,-24.65625 C 597.61315,-37.39708 606.14437,-46.122389 621.21875,-57.65625 C 604.53515,-23.18884 587.6271,14.093812 573.25,49.5 C 573.25,49.5 576.21347,49.781251 576.84375,49.78125 C 584.47465,49.78125 588.14447,37.84241 590.34375,32.34375 C 592.83835,26.04037 597.21507,16.10677 599.9375,9.9375 C 599.6289,11.54686 599.61159,13.14976 599.625,14.625 C 599.6786,29.77993 611.79494,46.41536 627.78125,46.28125 C 642.14495,46.28125 658.3752,34.200511 668.125,24.8125 C 667.0925,28.16536 666.11159,30.042989 666.125,34.46875 C 666.1518,40.90624 672.09534,44.812501 677.40625,44.8125 C 684.07175,44.67839 692.91676,40.929668 698.28125,36.90625 C 705.00075,31.944 727.90178,11.28253 727.875,3.90625 C 727.875,3.77214 727.84864,2.8437499 727.40625,2.84375 C 726.73575,2.84375 725.83062,4.5664098 725.5625,4.96875 C 720.1578,13.55209 705.71612,27.095051 697.9375,32.59375 C 694.8393,34.73956 687.82698,38.249999 683.84375,38.25 C 680.15585,38.38411 677.47783,36.488261 677.4375,32.0625 C 677.3165,17.3099 697.38841,-2.2786702 697.375,-7.375 C 697.3616,-8.85028 696.10815,-8.9778599 695.34375,-8.84375 C 693.01005,-8.3073 693.44542,-8.2864898 691.125,-7.75 C 687.8664,-7.07943 686.14455,-5.4883102 685.03125,-4.28125 C 680.78005,0.27862 674.3814,11.96352 669.6875,18.9375 C 667.9036,21.61976 648.71437,38.647092 635.90625,38.78125 C 625.66015,38.78125 619.23943,35.2708 613.96875,26.6875 C 611.05865,21.85936 609.66963,14.49609 609.65625,10.875 C 609.64245,9.26565 609.85422,7.5155999 612.09375,5.90625 C 618.33025,1.21223 633.93749,-7.6250002 633.9375,-7.625 C 633.9375,-7.625 635.07762,-8.4362105 633.9375,-9.375 C 632.7979,-10.4479 633.23592,-10.96875 630.5,-10.96875 C 627.8848,-10.96875 626.12286,-8.1653502 621.46875,-4.8125 C 617.13705,-1.72786 607.85878,2.5625104 600.375,9 C 611.0508,-13.53121 621.4358,-35.799511 632.125,-58.0625 C 634.1501,-62.22004 636.55917,-66.248713 638.8125,-70.40625 C 642.7689,-77.5143 651.42433,-83.821628 651.15625,-90.125 C 651.11605,-91.33206 650.37667,-92.000001 649.34375,-92 z M 704,-53.21875 C 701.8677,-53.21875 694.21872,-47.06116 694.21875,-44.78125 C 694.21875,-43.30597 695.15871,-42.218751 696.6875,-42.21875 C 700.0135,-42.21875 706.66963,-47.45053 706.65625,-50.9375 C 706.65625,-52.27867 705.2607,-53.218749 704,-53.21875 z M 474.40625,-40.34375 C 472.28735,-40.20964 465.73194,-34.311161 465.90625,-32.03125 C 466.01345,-30.55597 467.03369,-29.49088 468.5625,-29.625 C 471.8751,-29.89322 477.47344,-34.73178 477.21875,-38.21875 C 477.11155,-39.55988 475.65356,-40.343752 474.40625,-40.34375 z M 254.46875,-2.40625 C 256.29275,-2.40625 257.14284,-1.33725 257.15625,0.40625 C 257.18305,8.45309 241.08655,26.709641 233.46875,26.84375 C 234.97105,18.52865 247.03894,-2.4062501 254.46875,-2.40625 z "
         transform="translate(977.90657,345.04786)"
         style="fill:#1b458e;fill-rule:nonzero;stroke:none"
         id="path10109" />
      <path
         d="M 1142.4218,519.81251 C 1142.5157,519.81251 1142.6233,519.6784 1142.6233,519.54428 L 1142.6233,518.87372 C 1142.6233,513.64328 1142.6233,512.57034 1142.5563,511.49744 C 1142.4889,510.29043 1142.2074,509.75393 1141.0807,509.61982 C 1140.7992,509.48571 1140.2225,509.48571 1139.7396,509.48571 C 1139.3643,509.48571 1139.1494,509.3516 1139.1494,509.21748 C 1139.1494,508.94926 1139.3911,508.81515 1139.8736,508.81515 C 1141.7245,508.81515 1143.8974,508.94926 1144.8226,508.94926 C 1145.6406,508.94926 1147.8136,508.81515 1149.1413,508.81515 C 1149.6238,508.81515 1149.8655,508.94926 1149.8655,509.21748 C 1149.8655,509.3516 1149.664,509.48571 1149.2485,509.48571 C 1148.98,509.48571 1148.6718,509.48571 1148.2559,509.61982 C 1147.3306,509.75393 1147.0488,510.29043 1146.9818,511.49744 C 1146.9147,512.57034 1146.9147,513.64328 1146.9147,518.87372 L 1146.9147,524.90887 C 1146.9147,527.9935 1146.9147,530.6758 1147.089,532.15104 C 1147.1832,533.08983 1147.3977,533.89454 1148.4301,534.02866 C 1148.8996,534.16277 1149.664,534.16277 1150.1737,534.16277 C 1150.5494,534.16277 1150.7237,534.29688 1150.7237,534.43099 C 1150.7237,534.69922 1150.4556,534.83333 1150.0397,534.83333 C 1147.8136,534.83333 1145.6406,534.69922 1144.6886,534.69922 C 1143.8974,534.69922 1141.7245,534.83333 1140.3967,534.83333 C 1139.9138,534.83333 1139.6726,534.69922 1139.6726,534.43099 C 1139.6726,534.29688 1139.8066,534.16277 1140.2225,534.16277 C 1140.7322,534.16277 1141.1477,534.16277 1141.4564,534.02866 C 1142.1404,533.89454 1142.3146,533.08983 1142.4486,532.15104 C 1142.6233,530.6758 1142.6233,527.9935 1142.6233,524.90887 L 1142.6233,521.82424 C 1142.6233,521.69013 1142.5157,521.69013 1142.4218,521.69013 L 1129.3054,521.69013 C 1129.1982,521.69013 1129.091,521.69013 1129.091,521.82424 L 1129.091,524.90887 C 1129.091,527.9935 1129.091,530.6758 1129.2652,532.15104 C 1129.3725,533.08983 1129.5739,533.89454 1130.6064,534.02866 C 1131.0893,534.16277 1131.8403,534.16277 1132.3634,534.16277 C 1132.7391,534.16277 1132.9133,534.29688 1132.9133,534.43099 C 1132.9133,534.69922 1132.6315,534.83333 1132.2159,534.83333 C 1129.9894,534.83333 1127.8303,534.69922 1126.8648,534.69922 C 1126.0733,534.69922 1123.9141,534.83333 1122.5462,534.83333 C 1122.0901,534.83333 1121.8488,534.69922 1121.8488,534.43099 C 1121.8488,534.29688 1121.9963,534.16277 1122.3988,534.16277 C 1122.9219,534.16277 1123.324,534.16277 1123.6327,534.02866 C 1124.33,533.89454 1124.4909,533.08983 1124.6383,532.15104 C 1124.7991,530.6758 1124.7991,527.9935 1124.7991,524.90887 L 1124.7991,518.87372 C 1124.7991,513.64328 1124.7991,512.57034 1124.7321,511.49744 C 1124.6651,510.29043 1124.397,509.75393 1123.257,509.61982 C 1122.9889,509.48571 1122.3988,509.48571 1121.9158,509.48571 C 1121.5405,509.48571 1121.3391,509.3516 1121.3391,509.21748 C 1121.3391,508.94926 1121.5808,508.81515 1122.0633,508.81515 C 1123.9141,508.81515 1126.0733,508.94926 1126.9989,508.94926 C 1127.8303,508.94926 1129.9894,508.81515 1131.3305,508.81515 C 1131.8135,508.81515 1132.0551,508.94926 1132.0551,509.21748 C 1132.0551,509.3516 1131.8403,509.48571 1131.4248,509.48571 C 1131.1563,509.48571 1130.848,509.48571 1130.4321,509.61982 C 1129.5069,509.75393 1129.2384,510.29043 1129.1714,511.49744 C 1129.091,512.57034 1129.091,513.64328 1129.091,518.87372 L 1129.091,519.54428 C 1129.091,519.6784 1129.1982,519.81251 1129.3054,519.81251 L 1142.4218,519.81251"
         style="fill:#1b458e;fill-rule:nonzero;stroke:none"
         id="path10117" />
      <path
         d="M 1158.556,521.82424 C 1158.556,515.9232 1162.4319,508.41281 1172.7316,508.41281 C 1181.2747,508.41281 1186.5994,513.37506 1186.5994,521.15367 C 1186.5994,529.06641 1181.1005,535.23567 1172.3831,535.23567 C 1162.5391,535.23567 1158.556,527.85939 1158.556,521.82424 z M 1181.7978,522.4948 C 1181.7978,514.71618 1177.3586,510.0222 1171.7394,510.0222 C 1167.783,510.0222 1163.2901,512.168 1163.2901,520.75134 C 1163.2901,527.85939 1167.2331,533.62632 1173.8315,533.62632 C 1176.2323,533.62632 1181.7978,532.41926 1181.7978,522.4948"
         style="fill:#1b458e;fill-rule:nonzero;stroke:none"
         id="path10119" />
      <path
         d="M 1202.8672,510.82688 L 1197.7573,510.96099 C 1195.7725,510.96099 1194.9411,511.0951 1194.4313,511.89978 C 1194.0828,512.43623 1193.9086,512.83857 1193.8416,513.10679 C 1193.7742,513.37506 1193.6669,513.50917 1193.4659,513.50917 C 1193.2246,513.50917 1193.1572,513.37506 1193.1572,512.97268 C 1193.1572,512.43623 1193.8144,509.3516 1193.8818,508.94926 C 1193.9756,508.54692 1194.0828,508.41281 1194.2839,508.41281 C 1194.5658,508.41281 1194.9142,508.68103 1195.7725,508.81515 C 1196.7651,508.81515 1198.066,508.94926 1199.1927,508.94926 L 1212.7916,508.94926 C 1214.9913,508.94926 1215.8093,508.54692 1216.0908,508.54692 C 1216.3325,508.54692 1216.3593,508.81515 1216.3593,509.3516 C 1216.3593,510.0222 1216.2655,512.43623 1216.2655,513.37506 C 1216.2252,513.64328 1216.1578,513.91151 1215.9568,513.91151 C 1215.6753,513.91151 1215.6083,513.64328 1215.5815,513.24094 L 1215.5413,512.83857 C 1215.4739,511.89978 1214.5486,510.96099 1211.4907,510.82688 L 1207.159,510.82688 L 1207.159,524.90887 C 1207.159,527.9935 1207.159,530.6758 1207.3333,532.15104 C 1207.4405,533.08983 1207.6419,533.89454 1208.6744,534.02866 C 1209.1573,534.16277 1209.9083,534.16277 1210.4314,534.16277 C 1210.8067,534.16277 1210.9814,534.29688 1210.9814,534.43099 C 1210.9814,534.69922 1210.6995,534.83333 1210.3242,534.83333 C 1208.0575,534.83333 1205.8983,534.69922 1204.9325,534.69922 C 1204.1413,534.69922 1201.9822,534.83333 1200.6008,534.83333 C 1200.1581,534.83333 1199.9169,534.69922 1199.9169,534.43099 C 1199.9169,534.29688 1200.0509,534.16277 1200.4668,534.16277 C 1200.9895,534.16277 1201.392,534.16277 1201.7003,534.02866 C 1202.3981,533.89454 1202.5991,533.08983 1202.7063,532.15104 C 1202.8672,530.6758 1202.8672,527.9935 1202.8672,524.90887 L 1202.8672,510.82688"
         style="fill:#1b458e;fill-rule:nonzero;stroke:none"
         id="path10121" />
      <path
         d="M 1230.991,518.87372 C 1230.991,513.64328 1230.991,512.57034 1230.924,511.49744 C 1230.857,510.29043 1230.5885,509.75393 1229.4489,509.61982 C 1229.1804,509.48571 1228.5903,509.48571 1228.1077,509.48571 C 1227.732,509.48571 1227.531,509.3516 1227.531,509.21748 C 1227.531,508.94926 1227.7723,508.81515 1228.282,508.81515 C 1230.106,508.81515 1232.2652,508.94926 1233.2306,508.94926 C 1234.3305,508.94926 1241.1571,508.94926 1241.8143,508.94926 C 1242.4576,508.81515 1243.0076,508.81515 1243.2894,508.68103 C 1243.4637,508.68103 1243.6647,508.54692 1243.8394,508.54692 C 1244.0136,508.54692 1244.0404,508.68103 1244.0404,508.81515 C 1244.0404,509.08337 1243.8662,509.48571 1243.772,511.0951 C 1243.7318,511.49744 1243.6647,512.97268 1243.5977,513.37506 C 1243.5575,513.50917 1243.4905,513.7774 1243.2492,513.7774 C 1243.0076,513.7774 1242.9406,513.64328 1242.9406,513.24094 C 1242.9406,512.97268 1242.9138,512.43623 1242.7395,512.03389 C 1242.4982,511.49744 1242.1494,510.96099 1240.4325,510.82688 C 1239.8562,510.69276 1236.2483,510.69276 1235.5644,510.69276 C 1235.3901,510.69276 1235.3231,510.82688 1235.3231,510.96099 L 1235.3231,519.6784 C 1235.3231,519.94666 1235.3633,520.08077 1235.5644,520.08077 C 1236.3153,520.08077 1240.2717,520.08077 1241.0495,520.08077 C 1241.8813,519.94666 1242.3906,519.81251 1242.6993,519.54428 C 1242.9406,519.27606 1243.088,519.00783 1243.2492,519.00783 C 1243.3967,519.00783 1243.4905,519.14194 1243.4905,519.27606 C 1243.4905,519.54428 1243.3162,520.08077 1243.2224,521.82424 C 1243.1554,522.4948 1243.088,523.83597 1243.088,524.10419 C 1243.088,524.37242 1243.088,524.77476 1242.7663,524.77476 C 1242.5385,524.77476 1242.4576,524.64065 1242.4576,524.50653 C 1242.4308,524.10419 1242.4308,523.70186 1242.3236,523.16541 C 1242.1494,522.4948 1241.6799,522.09246 1240.4057,521.82424 C 1239.7486,521.82424 1236.3556,521.82424 1235.5241,521.82424 C 1235.3633,521.82424 1235.3231,521.95835 1235.3231,522.09246 L 1235.3231,524.90887 C 1235.3231,525.98177 1235.2829,529.20052 1235.3231,530.13935 C 1235.3901,532.55338 1235.94,533.08983 1239.4403,533.08983 C 1240.3387,533.08983 1241.7737,533.08983 1242.6725,532.68749 C 1243.5575,532.28515 1243.9734,531.48047 1244.2147,530.13935 C 1244.2817,529.73697 1244.3487,529.60286 1244.5904,529.60286 C 1244.8718,529.60286 1244.8718,529.87112 1244.8718,530.13935 C 1244.8718,530.94402 1244.5904,533.35809 1244.4157,534.02866 C 1244.1745,534.96744 1243.8662,534.96744 1242.5653,534.96744 C 1237.3884,534.96744 1235.0814,534.69922 1233.0563,534.69922 C 1232.2652,534.69922 1230.106,534.83333 1228.7381,534.83333 C 1228.282,534.83333 1228.0407,534.69922 1228.0407,534.43099 C 1228.0407,534.29688 1228.1882,534.16277 1228.5903,534.16277 C 1229.1134,534.16277 1229.5159,534.16277 1229.8242,534.02866 C 1230.5215,533.89454 1230.6828,533.08983 1230.8302,532.15104 C 1230.991,530.6758 1230.991,527.9935 1230.991,524.90887 L 1230.991,518.87372"
         style="fill:#1b458e;fill-rule:nonzero;stroke:none"
         id="path10123" />
      <path
         d="M 1265.9814,524.90887 C 1265.9814,529.20052 1265.9814,531.61459 1266.7056,532.28515 C 1267.2823,532.68749 1268.1811,532.95571 1270.8634,532.95571 C 1272.6736,532.95571 1274.0151,532.95571 1274.8733,532.01692 C 1275.2889,531.61459 1275.7048,530.6758 1275.7718,530.00523 C 1275.7986,529.60286 1275.8656,529.46874 1276.1475,529.46874 C 1276.3887,529.46874 1276.4155,529.60286 1276.4155,530.00523 C 1276.4155,530.40757 1276.1743,532.95571 1275.9058,534.02866 C 1275.7048,534.69922 1275.5305,534.96744 1273.7467,534.96744 C 1268.7981,534.96744 1266.5313,534.69922 1263.7552,534.69922 C 1262.964,534.69922 1260.8045,534.83333 1259.4232,534.83333 C 1258.9809,534.83333 1258.7392,534.69922 1258.7392,534.43099 C 1258.7392,534.29688 1258.8732,534.16277 1259.2891,534.16277 C 1259.7989,534.16277 1260.2148,534.16277 1260.523,534.02866 C 1261.207,533.89454 1261.3813,533.08983 1261.5153,532.15104 C 1261.6899,530.6758 1261.6899,527.9935 1261.6899,524.90887 L 1261.6899,518.87372 C 1261.6899,513.64328 1261.6899,512.57034 1261.6229,511.49744 C 1261.5559,510.29043 1261.274,509.75393 1260.1474,509.61982 C 1259.8793,509.48571 1259.4634,509.48571 1259.0077,509.48571 C 1258.632,509.48571 1258.4309,509.3516 1258.4309,509.21748 C 1258.4309,508.94926 1258.6722,508.81515 1259.1819,508.81515 C 1260.8045,508.81515 1262.964,508.94926 1263.8893,508.94926 C 1264.7073,508.94926 1267.2153,508.81515 1268.5564,508.81515 C 1269.0393,508.81515 1269.2806,508.94926 1269.2806,509.21748 C 1269.2806,509.3516 1269.0795,509.48571 1268.6636,509.48571 C 1268.2883,509.48571 1267.7384,509.48571 1267.3225,509.61982 C 1266.3973,509.75393 1266.1154,510.29043 1266.0484,511.49744 C 1265.9814,512.57034 1265.9814,513.64328 1265.9814,518.87372 L 1265.9814,524.90887"
         style="fill:#1b458e;fill-rule:nonzero;stroke:none"
         id="path10125" />
      <path
         d="M 1289.5721,534.43099 C 1289.0222,534.16277 1288.9284,534.02866 1288.9284,533.22398 C 1288.9284,531.34636 1289.0624,529.33463 1289.1026,528.66407 C 1289.1298,528.26173 1289.237,527.85939 1289.5051,527.85939 C 1289.8138,527.85939 1289.854,528.12762 1289.854,528.39584 C 1289.854,528.93229 1289.988,529.60286 1290.1623,530.13935 C 1290.9133,532.68749 1292.9384,533.62632 1295.0711,533.62632 C 1298.1554,533.62632 1299.6712,531.61459 1299.6712,529.73697 C 1299.6712,527.9935 1299.1615,526.38411 1296.3046,524.23831 L 1294.7222,523.03125 C 1290.9535,520.08077 1289.6392,517.6667 1289.6392,514.8503 C 1289.6392,511.0951 1292.8043,508.41281 1297.5787,508.41281 C 1299.8052,508.41281 1301.2536,508.68103 1302.1386,508.94926 C 1302.4473,508.94926 1302.6215,509.08337 1302.6215,509.3516 C 1302.6215,509.75393 1302.4875,510.82688 1302.4875,513.50917 C 1302.4875,514.17973 1302.3803,514.58207 1302.1118,514.58207 C 1301.8705,514.58207 1301.7633,514.31385 1301.7633,513.91151 C 1301.7633,513.64328 1301.5887,512.57034 1300.8779,511.63155 C 1300.3552,510.96099 1299.3625,509.88809 1297.123,509.88809 C 1294.5882,509.88809 1293.0456,511.49744 1293.0456,513.50917 C 1293.0456,515.11852 1293.8372,516.32554 1296.6803,518.47138 L 1297.6457,519.14194 C 1301.7633,522.36069 1303.2787,524.64065 1303.2787,527.85939 C 1303.2787,529.87112 1302.5143,532.28515 1300.0465,533.89454 C 1298.3301,534.96744 1296.4122,535.23567 1294.5882,535.23567 C 1292.6033,535.23567 1291.0473,535.10156 1289.5721,534.43099"
         style="fill:#1b458e;fill-rule:nonzero;stroke:none"
         id="path10127" />
      <path
         d="M 1345.1895,519.54428 C 1343.7545,517.6667 1343.4727,516.19142 1343.4459,514.71618 C 1343.4057,512.03389 1345.8199,508.41281 1351.7879,508.41281 C 1353.4641,508.41281 1355.0201,508.68103 1355.9453,509.08337 C 1356.5221,509.3516 1356.5221,509.61982 1356.5221,510.0222 C 1356.5221,511.0951 1356.254,513.91151 1356.1464,514.31385 C 1356.0794,514.8503 1355.9453,514.98441 1355.7309,514.98441 C 1355.5298,514.98441 1355.4892,514.8503 1355.4892,514.31385 C 1355.4892,513.37506 1355.248,512.30212 1354.497,511.49744 C 1353.813,510.55865 1352.6059,509.88809 1350.688,509.88809 C 1349.2531,509.88809 1347.0135,510.82688 1347.0135,513.7774 C 1347.0135,516.99614 1349.9639,519.81251 1352.7131,522.76303 C 1353.88,524.10419 1358.1045,527.9935 1358.7616,528.52995 C 1359.4456,527.59117 1360.398,525.31121 1360.398,523.29952 C 1360.398,522.76303 1360.264,522.09246 1359.7543,521.69013 C 1359.3115,521.28779 1358.5874,521.15367 1358.0642,521.15367 C 1357.8632,521.15367 1357.6621,521.15367 1357.6621,520.88545 C 1357.6621,520.61722 1357.9302,520.61722 1358.2121,520.61722 C 1359.0301,520.61722 1360.398,520.61722 1362.3293,520.75134 C 1362.973,520.88545 1363.4962,521.01956 1363.4962,521.4219 C 1363.4962,524.10419 1362.088,527.32294 1360.1299,529.60286 C 1362.4365,531.48047 1363.9787,532.41926 1364.9043,532.95571 C 1366.0038,533.62632 1367.8948,534.16277 1368.5788,534.16277 C 1368.8875,534.16277 1369.0617,534.16277 1369.0617,534.43099 C 1369.0617,534.69922 1368.7803,534.83333 1368.0293,534.83333 L 1365.3872,534.83333 C 1361.4711,534.83333 1360.2372,534.43099 1357.2865,532.15104 C 1356.1464,533.22398 1353.8532,535.23567 1349.1459,535.23567 C 1341.7965,535.23567 1339.5967,530.6758 1339.5967,527.72528 C 1339.5967,523.70186 1343.1376,520.61722 1345.1895,519.54428 z M 1355.9453,531.07814 C 1353.947,529.33463 1350.6478,526.11589 1349.7628,525.1771 C 1348.864,524.23831 1346.6781,521.69013 1346.0879,520.88545 C 1344.921,521.69013 1343.7143,523.29952 1343.7143,526.11589 C 1343.7143,530.40757 1346.7451,533.08983 1350.3127,533.08983 C 1352.9548,533.08983 1355.2211,531.7487 1355.9453,531.07814"
         style="fill:#1b458e;fill-rule:nonzero;stroke:none"
         id="path10129" />
      <path
         d="M 1402.3088,518.87372 C 1402.3088,513.64328 1402.3088,512.57034 1402.2418,511.49744 C 1402.1744,510.29043 1401.8929,509.75393 1400.7663,509.61982 C 1400.4848,509.48571 1399.908,509.48571 1399.4251,509.48571 C 1399.0498,509.48571 1398.835,509.3516 1398.835,509.21748 C 1398.835,508.94926 1399.0766,508.81515 1399.5998,508.81515 C 1401.41,508.81515 1403.5829,508.94926 1404.2937,508.94926 C 1405.4602,508.94926 1408.0754,508.81515 1409.1351,508.81515 C 1411.3076,508.81515 1413.6012,509.08337 1415.452,510.29043 C 1416.4175,510.96099 1417.7854,512.70445 1417.7854,514.98441 C 1417.7854,517.53259 1416.7261,519.94666 1413.2657,522.76303 C 1416.3102,526.51826 1418.6842,529.60286 1420.7093,531.7487 C 1422.6272,533.76043 1424.0353,534.02866 1424.5585,534.02866 C 1424.9338,534.16277 1425.2424,534.16277 1425.5105,534.16277 C 1425.792,534.16277 1425.9264,534.29688 1425.9264,534.43099 C 1425.9264,534.69922 1425.6847,534.83333 1425.2692,534.83333 L 1422.0102,534.83333 C 1420.0924,534.83333 1419.2338,534.69922 1418.3353,534.16277 C 1416.8602,533.35809 1415.5593,531.7487 1413.6414,529.06641 C 1412.2601,527.18883 1410.6907,524.90887 1410.235,524.37242 C 1410.0603,524.10419 1409.8593,524.10419 1409.618,524.10419 L 1406.6405,524.10419 C 1406.4662,524.10419 1406.359,524.10419 1406.359,524.37242 L 1406.359,524.77476 C 1406.359,527.9935 1406.359,530.6758 1406.5333,532.15104 C 1406.6405,533.08983 1406.8419,533.89454 1407.8744,534.02866 C 1408.3841,534.16277 1409.1351,534.16277 1409.551,534.16277 C 1409.8325,534.16277 1409.9665,534.29688 1409.9665,534.43099 C 1409.9665,534.69922 1409.7252,534.83333 1409.2825,534.83333 C 1407.2842,534.83333 1404.7494,534.69922 1404.2267,534.69922 C 1403.5829,534.69922 1401.41,534.83333 1400.0421,534.83333 C 1399.5998,534.83333 1399.3581,534.69922 1399.3581,534.43099 C 1399.3581,534.29688 1399.4921,534.16277 1399.908,534.16277 C 1400.4178,534.16277 1400.8333,534.16277 1401.1419,534.02866 C 1401.8259,533.89454 1402.0002,533.08983 1402.1342,532.15104 C 1402.3088,530.6758 1402.3088,527.9935 1402.3088,524.90887 L 1402.3088,518.87372 z M 1406.359,521.55601 C 1406.359,521.82424 1406.426,522.09246 1406.6673,522.09246 C 1407.3915,522.36069 1408.4243,522.4948 1409.2825,522.4948 C 1410.6505,522.4948 1411.0932,522.36069 1411.7101,521.82424 C 1412.743,521.15367 1413.7352,519.54428 1413.7352,516.72792 C 1413.7352,511.89978 1410.5164,510.42454 1408.4913,510.42454 C 1407.6331,510.42454 1407.0162,510.42454 1406.6673,510.55865 C 1406.426,510.69276 1406.359,510.82688 1406.359,511.0951 L 1406.359,521.55601"
         style="fill:#1b458e;fill-rule:nonzero;stroke:none"
         id="path10131" />
      <path
         d="M 1437.9161,518.87372 C 1437.9161,513.64328 1437.9161,512.57034 1437.8491,511.49744 C 1437.7821,510.29043 1437.5002,509.75393 1436.3739,509.61982 C 1436.0921,509.48571 1435.5153,509.48571 1435.0324,509.48571 C 1434.6571,509.48571 1434.4427,509.3516 1434.4427,509.21748 C 1434.4427,508.94926 1434.6839,508.81515 1435.2071,508.81515 C 1437.0173,508.81515 1439.1902,508.94926 1440.1423,508.94926 C 1441.2421,508.94926 1448.0684,508.94926 1448.7256,508.94926 C 1449.3827,508.81515 1449.9326,508.81515 1450.2011,508.68103 C 1450.3754,508.68103 1450.5764,508.54692 1450.7507,508.54692 C 1450.9253,508.54692 1450.9655,508.68103 1450.9655,508.81515 C 1450.9655,509.08337 1450.7909,509.48571 1450.6836,511.0951 C 1450.6434,511.49744 1450.5764,512.97268 1450.5094,513.37506 C 1450.4826,513.50917 1450.4156,513.7774 1450.1743,513.7774 C 1449.9326,513.7774 1449.8656,513.64328 1449.8656,513.24094 C 1449.8656,512.97268 1449.8254,512.43623 1449.6512,512.03389 C 1449.4095,511.49744 1449.0744,510.96099 1447.3576,510.82688 C 1446.7675,510.69276 1443.16,510.69276 1442.476,510.69276 C 1442.3018,510.69276 1442.2344,510.82688 1442.2344,510.96099 L 1442.2344,519.6784 C 1442.2344,519.94666 1442.2746,520.08077 1442.476,520.08077 C 1443.2404,520.08077 1447.1834,520.08077 1447.9746,520.08077 C 1448.7926,519.94666 1449.3157,519.81251 1449.6244,519.54428 C 1449.8656,519.27606 1449.9997,519.00783 1450.1743,519.00783 C 1450.3083,519.00783 1450.4156,519.14194 1450.4156,519.27606 C 1450.4156,519.54428 1450.2413,520.08077 1450.1337,521.82424 C 1450.0667,522.4948 1449.9997,523.83597 1449.9997,524.10419 C 1449.9997,524.37242 1449.9997,524.77476 1449.6914,524.77476 C 1449.4497,524.77476 1449.3827,524.64065 1449.3827,524.50653 C 1449.3425,524.10419 1449.3425,523.70186 1449.2487,523.16541 C 1449.0744,522.4948 1448.5915,522.09246 1447.3174,521.82424 C 1446.6737,521.82424 1443.2672,521.82424 1442.4492,521.82424 C 1442.2746,521.82424 1442.2344,521.95835 1442.2344,522.09246 L 1442.2344,524.90887 C 1442.2344,525.98177 1442.2076,529.20052 1442.2344,530.13935 C 1442.3018,532.55338 1442.8513,533.08983 1446.3654,533.08983 C 1447.2504,533.08983 1448.6987,533.08983 1449.5842,532.68749 C 1450.4826,532.28515 1450.8851,531.48047 1451.1263,530.13935 C 1451.1934,529.73697 1451.2738,529.60286 1451.5154,529.60286 C 1451.7835,529.60286 1451.7835,529.87112 1451.7835,530.13935 C 1451.7835,530.94402 1451.5154,533.35809 1451.3408,534.02866 C 1451.0995,534.96744 1450.7909,534.96744 1449.4765,534.96744 C 1444.3001,534.96744 1441.9931,534.69922 1439.968,534.69922 C 1439.1902,534.69922 1437.0173,534.83333 1435.6494,534.83333 C 1435.2071,534.83333 1434.9654,534.69922 1434.9654,534.43099 C 1434.9654,534.29688 1435.0998,534.16277 1435.5153,534.16277 C 1436.0251,534.16277 1436.441,534.16277 1436.7492,534.02866 C 1437.4332,533.89454 1437.6074,533.08983 1437.7419,532.15104 C 1437.9161,530.6758 1437.9161,527.9935 1437.9161,524.90887 L 1437.9161,518.87372"
         style="fill:#1b458e;fill-rule:nonzero;stroke:none"
         id="path10133" />
      <path
         d="M 1466.04,534.43099 C 1465.49,534.16277 1465.3828,534.02866 1465.3828,533.22398 C 1465.3828,531.34636 1465.5168,529.33463 1465.5571,528.66407 C 1465.5839,528.26173 1465.6911,527.85939 1465.9596,527.85939 C 1466.2678,527.85939 1466.308,528.12762 1466.308,528.39584 C 1466.308,528.93229 1466.4421,529.60286 1466.6167,530.13935 C 1467.3677,532.68749 1469.3928,533.62632 1471.5251,533.62632 C 1474.6233,533.62632 1476.1252,531.61459 1476.1252,529.73697 C 1476.1252,527.9935 1475.6155,526.38411 1472.759,524.23831 L 1471.1896,523.03125 C 1467.4079,520.08077 1466.107,517.6667 1466.107,514.8503 C 1466.107,511.0951 1469.2588,508.41281 1474.0331,508.41281 C 1476.2593,508.41281 1477.7076,508.68103 1478.593,508.94926 C 1478.9013,508.94926 1479.0756,509.08337 1479.0756,509.3516 C 1479.0756,509.75393 1478.9415,510.82688 1478.9415,513.50917 C 1478.9415,514.17973 1478.8343,514.58207 1478.5662,514.58207 C 1478.3246,514.58207 1478.2173,514.31385 1478.2173,513.91151 C 1478.2173,513.64328 1478.0431,512.57034 1477.3323,511.63155 C 1476.8092,510.96099 1475.817,509.88809 1473.5904,509.88809 C 1471.0422,509.88809 1469.5,511.49744 1469.5,513.50917 C 1469.5,515.11852 1470.2912,516.32554 1473.1343,518.47138 L 1474.1001,519.14194 C 1478.2173,522.36069 1479.7327,524.64065 1479.7327,527.85939 C 1479.7327,529.87112 1478.9817,532.28515 1476.5009,533.89454 C 1474.7841,534.96744 1472.8662,535.23567 1471.0422,535.23567 C 1469.0573,535.23567 1467.5151,535.10156 1466.04,534.43099"
         style="fill:#1b458e;fill-rule:nonzero;stroke:none"
         id="path10135" />
      <path
         d="M 1491.0925,521.82424 C 1491.0925,515.9232 1494.9818,508.41281 1505.2816,508.41281 C 1513.8246,508.41281 1519.1489,513.37506 1519.1489,521.15367 C 1519.1489,529.06641 1513.6504,535.23567 1504.9331,535.23567 C 1495.0757,535.23567 1491.0925,527.85939 1491.0925,521.82424 z M 1514.3344,522.4948 C 1514.3344,514.71618 1509.9085,510.0222 1504.2759,510.0222 C 1500.3329,510.0222 1495.84,512.168 1495.84,520.75134 C 1495.84,527.85939 1499.783,533.62632 1506.368,533.62632 C 1508.7822,533.62632 1514.3344,532.41926 1514.3344,522.4948"
         style="fill:#1b458e;fill-rule:nonzero;stroke:none"
         id="path10137" />
      <path
         d="M 1531.5412,518.87372 C 1531.5412,513.64328 1531.5412,512.57034 1531.4741,511.49744 C 1531.4071,510.29043 1531.1257,509.75393 1529.999,509.61982 C 1529.7175,509.48571 1529.1408,509.48571 1528.6579,509.48571 C 1528.2822,509.48571 1528.0677,509.3516 1528.0677,509.21748 C 1528.0677,508.94926 1528.309,508.81515 1528.8321,508.81515 C 1530.6427,508.81515 1532.8153,508.94926 1533.526,508.94926 C 1534.6929,508.94926 1537.3082,508.81515 1538.3678,508.81515 C 1540.5403,508.81515 1542.8335,509.08337 1544.6844,510.29043 C 1545.6502,510.96099 1547.0181,512.70445 1547.0181,514.98441 C 1547.0181,517.53259 1545.9585,519.94666 1542.485,522.76303 C 1545.543,526.51826 1547.9166,529.60286 1549.9416,531.7487 C 1551.8595,533.76043 1553.2677,534.02866 1553.7908,534.02866 C 1554.1665,534.16277 1554.4748,534.16277 1554.7432,534.16277 C 1555.0247,534.16277 1555.1587,534.29688 1555.1587,534.43099 C 1555.1587,534.69922 1554.9175,534.83333 1554.5016,534.83333 L 1551.2426,534.83333 C 1549.3247,534.83333 1548.4665,534.69922 1547.5681,534.16277 C 1546.0925,533.35809 1544.7916,531.7487 1542.8741,529.06641 C 1541.4924,527.18883 1539.91,524.90887 1539.4673,524.37242 C 1539.293,524.10419 1539.092,524.10419 1538.8503,524.10419 L 1535.8598,524.10419 C 1535.699,524.10419 1535.5913,524.10419 1535.5913,524.37242 L 1535.5913,524.77476 C 1535.5913,527.9935 1535.5913,530.6758 1535.766,532.15104 C 1535.8598,533.08983 1536.0743,533.89454 1537.0937,534.02866 C 1537.6168,534.16277 1538.3678,534.16277 1538.7833,534.16277 C 1539.0518,534.16277 1539.1992,534.29688 1539.1992,534.43099 C 1539.1992,534.69922 1538.958,534.83333 1538.5019,534.83333 C 1536.517,534.83333 1533.9822,534.69922 1533.459,534.69922 C 1532.8153,534.69922 1530.6427,534.83333 1529.2748,534.83333 C 1528.8321,534.83333 1528.5908,534.69922 1528.5908,534.43099 C 1528.5908,534.29688 1528.7249,534.16277 1529.1408,534.16277 C 1529.6501,534.16277 1530.066,534.16277 1530.3747,534.02866 C 1531.0586,533.89454 1531.2329,533.08983 1531.3669,532.15104 C 1531.5412,530.6758 1531.5412,527.9935 1531.5412,524.90887 L 1531.5412,518.87372 z M 1535.5913,521.55601 C 1535.5913,521.82424 1535.6588,522.09246 1535.9,522.09246 C 1536.6242,522.36069 1537.6436,522.4948 1538.5019,522.4948 C 1539.8832,522.4948 1540.3259,522.36069 1540.9428,521.82424 C 1541.9753,521.15367 1542.9679,519.54428 1542.9679,516.72792 C 1542.9679,511.89978 1539.7492,510.42454 1537.7241,510.42454 C 1536.8655,510.42454 1536.2485,510.42454 1535.9,510.55865 C 1535.6588,510.69276 1535.5913,510.82688 1535.5913,511.0951 L 1535.5913,521.55601"
         style="fill:#1b458e;fill-rule:nonzero;stroke:none"
         id="path10139" />
      <path
         d="M 1570.3404,510.82688 L 1565.2176,510.96099 C 1563.2327,510.96099 1562.4009,511.0951 1561.8912,511.89978 C 1561.5427,512.43623 1561.3818,512.83857 1561.3148,513.10679 C 1561.234,513.37506 1561.1402,513.50917 1560.9257,513.50917 C 1560.6979,513.50917 1560.6174,513.37506 1560.6174,512.97268 C 1560.6174,512.43623 1561.2746,509.3516 1561.3416,508.94926 C 1561.4488,508.54692 1561.5427,508.41281 1561.7571,508.41281 C 1562.0256,508.41281 1562.3741,508.68103 1563.2327,508.81515 C 1564.2249,508.81515 1565.5258,508.94926 1566.6659,508.94926 L 1580.2648,508.94926 C 1582.4512,508.94926 1583.2826,508.54692 1583.5506,508.54692 C 1583.7923,508.54692 1583.8325,508.81515 1583.8325,509.3516 C 1583.8325,510.0222 1583.7253,512.43623 1583.7253,513.37506 C 1583.6985,513.64328 1583.6181,513.91151 1583.4166,513.91151 C 1583.1485,513.91151 1583.0815,513.64328 1583.0413,513.24094 L 1583.0011,512.83857 C 1582.9337,511.89978 1582.0085,510.96099 1578.9505,510.82688 L 1574.6323,510.82688 L 1574.6323,524.90887 C 1574.6323,527.9935 1574.6323,530.6758 1574.8065,532.15104 C 1574.9003,533.08983 1575.1152,533.89454 1576.1342,534.02866 C 1576.6171,534.16277 1577.3815,534.16277 1577.8913,534.16277 C 1578.2666,534.16277 1578.4412,534.29688 1578.4412,534.43099 C 1578.4412,534.69922 1578.1593,534.83333 1577.784,534.83333 C 1575.5173,534.83333 1573.3582,534.69922 1572.3923,534.69922 C 1571.6145,534.69922 1569.442,534.83333 1568.0741,534.83333 C 1567.6314,534.83333 1567.3901,534.69922 1567.3901,534.43099 C 1567.3901,534.29688 1567.5241,534.16277 1567.94,534.16277 C 1568.4494,534.16277 1568.8653,534.16277 1569.1739,534.02866 C 1569.8579,533.89454 1570.0589,533.08983 1570.1662,532.15104 C 1570.3404,530.6758 1570.3404,527.9935 1570.3404,524.90887 L 1570.3404,510.82688"
         style="fill:#1b458e;fill-rule:nonzero;stroke:none"
         id="path10141" />
      <path
         d="M 1593.8239,534.43099 C 1593.274,534.16277 1593.1802,534.02866 1593.1802,533.22398 C 1593.1802,531.34636 1593.3142,529.33463 1593.341,528.66407 C 1593.3812,528.26173 1593.4889,527.85939 1593.7569,527.85939 C 1594.0652,527.85939 1594.1054,528.12762 1594.1054,528.39584 C 1594.1054,528.93229 1594.2398,529.60286 1594.4141,530.13935 C 1595.1651,532.68749 1597.1902,533.62632 1599.3225,533.62632 C 1602.4072,533.62632 1603.9226,531.61459 1603.9226,529.73697 C 1603.9226,527.9935 1603.3999,526.38411 1600.5564,524.23831 L 1598.974,523.03125 C 1595.2053,520.08077 1593.891,517.6667 1593.891,514.8503 C 1593.891,511.0951 1597.0561,508.41281 1601.8305,508.41281 C 1604.057,508.41281 1605.5054,508.68103 1606.3904,508.94926 C 1606.6991,508.94926 1606.8733,509.08337 1606.8733,509.3516 C 1606.8733,509.75393 1606.7393,510.82688 1606.7393,513.50917 C 1606.7393,514.17973 1606.6321,514.58207 1606.3636,514.58207 C 1606.1223,514.58207 1606.0151,514.31385 1606.0151,513.91151 C 1606.0151,513.64328 1605.8405,512.57034 1605.1163,511.63155 C 1604.6066,510.96099 1603.6143,509.88809 1601.3748,509.88809 C 1598.84,509.88809 1597.2974,511.49744 1597.2974,513.50917 C 1597.2974,515.11852 1598.089,516.32554 1600.9321,518.47138 L 1601.8975,519.14194 C 1606.0151,522.36069 1607.5305,524.64065 1607.5305,527.85939 C 1607.5305,529.87112 1606.7661,532.28515 1604.2983,533.89454 C 1602.5815,534.96744 1600.6636,535.23567 1598.84,535.23567 C 1596.8551,535.23567 1595.2991,535.10156 1593.8239,534.43099"
         style="fill:#1b458e;fill-rule:nonzero;stroke:none"
         id="path10143" />
      <path
         d="M 1123.4312,490.84384 L 1607.8656,490.84384 L 1607.8656,485.74748 L 1123.4312,485.74748 L 1123.4312,490.84384 z "
         style="fill:#898a8e;fill-rule:nonzero;stroke:none"
         id="path10145" />
    </g>
  </g>
</svg>
