<svg xmlns="http://www.w3.org/2000/svg" height="800" width="1200" viewBox="-39.687495 -15.15325 343.95829 90.9195"><path d="M168.1536 37.9396c-4.607 0-8.3558-3.7488-8.3558-8.3558s3.7488-8.3557 8.3558-8.3557 8.3557 3.7488 8.3557 8.3557c0 4.6521-3.794 8.3558-8.3557 8.3558m0-21.6798c-7.362 0-13.324 5.962-13.324 13.324 0 7.3621 5.962 13.324 13.324 13.324s13.324-5.9619 13.324-13.324c0-7.3169-5.962-13.324-13.324-13.324m-16.305 22.3572h1.084v5.0135h-1.084c-5.736 0-10.4334-4.6973-10.4334-10.4334V10.298h5.0135v6.6846h6.4587v5.0134h-6.4587v11.2464c0 2.9358 2.439 5.3747 5.42 5.3747m61.0645-.6775c-4.6069 0-8.3557-3.7488-8.3557-8.3558s3.7488-8.3557 8.3557-8.3557c4.607 0 8.3558 3.7488 8.3558 8.3557-.0452 4.6521-3.794 8.3558-8.3558 8.3558m0-21.6798c-7.362 0-13.324 5.962-13.324 13.324 0 7.3621 5.962 13.324 13.324 13.324 7.3621 0 13.324-5.9619 13.324-13.324 0-7.3169-5.9619-13.324-13.324-13.324m38.3461 21.6798c-4.607 0-8.3557-3.7488-8.3557-8.3558s3.7488-8.3557 8.3557-8.3557c4.607 0 8.3558 3.7488 8.3558 8.3557 0 4.6521-3.794 8.3558-8.3558 8.3558m0-21.6798c-7.362 0-13.324 5.962-13.324 13.324 0 7.3621 5.962 13.324 13.324 13.324 3.252 0 6.233-1.1743 8.5364-3.1164v2.6196h4.7876V29.5838c0-7.3169-5.9619-13.324-13.324-13.324m-56.006 0h2.3938v5.0134h-2.3938c-2.981 0-5.42 2.439-5.42 5.42v15.8985H184.82V26.6932c0-5.7361 4.6973-10.4334 10.4334-10.4334m34.3261-6.6394h5.0134v32.881h-5.0134zM108.0826 27.3707V43.224h-5.0134V27.3707c0-2.981-2.439-5.42-5.42-5.42s-5.42 2.439-5.42 5.42V43.224h-5.0134V27.3707c0-2.981-2.439-5.42-5.4199-5.42-2.981 0-5.42 2.439-5.42 5.42V43.224h-5.0134V27.3707c0-5.7361 4.6973-10.4334 10.3882-10.4334 3.2068 0 6.0071 1.4001 7.9493 3.6585 1.9421-2.2584 4.7424-3.6585 7.9492-3.6585 5.7361 0 10.4334 4.6973 10.4334 10.4334M124.794 38.617c-4.6069 0-8.3557-3.7487-8.3557-8.3557 0-4.607 3.7488-8.3557 8.3558-8.3557s8.3557 3.7488 8.3557 8.3557c0 4.607-3.794 8.3557-8.3557 8.3557m0-21.6797c-7.4073 0-13.3692 5.962-13.3692 13.324 0 7.3621 5.962 13.324 13.324 13.324s13.324-5.9619 13.324-13.324c.0452-7.3169-5.9167-13.324-13.2788-13.324" class="st0"/><path d="M30.3065 0C13.5498 0 0 13.5498 0 30.3065 0 47.063 13.5498 60.613 30.3065 60.613c16.7566 0 30.3065-13.5499 30.3065-30.3065C60.613 13.6402 47.2438 0 30.3065 0" class="st1"/><path d="M39.3397 7.4524l-8.988 29.8097-.0453.0452-.0903-.0452-8.988-29.8097L9.6202 45.6178h2.168s1.4453-6.6394 3.8391-10.614c1.3099-2.168 3.2972-3.9295 5.962-3.8843 1.897.0452 3.523 1.084 5.5554 3.9294.4517.6323.9937 1.6712 1.5357 2.6648.8581 1.6712 1.5808 3.3875 1.5808 3.3875s1.897-4.336 3.1164-6.0523c2.0325-2.8454 3.6585-3.8843 5.5555-3.9294 2.6648-.0452 4.6973 1.7163 5.962 3.8843 2.3937 3.9746 3.839 10.614 3.839 10.614h2.168z" class="st2" fill="#fff"/></svg>