<svg xmlns="http://www.w3.org/2000/svg" height="800" width="1200" viewBox="-36 -49.68725 312 298.1235"><path d="M16.273 198.748c-2.545 0-4.739-.302-6.54-.947-2.695-.95-4.893-2.698-6.441-2.698-1.045 0-1.697.849-1.896 2.698H0v-13.383h1.396c2.096 8.24 7.041 12.584 14.53 12.584 7.24 0 10.983-2.747 10.983-7.142 0-4.441-3.048-5.691-13.728-6.241-8.39-.446-12.729-4.844-12.729-11.73 0-6.99 5.538-12.183 13.077-12.183h.454c2.143-.052 4.14.35 6.036.897 1.699.5 5.894 2.745 6.592 2.745.996 0 1.3-.495 1.398-2.745h1.445v12.183h-1.445c-1.699-6.838-7.24-11.383-13.98-11.383-6.091 0-9.136 2.846-9.136 6.29 0 5.74 7.188 5.043 13.58 5.643 8.088.75 13.378 4.293 13.378 12.535 0 7.637-6.242 12.877-15.578 12.877m35.987-.948v-1.747h3.248v-17.824c0-3.544-1.749-5.593-5.092-5.593-2.75 0-5.792 2.846-5.792 5.593v17.824h3.294v1.748H32.69v-1.748h3.245v-33.7H32.69v-1.75h11.933v13.234c1.699-1.948 4.093-3.596 8.187-3.596 8.838 0 11.386 4.343 11.386 9.785v16.026h3.292v1.748H52.26m35.939-15.128c0-5.394-.799-10.882-5.543-10.882-3.543 0-6.291 5.488-6.291 10.882h11.834m-20.569 2.145c0-9.087 6.238-14.58 15.126-14.58 8.343 0 12.831 5.545 13.082 14.184H76.315c0 7.79 3.147 11.884 8.289 11.884 3.442 0 9.735-2.2 9.735-8.792v-.147h1.5v.35c0 5.842-4.843 11.033-13.432 11.033-8.538-.001-14.777-4.894-14.777-13.932m50.772-12.483c.148 0 .249 0 .397.055-.498-.304-1.095-.6-1.896-.6-6.088 0-8.138 5.99-8.138 11.832v12.429h3.292v1.748H96.832v-1.748h3.248v-23.165h-3.248v-1.746h11.933v2.698c1.699-1.951 3.746-3.596 7.84-3.596 2.695 0 5.891 1.745 5.891 6.14 0 2.247-1.847 4.045-4.093 4.045-2.197 0-3.995-1.798-3.995-4.045-.001-2.197 1.797-4.047 3.994-4.047m21.661 10.036c-.6.652-2 1.399-3.743 2.198-4.047 1.847-4.994 3.245-4.994 6.438 0 2.75 1.101 5.298 3.995 5.298 2.296 0 4.742-2.25 4.742-4.496v-9.437m-7.84-4.542c0 2.246-1.795 3.942-3.992 3.942-2.695 0-4.044-2.044-4.044-4.545 0-4.241 4.941-6.988 12.379-6.988 10.686 0 12.683 3.795 12.683 11.782v9.94c0 2.244.15 3.588 1.948 3.588 1.746 0 2.296-1.942 2.296-5.738v-.553h1.45v.802c0 7.79-3.245 8.688-7.691 8.688-3.142 0-5.289-1.347-6.39-4.441-1.45 2.893-5.24 4.44-8.988 4.44-6.639 0-9.235-3.343-9.235-7.538 0-7.34 7.738-7.29 13.129-8.74 3.101-.845 4.594-2.442 4.594-4.941 0-3.444-2.544-5.442-6.44-5.442-2.192 0-4.244.95-5.342 1.8a3.928 3.928 0 013.643 3.944m25.204 12.231v-17.175h-3.245v-1.746c4.994 0 8.636-3.596 9.738-9.235h2.047v9.235h4.939v1.746h-4.939v19.074c0 2.395 1.294 3.593 3.043 3.593 1.699 0 3.045-1.948 3.045-5.738v-.553h1.5v.799c0 6.939-3.193 8.688-8.338 8.688-5.144 0-7.79-1.75-7.79-8.688m32.048-18.273c-4.392 0-6.138 4.745-6.138 13.033 0 8.387 1.746 12.332 6.138 12.332 4.094 0 6.143-3.945 6.143-12.332-.001-8.288-2.05-13.033-6.143-13.033m.051 26.96c-8.441 0-14.831-4.895-14.831-13.927 0-9.09 6.39-14.58 14.779-14.58 9.287 0 14.778 5.49 14.778 14.58.001 9.033-6.191 13.928-14.726 13.928m35.246-.948v-1.747h3.248v-17.824c0-3.544-1.751-5.593-5.095-5.593-2.747 0-5.793 2.846-5.793 5.593v17.824h3.297v1.748H205.2v-1.748h3.245v-23.168H205.2v-1.746h11.933v2.698c1.699-1.948 4.097-3.596 8.192-3.596 8.833 0 11.38 4.343 11.38 9.785v16.026H240v1.748h-15.228m-119.594-68.437c-3.921 0-7.109 1.596-9.235 2.126-1.166.32-4.559 1.275-7.325 0-.534-.21-2.233-.317-.206 1.916.528.632 1.584 1.272 2.857 1.91 6.8 3.289 12.844 1.909 20.175-1.385 1.803-.843 4.774-.744 4.774-1.7-.101-.951-1.589-1.586-2.651-3.072-4.036-5.738-9.024-10.52-15.074-12.745-3.188-1.27-4.673-.315-3.716.527 2.334 2.236 3.5 6.376 6.581 9.88.957 1.06 2.336 2.125 3.82 2.543m10.411-3.078c0-2.23 3.391-5.623 4.031-7.643.742 2.02 4.034 5.413 4.034 7.643a4.038 4.038 0 01-4.034 4.039 4.034 4.034 0 01-4.031-4.04m0 11.048c0 2.229 3.391 5.732 4.031 7.752.742-2.02 4.034-5.522 4.034-7.752a4.032 4.032 0 10-8.065 0"/><path d="M85.109 120.977c-3.604-1.27-7.002-.952-9.232-1.165-1.171-.211-4.458-.32-6.586-2.337-.421-.42-1.907-1.163-.845 1.702.21.635.952 1.488 1.91 2.544 5.202 5.309 11.15 6.053 18.793 5.416 2.019-.107 5.308.637 5.521-.317.214-.85-1.381-1.697-1.913-3.292-1.806-6.587-4.673-12.634-9.445-16.673-2.446-2.117-4.247-1.696-3.618-.635 1.385 2.764 1.07 6.907 2.764 11.15.537 1.27 1.483 2.654 2.651 3.607"/><path d="M68.656 106.01c-2.868-2.23-6.162-2.868-8.069-3.61-1.171-.535-4.033-1.595-5.415-4.038-.315-.528-1.483-1.59-1.379 1.272.106.646.531 1.702 1.168 3.087 3.185 6.15 8.491 8.597 15.715 10.083 1.803.533 4.673 2.022 5.095 1.277.528-.64-.848-1.912-.741-3.614.106-6.474-.851-12.847-4.14-17.835-1.494-2.761-3.297-2.868-2.975-1.59.421 2.865-.958 6.578-.64 10.929.109 1.382.64 2.867 1.381 4.039"/><path d="M58.671 87.96c-2.014-2.872-4.769-4.46-6.258-5.737-.955-.744-3.294-2.651-3.716-5.308-.213-.531-.955-1.801-1.702.85 0 .636 0 1.7.213 3.082 1.059 6.685 5.205 10.403 11.252 13.908 1.598 1.064 3.713 3.185 4.356 2.758.635-.528-.213-2.017.317-3.502 2.126-5.943 3.081-12.103 1.598-17.627-.64-2.972-2.238-3.5-2.238-2.337-.525 2.76-2.862 5.74-3.823 9.878-.311 1.163-.311 2.763.001 4.036"/><path d="M55.281 67.469c-.75-3.081-2.767-5.418-3.612-7.117-.427-.955-1.913-3.401-1.385-5.943 0-.43-.213-1.915-1.699.214-.317.528-.629 1.584-.952 2.758-1.281 6.16 1.166 10.83 5.202 16.035 1.067 1.376 2.126 4.143 2.764 3.82.744-.216.632-1.806 1.587-2.865 3.719-4.57 6.688-9.665 7.117-14.973.427-2.761-.744-3.935-1.056-2.867-1.385 2.336-4.572 4.134-6.589 7.434-.742.847-1.377 2.333-1.377 3.504"/><path d="M57.93 48.246c0-3.078-1.166-5.73-1.59-7.426-.208-1.067-.854-3.617.213-5.738.104-.531.21-1.91-1.697-.317-.325.424-.859 1.272-1.488 2.337-2.657 5.303-1.598 10.296.846 16.032.643 1.486.958 4.247 1.595 4.14.744 0 1.064-1.49 2.121-2.337 4.564-3.286 8.496-7.117 10.302-11.89 1.057-2.442.214-3.824-.317-2.976-1.811 1.803-5.098 2.654-7.856 5.314-.955.527-1.806 1.797-2.129 2.86"/><path d="M65.575 31.155c.958-2.977.528-5.845.64-7.648 0-1.06.104-3.718 1.697-5.516.32-.323.744-1.598-1.379-.643-.531.21-1.272.848-2.123 1.809-4.137 4.35-4.463 9.45-3.722 15.608.216 1.696-.208 4.354.433 4.46.741.206 1.374-1.174 2.752-1.702 5.205-1.806 10.094-4.458 13.061-8.497 1.702-2.121 1.384-3.606.531-2.97-2.228 1.169-5.626 1.169-9.019 2.86-1.062.327-2.231 1.282-2.871 2.239"/><path d="M77.366 17.559c1.702-2.23 2.329-4.67 2.862-6.156.421-.745 1.278-2.975 3.188-3.82.421-.32 1.166-1.275-.955-1.062-.424 0-1.382.317-2.337.742-4.673 2.334-6.581 6.37-7.962 11.68-.32 1.38-1.486 3.506-.958 3.824.531.317 1.489-.531 2.66-.531 4.986.104 9.873-.531 13.477-2.975 2.022-1.168 2.227-2.443 1.382-2.228-2.225.318-4.986-.744-8.286-.533-1.057 0-2.229.424-3.071 1.059"/><path d="M90.738 8.537c1.809-1.486 2.758-3.502 3.617-4.673.421-.531 1.587-2.332 3.39-2.758C98.166 1 98.911.258 97.11.042c-.427-.104-1.168 0-2.126.216-4.458 1.059-6.901 4.244-9.016 8.704-.539 1.062-2.027 2.76-1.489 3.08.312.318 1.374-.32 2.438 0 4.14 1.06 8.493 1.383 12.108-.106 1.907-.64 2.329-1.7 1.584-1.595-2.014-.213-4.14-1.59-7.115-2.017-.838-.211-2.012-.107-2.756.213"/><path d="M111.55 1.423c-1.376 2.972-4.89 3.924-5.949 4.247-.848.32-4.46 1.272-7.111-.531 1.382-2.974 4.881-3.926 5.839-4.25.958-.208 4.463-1.27 7.221.534m29.952 30.264c2.331.843 4.345-.216 5.199-2.13.418-.842.626-1.378.626-2.224h3.09v24.952h-2.228c-3.828-10.412-13.375-20.498-24.536-22.936-11.036-1.7-23.883-1.49-30.255 8.173-1.809 2.65-.854 8.069 2.544 9.982 11.361 6.903 23.781 3.713 38.872 5.839 7.631 1.064 16.021 5.415 19.419 13.91 3.3 8.174 2.66 16.564-.632 22.085-7.755 13.269-22.191 14.546-31.435 14.546-9.662 0-19.326-4.46-26.969-7.224-2.331-.84-4.351.216-5.202 2.129-.427.846-.638 1.489-.638 2.23h-3.076V74.685c.849 0 1.801 0 3.076.106 2.972 12.103 12.527 21.03 22.085 23.787 11.046 3.287 22.084 2.758 30.687-3.294 3.398-2.334 4.674-7.43 3.398-11.89-1.912-6.692-12.217-8.495-19.646-8.602-15.925-.421-35.243-.21-40.981-17.731-2.227-8.39-.848-17.627 5.199-23.888 9.985-9.771 26.761-10.086 39.501-6.162 4.569.954 7.644 3.395 11.902 4.676m-7.443 97.676c3.927 0 7.112 1.596 9.345 2.126 1.171.32 4.458 1.275 7.229 0 .525-.21 2.228-.317.202 1.916-.533.632-1.59 1.272-2.859 1.91-6.805 3.289-12.847 1.909-20.065-1.385-1.92-.843-4.892-.744-4.791-1.7 0-.951 1.486-1.586 2.553-3.072 4.039-5.738 9.03-10.52 15.083-12.745 3.177-1.27 4.676-.315 3.716.527-2.34 2.236-3.401 6.376-6.584 9.88-.955 1.06-2.343 2.125-3.829 2.543"/><path d="M154.135 120.977c3.602-1.27 7-.952 9.229-1.165 1.172-.211 4.57-.32 6.587-2.337.427-.42 1.915-1.163.846 1.702-.214.635-.955 1.488-1.902 2.544-5.213 5.309-11.158 6.053-18.804 5.416-2.014-.107-5.204.637-5.517-.317-.213-.85 1.388-1.697 1.913-3.292 1.803-6.587 4.674-12.634 9.448-16.673 2.443-2.117 4.241-1.696 3.612-.635-1.382 2.764-1.067 6.907-2.759 11.15-.54 1.27-1.484 2.654-2.653 3.607"/><path d="M170.58 106.01c2.876-2.23 6.162-2.868 8.083-3.61 1.16-.535 4.135-1.595 5.41-4.038.317-.528 1.485-1.59 1.387 1.272-.114.646-.53 1.702-1.171 3.087-3.188 6.15-8.496 8.597-15.723 10.083-1.801.533-4.671 2.022-5.084 1.277-.43-.64.843-1.912.738-3.614-.111-6.474.846-12.847 4.132-17.835 1.599-2.761 3.301-2.868 2.985-1.59-.43 2.865.941 6.578.63 10.929-.104 1.382-.629 2.867-1.387 4.039"/><path d="M180.573 87.96c2.014-2.872 4.772-4.46 6.37-5.737.846-.744 3.188-2.651 3.713-5.308.102-.531.849-1.801 1.587.85.118.636 0 1.7-.099 3.082-1.059 6.685-5.316 10.403-11.36 13.908-1.599 1.064-3.714 3.185-4.247 2.758-.638-.528.106-2.017-.424-3.502-2.02-5.943-3.087-12.103-1.604-17.627.744-2.972 2.232-3.5 2.232-2.337.542 2.76 2.975 5.74 3.831 9.878.428 1.163.428 2.763.001 4.036"/><path d="M183.972 67.469c.843-3.081 2.756-5.418 3.604-7.117.427-.955 1.913-3.401 1.382-5.943 0-.43.317-1.915 1.801.214.328.528.528 1.584.856 2.758 1.272 6.16-1.171 10.83-5.101 16.035-1.168 1.376-2.225 4.143-2.87 3.82-.744-.216-.528-1.806-1.488-2.865-3.81-4.57-6.686-9.665-7.213-14.973-.43-2.761.744-3.935 1.056-2.867 1.388 2.336 4.575 4.134 6.589 7.434.855.847 1.384 2.333 1.384 3.504"/><path d="M181.416 48.246c-.104-3.078 1.067-5.73 1.483-7.426.219-1.067.957-3.617-.102-5.738-.214-.531-.314-1.91 1.593-.317.424.424.854 1.272 1.48 2.337 2.771 5.303 1.604 10.296-.739 16.032-.632 1.486-1.059 4.247-1.686 4.14-.747 0-.963-1.49-2.134-2.337-4.458-3.286-8.485-7.117-10.303-11.89-.955-2.442-.213-3.824.43-2.976 1.699 1.803 5.098 2.654 7.858 5.314.843.527 1.806 1.797 2.12 2.86"/><path d="M173.67 31.155c-.961-2.977-.531-5.845-.531-7.648-.112-1.06-.213-3.718-1.798-5.516-.216-.323-.761-1.598 1.483-.643.416.21 1.154.848 2.017 1.809 4.135 4.35 4.46 9.45 3.713 15.608-.208 1.696.211 4.354-.427 4.46-.741.206-1.385-1.174-2.657-1.702-5.303-1.806-10.189-4.458-13.161-8.497-1.699-2.121-1.275-3.606-.531-2.97 2.23 1.169 5.632 1.169 9.02 2.86 1.065.327 2.228 1.282 2.872 2.239"/><path d="M162.093 17.457c-1.588-2.233-2.228-4.673-2.756-6.16-.427-.744-1.385-2.971-3.19-3.825-.424-.312-1.169-1.275.96-1.06.427 0 1.275.32 2.329.748 4.674 2.33 6.586 6.367 7.861 11.675.314 1.486 1.598 3.505 1.056 3.82-.527.427-1.485-.531-2.761-.531-4.884.216-9.758-.528-13.372-2.868-2.129-1.27-2.228-2.542-1.488-2.336 2.328.323 5.103-.742 8.392-.525.954 0 2.23.422 2.969 1.062"/><path d="M148.603 8.537c-1.798-1.486-2.756-3.502-3.599-4.777-.43-.534-1.601-2.228-3.403-2.761-.427-.11-1.172-.742.643-.958.416-.104 1.272 0 2.118.216 4.457 1.059 6.898 4.244 9.027 8.603.53 1.163 2.019 2.755 1.488 3.075-.31.424-1.388-.213-2.443.107-4.144 1.059-8.505 1.275-12.005-.107-2.011-.64-2.446-1.81-1.696-1.7 2.025-.212 4.141-1.591 7.114-2.018.854-.211 2.014 0 2.756.32"/><path d="M127.697 1.423c1.371 2.972 4.873 3.924 5.943 4.247.846.32 4.463 1.272 7.114-.531-1.385-2.974-4.882-3.926-5.842-4.25-.957-.208-4.457-1.27-7.215.534"/></svg>