<?xml version="1.0" encoding="UTF-8" standalone="no"?>
<!-- Generator: Adobe Illustrator 12.0.0, SVG Export Plug-In . SVG Version: 6.00 Build 51448)  -->
<svg
   xmlns:dc="http://purl.org/dc/elements/1.1/"
   xmlns:cc="http://web.resource.org/cc/"
   xmlns:rdf="http://www.w3.org/1999/02/22-rdf-syntax-ns#"
   xmlns:svg="http://www.w3.org/2000/svg"
   xmlns="http://www.w3.org/2000/svg"
   xmlns:sodipodi="http://sodipodi.sourceforge.net/DTD/sodipodi-0.dtd"
   xmlns:inkscape="http://www.inkscape.org/namespaces/inkscape"
   version="1.1"
   id="Layer_1"
   width="400"
   height="124.3"
   viewBox="0 0 400 124.3"
   overflow="visible"
   enable-background="new 0 0 400 124.3"
   xml:space="preserve"
   sodipodi:version="0.32"
   inkscape:version="0.44.1"
   sodipodi:docname="wamu_svg.svg"
   sodipodi:docbase="C:\Documents and Settings\Compaq_Owner\My Documents"><metadata
   id="metadata2027"><rdf:RDF><cc:Work
       rdf:about=""><dc:format>image/svg+xml</dc:format><dc:type
         rdf:resource="http://purl.org/dc/dcmitype/StillImage" /></cc:Work></rdf:RDF></metadata><defs
   id="defs2025" /><sodipodi:namedview
   inkscape:window-height="719"
   inkscape:window-width="1024"
   inkscape:pageshadow="2"
   inkscape:pageopacity="0.0"
   guidetolerance="10.0"
   gridtolerance="10.0"
   objecttolerance="10.0"
   borderopacity="1.0"
   bordercolor="#666666"
   pagecolor="#ffffff"
   id="base"
   inkscape:zoom="1"
   inkscape:cx="200"
   inkscape:cy="142.15"
   inkscape:window-x="-4"
   inkscape:window-y="-4"
   inkscape:current-layer="Layer_1" />
<g
   id="g1986">
	<path
   fill="#FEC328"
   d="M124.3,0H0v124.3h124.3V0z"
   id="path1988" />
	<g
   id="g1990">
		<path
   fill="#4E5B75"
   d="M95.8,40.8c-0.1-1.1-0.5-2.2-1.3-3.4c-0.8-1.2-2-2.5-3.3-3.8l-2.7-2.7v37c0,1.4-0.5,2.6-1.3,3.9    c-0.7,1.2-1.8,2.5-3.1,3.8l-4.5,4.2c-0.9,0.8-1.7,1.6-2.3,2.4c-0.6,0.8-0.9,1.8-0.9,3v8.2l15.4-15.6c1.3-1.4,2.3-2.9,2.9-4.3    c0.7-1.5,1.1-3.3,1.1-5.2V40.8z"
   id="path1992" />
	</g>
	<g
   id="g1994">
		<path
   fill="#4E5B75"
   d="M83.6,66.5V30.9l-2.7,2.7c-1.4,1.3-2.5,2.6-3.3,3.8c-0.8,1.2-1.2,2.3-1.3,3.4v35.6l6-6.4    C83.1,68.8,83.6,67.6,83.6,66.5z"
   id="path1996" />
		<path
   fill="#4E5B75"
   d="M47.9,40.8c0-1.1-0.4-2.2-1.2-3.4c-0.9-1.2-2-2.5-3.4-3.8l-2.7-2.7v35.6c0.1,1.1,0.5,2.3,1.3,3.5    c0.8,1.2,2,2.4,3.4,3.8l2.6,2.6V40.8z"
   id="path1998" />
		<path
   fill="#4E5B75"
   d="M57,33.6c-1.4,1.3-2.5,2.6-3.3,3.8c-0.9,1.2-1.3,2.3-1.3,3.4v35.6l2.7-2.6c1.4-1.4,2.5-2.6,3.4-3.8    c0.8-1.2,1.2-2.4,1.2-3.5V30.9L57,33.6z"
   id="path2000" />
		<path
   fill="#4E5B75"
   d="M71.8,40.8c0-1.1-0.4-2.2-1.3-3.4l-6-6.5v35.6c0,1.1,0.5,2.3,1.3,3.5l6,6.4V40.8z"
   id="path2002" />
		<path
   fill="#4E5B75"
   d="M29.8,37.4c-0.8,1.2-1.2,2.3-1.3,3.4v27.5c0,1.9,0.4,3.7,1.1,5.2c0.6,1.4,1.6,2.9,2.9,4.3l15.4,15.6v-8.2    c0-1.2-0.3-2.2-0.9-3l-6.8-6.6c-1.3-1.3-2.4-2.6-3.2-3.8c-0.7-1.3-1.2-2.5-1.2-3.9v-37l-2.7,2.7C31.8,35,30.6,36.2,29.8,37.4z"
   id="path2004" />
		<path
   fill="#4E5B75"
   d="M55.6,79.9c-0.9,0.7-1.6,1.5-2.3,2.3c-0.5,0.8-0.8,1.8-0.9,3v8.2l9.7-9.8l9.7,9.8v-8.2    c0-1.2-0.3-2.2-0.9-3l-8.8-8.7L55.6,79.9z"
   id="path2006" />
	</g>
	<g
   id="g2008">
		<path
   fill="#4E5B75"
   d="M270.3,50.1c-2.8-2.2-6.9-3.3-12.4-3.3l-5.7,0.4c-1.7,0.2-3.4,0.7-5.1,1.3c-1.7,0.5-3.6,1.3-5.6,2.2v10.4    c2.7-1.4,5.2-2.4,7.5-3.1c2.4-0.7,4.7-1,7.1-1c1.8,0,3.3,0.3,4.3,1c1,0.8,1.5,2,1.5,3.7v1.5c-8.2,0.8-14.2,2.3-17.9,4.8    s-5.5,6-5.5,10.5c0,4.4,1.5,7.6,4.3,9.7c2.8,2,7.1,3,12.7,3l6.1-0.2l13-1.3V60.8C274.5,55.9,273.1,52.3,270.3,50.1z M251.7,74.9    c0.7-0.8,1.9-1.3,3.5-1.8c1.7-0.4,4-0.7,7-0.9v9l-6.3,0.5c-1.7,0-2.9-0.3-3.8-1.1c-0.9-0.6-1.3-1.6-1.3-2.9    C250.8,76.6,251.1,75.6,251.7,74.9z"
   id="path2010" />
	</g>
	<g
   id="g2012">
		<path
   fill="#4E5B75"
   d="M400,47.8h-13.5v31.3l-5.4,0.6c-2.6,0-4.4-0.5-5.4-1.6c-1-1-1.5-2.9-1.4-5.6V47.8h-13.5v24.4    c0,4.7,0.6,8.4,1.9,11.2c1.2,2.7,3.3,4.7,6.1,5.9c3,1.2,6.8,1.9,11.7,1.8l11.8-0.9l7.7-1.3V47.8z"
   id="path2014" />
	</g>
	<g
   id="g2016">
		<path
   fill="#4E5B75"
   d="M238.2,34.6h-13.4l-4.5,22.5l-4.8,19.3h-0.1l-10.3-41.8h-17.8l-10.6,41.8h-0.2l-4.6-19.3l-4.5-22.5H153    c1.5,7.5,3.1,14.5,4.6,20.9c1.6,6.4,3.1,12.4,4.7,18c1.5,5.6,3.2,11,4.9,16.2h17.5l6.2-22.1l4.7-19.8h0.2l4.4,19.8l6,22.1h18.3    c1.7-5.2,3.3-10.6,4.8-16.2L238.2,34.6z"
   id="path2018" />
	</g>
	<g
   id="g2020">
		<path
   fill="#4E5B75"
   d="M335.3,34.6c-1.3,0-2.3,0.1-3.1,0.5c-0.8,0.3-1.5,0.9-2.1,1.8c-0.5,0.9-1.2,2.3-1.8,4.1l-9.4,30.3    l-0.5,2.5h-0.2l-0.5-2.5L308.3,41c-0.7-1.8-1.2-3.2-1.8-4.1c-0.5-0.9-1.1-1.5-1.8-1.9l-3-0.4h-15.1c-0.7,6.2-1.2,11.7-1.6,16.5    l-1.1,13.5c-0.2,4.1-0.5,8.2-0.6,12.3l-0.5,12.8h12.8l1.9-42.2l13.6,42.2h14l13.6-42.2l1.9,42.2h12.8l-2.2-38.6l-1.6-16.5H335.3z"
   id="path2022" />
	</g>
</g>
</svg>