<svg xmlns="http://www.w3.org/2000/svg" height="800" width="1200" viewBox="-6.18825 -4.5427 53.6315 27.2562"><path d="M29.3091 6.1551V4.9074h.3122c.126 0 .2261.0314.3002.0935.0741.0624.1112.147.1112.2533 0 .0727-.0183.135-.0547.188-.0363.0529-.0885.0924-.1567.1185a.5612.5612 0 01.1182.1076c.038.0455.0917.1245.1609.237.0434.0714.0787.1246.1047.1602l.066.0896h-.2123l-.0547-.0825c-.002-.003-.005-.008-.0106-.0152l-.035-.049-.055-.0914-.06-.0977a.9661.9661 0 00-.1012-.1224c-.0307-.0303-.0582-.0522-.0829-.0656-.0247-.0134-.0663-.02-.1245-.02h-.0466v.5439zm.2328-1.096h-.0536v.3922h.0677c.09 0 .1517-.008.1852-.0229a.1764.1764 0 00.0783-.0699.206.206 0 00.0275-.1062.1895.1895 0 00-.031-.1065.1638.1638 0 00-.0876-.067c-.0374-.0131-.0995-.0198-.1866-.0198m1.2322-.1516h.7055v.1598h-.5263v.3803h.5087v.1598h-.5087v.388h.5443v.1599h-.7236zm1.5892.7242l-.1359-.0825c-.085-.0526-.1457-.1037-.182-.1542a.2905.2905 0 01-.054-.1735c0-.0984.034-.1782.1023-.2396.0681-.0614.1567-.092.2657-.092.104 0 .1996.0288.2864.087V5.18c-.0899-.0857-.1866-.1287-.2903-.1287-.0586 0-.1066.0134-.1443.0406-.0374.0268-.0561.061-.0561.103 0 .0374.0138.0723.0416.1048.0279.0325.0727.0667.1337.1026l.1365.0811c.152.0914.2283.207.2283.3479 0 .0998-.0335.1813-.1006.2437-.0667.0624-.1538.0938-.261.0938-.1231 0-.235-.038-.3362-.1146v-.2269c.0963.1228.2078.1838.3348.1838.056 0 .1023-.0155.1397-.0466.037-.031.0557-.0698.0557-.1167 0-.0758-.055-.1478-.1644-.2163m1.5069-.7419c.1926 0 .3532.061.4812.1831.128.122.1923.2749.1923.4586 0 .1842-.065.3362-.194.4569-.1295.1206-.2925.1806-.4894.1806-.1876 0-.3443-.06-.4695-.1806-.1252-.1207-.1877-.2716-.1877-.453 0-.1862.0631-.3404.1891-.4625.126-.122.2854-.183.478-.183m.008.1693c-.1428 0-.26.0448-.3517.134-.0921.0896-.138.2036-.138.3422 0 .1348.0463.2466.1384.3362.092.0893.2074.134.346.134.139 0 .2547-.0458.3482-.1368.0928-.091.1394-.2046.1394-.3404 0-.1323-.0466-.2434-.1394-.3338-.0935-.0903-.2074-.1354-.3429-.1354m1.2579 1.0961V4.9074h.3122c.126 0 .2261.0314.3002.0935.074.0624.1111.147.1111.2533 0 .0727-.0183.135-.0547.188-.0367.0529-.0885.0924-.1566.1185a.5587.5587 0 01.1178.1076c.0385.0455.0921.1245.1612.237.0434.0714.0783.1246.1044.1602l.0663.0896h-.2127l-.0543-.0825c-.002-.003-.005-.008-.0106-.0152l-.0349-.049-.0554-.0914-.0596-.0977a1.0028 1.0028 0 00-.1012-.1224c-.0307-.0303-.0586-.0522-.083-.0656-.0246-.0134-.0662-.02-.1245-.02h-.0462v.5439zm.2324-1.096h-.0529v.3922h.0674c.09 0 .1514-.008.1849-.0229a.1749.1749 0 00.0783-.0699.2024.2024 0 00.0279-.1062.1902.1902 0 00-.031-.1065.165.165 0 00-.0875-.067c-.0374-.0131-.0998-.0198-.187-.0198m.9614-.1516h1.0428v.1598h-.4357v1.088h-.1795v-1.088h-.4276zm1.8858.7242l-.1358-.0825c-.085-.0526-.1457-.1037-.1817-.1542-.0363-.05-.0543-.1083-.0543-.1735 0-.0984.0342-.1782.1023-.2396.068-.0614.1566-.092.2656-.092.104 0 .1997.0288.2868.087V5.18c-.0903-.0857-.187-.1287-.2907-.1287-.0586 0-.1065.0134-.1439.0406-.0377.0268-.0564.061-.0564.103 0 .0374.0141.0723.042.1048.0275.0325.0723.0667.1334.1026l.1365.0811c.152.0914.2282.207.2282.3479 0 .0998-.0335.1813-.1002.2437-.067.0624-.1541.0938-.261.0938-.1231 0-.2353-.038-.3366-.1146v-.2269c.0967.1228.2082.1838.3348.1838.0561 0 .1027-.0155.1397-.0466a.145.145 0 00.0557-.1167c0-.0758-.0547-.1478-.1644-.2163M12.4459.008c-.0102-.0395-.3584.0709-.3337.2642.0695.345.1016.8692-.025 1.1652-.2928.6798-.7793 1.2757-1.1381 1.9474-1.555 2.9097-3.404 4.6027-5.1834 5.745-.133.0856-.8046.3227-.9263.0768-.3715-.7468 1.3123-2.4295 1.5525-3.1055.008-.0963.0155-.194.0236-.292-.0332-.0707-.0674-.1422-.1005-.2131-.095-.083-.2378-.091-.3708-.0801-.0212.004-.044.007-.067.0102l-.0716.0222c-.4805.1887-.7341.7246-1.1186 1.0622-.4911.4286-1.0347.8308-1.5724 1.174-.3083.1965-.7718.5433-.9334.6671-.1616.1239-.7063.5101-1.0753.3997-.1824-.0536-.2028-.2878-.1623-.4494.1433-.585.7758-1.1098 1.1988-1.5162.4455-.43.865-1.0178 1.1737-1.5406.1326-.2283.3217-.4696.3164-.7469-.0233-1.1176-1.4065.3207-1.6016.6379-.0808.1241-.1457.1933-.29.4007C1.084 6.7138-1.0347 8.8365.6152 9.9015c.2459.1479.6054.206 1.2009-.1456.4483-.265 1.859-1.2577 2.2856-1.1603-.0646.005-.0004.1446-.0187.2215-.0183.0766-.0635.4103-.0706.4816-.0741.7295.5048.6187.9772.7648.2794.0363 1.483-.146 2.9693-1.5477.61-.5743 1.1907-1.0611 2.0423-2.1501 1.004-1.2849.6604-1.1519 1.5815-2.429.225-.3485.4494-.6977.6734-1.0466.3218-.4632.7613-.975.908-1.5088.1334-.4886-.2024-1.3392-.7182-1.3734"/><path d="M11.7932 11.694c-.3852 2.553-1.2308 4.2-3.756 5.1124-.1693.0639-.762.2286-.848.232-1.3018.101-2.2624.1289-3.229-.5287-.204-.1387-.4124-.6008-.368-.89.1291-.8736.8371-1.445 1.453-2.0571.8626-.8601 1.7552-1.6503 2.7034-2.375.5726-.4264 1.1444-.855 1.717-1.2816.1947-.0152.3884.058.6128.0258.4459-.0646 1.3493-.4392 1.6975-.7048.0162-.046.2657-.1305.2974-.023.0265.1306.0512.2604.077.3906-.004.7401-.2534 1.4048-.357 2.0994m15.8735-1.6708c.1997-.0342 3.0187-.8054 4.317-.6692.5909 0 2.3336.5408 2.892.5733.4636.0547 2.1432.09 2.1788.09.5538.0007 1.1402.0385 1.501-.4689.0777-.111-.0137-.1996-.115-.232-.4713-.1553-1.384-.1045-1.6252-.0643-2.2553.1753-2.862-.3697-4.9862-.5207-.5708-.0409-4.1074.6393-4.2167.6597 0 0-.4512.0903-.9211.2163-.47.1266-.5052-.3246-.5242-.4692-.018-.1443.1816-1.0517.2356-1.264.108-.4336-.1086-.7409-.3076-.7592-.2166-.0191-.6318.2533-.7945.398-.1626.1442-1.3543.9567-1.6972 1.246-.344.2889-.4519-.0904-.3612-.2347.09-.1446.2885-.6685.3972-.9754.1083-.3073-.1087-.5059-.2893-.5958-.1806-.0907-.5595.1443-.6678.2529-.1086.108-.6868.5055-1.0654.7765-.3796.2706-1.3906.83-1.8429 1.0474-.4512.2162-.4512-.3253-.4152-.5782.0367-.2523.1436-.658.1993-1.1018.072-.5775-.4882-.4512-.7045-.3425-.2173.1076-1.9688 1.336-2.2034 1.517-.2346.1802-.2346-.1267-.2166-.2354.018-.1083.054-.3249.2526-.758.1986-.4336.0363-.56 0-.7586-.036-.199-.4692-.1083-.8125.0356-.1898.0804-2.2779.835-2.3551.8527-.0656.006-.1327.0106-.1987.0155-.0003-.01-.036-.0198-.037-.0639-.007-.2293-.1047-.4007-.3633-.3637-.5422.0737-.8361.5669-1.2323.8848-.5556.4459-1.1253.9267-1.7639 1.2372-.1954.104-.158-.3475-.0194-.5133.8742-1.0429.5416-.6869.9571-1.1321.3133-.405.736-.8484.8947-1.325.1432-.4371-.071-1.1476-.5373-1.2034-.1722-.008-.2992.137-.2981.2618.0226.307-.022.6703-.145.9409-.2787.6117-.676 1.1863-1.1236 1.713-.6473.762-.682 1.4045-.682 1.4045s-.9983.659-1.3874 1.0004c-.6293.52-1.2601 1.04-1.8909 1.5604-1.0883.9821-3.768 2.796-2.878 4.5607.188.3743.5003.709.8824.9133.5849.313 1.3589.6509 2.082.5948a.6526.6526 0 00.1666.0233c.5708.01 1.197-.0639 1.7162-.23 3.4445-1.105 5.612-4.8645 5.327-8.5404-.0162-.207.1002-.4509.2557-.5902.3532-.3164 1.728-1.186 2.1608-1.2605.5239-.0903.289.7042.2166.9571-.072.253-.289.6142-.325.9215-.036.3065.2784.443.5056.5231.3073.1083.7585-.2889.9035-.4152.144-.1266 1.4619-1.264 1.6972-1.427.235-.1622.271.199.235.3613-.0363.163-.1447.5962-.163.8671-.0176.2706.0367.5595.2709.7041.2346.1447.4696.0363.7405-.1266.2713-.162 1.9681-1.2816 2.1128-1.354.145-.072.5602-.3972.8311-.4695.2706-.0727.253.2346.1267.5055-.0466.0998-.1627.6142-.217.8672-.0543.2525-.0723.5235.2346.776.2374.1959.7945-.3432.939-.4695.1447-.126 1.39-1.2456 1.6253-1.3903.2343-.1446.3433.2103.2533.5419-.109.3972-.1323.769-.0603.9045.1623.307.4805.4692 1.2337.3955.1273-.012 1.102-.1983 1.102-.1983M39.345 9.691c.079.2287.2126.4054.588.4753.1715.0317.3888-.071.4191-.1835.0406-.1485.12-.2254.085-.413-.0441-.2357-.2134-.4054-.5888-.4753-.1707-.0314-.3884.071-.418.1838-.0406.1482-.1482.2311-.0854.4128m1.5231.332c.2134 0 .387.174.387.3874 0 .213-.1736.387-.387.387a.3881.3881 0 01-.3873-.387.3882.3882 0 01.3873-.3874m0 .706a.3187.3187 0 10-.3186-.3186c0 .1757.1426.3185.3186.3185m-.1489-.5425h.1708c.1062 0 .1559.048.1559.1333 0 .077-.0455.1147-.1058.1217l.1153.1873H40.97l-.1104-.181h-.0593v.181h-.0811zm.0811.1926h.0593c.0501 0 .1055-.003.1055-.0624 0-.0593-.0554-.0624-.1055-.0614h-.0593z"/></svg>